<svg width="24" height="24" viewBox="0 0 24 24" fill="white" xmlns="http://www.w3.org/2000/svg">
<path d="M12 1.5C6.211 1.5 1.5 6.211 1.5 12C1.5 17.789 6.211 22.5 12 22.5C17.789 22.5 22.5 17.789 22.5 12C22.5 6.211 17.789 1.5 12 1.5ZM12 3.25C16.8431 3.25 20.75 7.15688 20.75 12C20.7521 14.0947 20.001 16.1204 18.6337 17.7073C17.2664 19.2942 15.374 20.3365 13.302 20.6441V14.5515H15.794L16.1851 12.0201H13.302V10.6376C13.302 9.58762 13.6476 8.654 14.6303 8.654H16.2096V6.4455C15.9323 6.40788 15.3451 6.3265 14.2356 6.3265C11.9186 6.3265 10.5606 7.54975 10.5606 10.3375V12.0201H8.17888V14.5515H10.5606V20.6222C8.51728 20.2859 6.66008 19.2341 5.32086 17.6546C3.98163 16.0751 3.24763 14.0708 3.25 12C3.25 7.15688 7.15688 3.25 12 3.25Z"/>
</svg>
