<svg width="163" height="48" viewBox="0 0 163 48" fill="none" xmlns="http://www.w3.org/2000/svg">
<g clip-path="url(#clip0_60_397)">
<path fill-rule="evenodd" clip-rule="evenodd" d="M156.64 48H6.02693C2.70524 48 0 45.2948 0 42V6C0 2.69327 2.70524 0 6.02693 0H156.64C159.959 0 162.667 2.69327 162.667 6V42C162.667 45.2948 159.959 48 156.64 48Z" fill="black"/>
<path fill-rule="evenodd" clip-rule="evenodd" d="M156.64 0.960598C159.426 0.960598 161.707 3.22594 161.707 6V42C161.707 44.7741 159.441 47.0394 156.64 47.0394H6.02693C3.2409 47.0394 0.960598 44.7741 0.960598 42V6C0.960598 3.22594 3.22594 0.960598 6.02693 0.960598H156.64ZM156.64 0H6.02693C2.70524 0 0 2.70524 0 6V42C0 45.3067 2.70524 48 6.02693 48H156.64C159.959 48 162.667 45.3067 162.667 42V6C162.667 2.70524 159.959 0 156.64 0Z" fill="white"/>
<path d="M85.6936 15.8783C84.6073 15.8783 83.6916 15.4983 82.9674 14.7501C82.2492 14.0229 81.8482 13.0205 81.8661 11.997C81.8661 10.9047 82.2372 9.98005 82.9674 9.24689C83.6886 8.49876 84.6043 8.11871 85.6906 8.11871C86.7649 8.11871 87.6806 8.49876 88.4167 9.24689C89.1469 10.004 89.518 10.9287 89.518 11.997C89.506 13.0923 89.1349 14.017 88.4167 14.7471C87.6955 15.5012 86.7798 15.8783 85.6936 15.8783ZM53.3716 15.8783C52.3092 15.8783 51.3875 15.5042 50.6334 14.7651C49.8853 14.0289 49.5052 13.0983 49.5052 12C49.5052 10.9017 49.8853 9.97108 50.6334 9.23492C51.3726 8.49576 52.2943 8.1217 53.3716 8.1217C53.8982 8.1217 54.41 8.22644 54.9007 8.43891C55.3825 8.64539 55.7745 8.92669 56.0648 9.27083L56.1366 9.35761L55.3257 10.1536L55.2419 10.0549C54.784 9.51023 54.1706 9.24389 53.3596 9.24389C52.6354 9.24389 52.004 9.50125 51.4833 10.01C50.9596 10.5217 50.6933 11.192 50.6933 12.003C50.6933 12.814 50.9596 13.4843 51.4833 13.996C52.004 14.5047 52.6354 14.7621 53.3596 14.7621C54.1317 14.7621 54.781 14.5047 55.2868 13.996C55.586 13.6968 55.7715 13.2778 55.8374 12.7481H53.2369V11.6289H56.9536L56.9685 11.7307C56.9955 11.9192 57.0224 12.1137 57.0224 12.2933C57.0224 13.3257 56.7112 14.1606 56.0947 14.7771C55.3945 15.5072 54.4788 15.8783 53.3716 15.8783ZM96.3469 15.7197H95.2007L91.6905 10.1027L91.7204 11.1142V15.7167H90.5743V8.2803H91.882L91.918 8.33716L95.2187 13.6279L95.1888 12.6195V8.2803H96.3469V15.7197ZM77.0811 15.7197H75.92V9.3995H73.9061V8.2803H79.0921V9.3995H77.0781V15.7197H77.0811ZM72.9605 15.7197H71.8024V8.2803H72.9605V15.7197ZM66.4518 15.7197H65.2937V9.3995H63.2797V8.2803H68.4657V9.3995H66.4518V15.7197ZM62.5466 15.7077H58.1057V8.2803H62.5466V9.3995H59.2668V11.4404H62.2264V12.5476H59.2668V14.5885H62.5466V15.7077ZM83.8173 13.9811C84.335 14.4988 84.9634 14.7591 85.6936 14.7591C86.4447 14.7591 87.0581 14.5047 87.5699 13.9811C88.0786 13.4723 88.3359 12.805 88.3359 12C88.3359 11.195 88.0786 10.5247 87.5728 10.019C87.0551 9.50125 86.4237 9.2409 85.6965 9.2409C84.9454 9.2409 84.332 9.49526 83.8232 10.019C83.3145 10.5277 83.0572 11.195 83.0572 12C83.0572 12.805 83.3115 13.4753 83.8173 13.9811Z" fill="white"/>
<path fill-rule="evenodd" clip-rule="evenodd" d="M81.7585 26.1067C78.9306 26.1067 76.6383 28.2524 76.6383 31.212C76.6383 34.1446 78.9455 36.3172 81.7585 36.3172C84.5864 36.3172 86.8787 34.1566 86.8787 31.212C86.8787 28.2524 84.5864 26.1067 81.7585 26.1067ZM81.7585 34.2943C80.2114 34.2943 78.8797 33.0135 78.8797 31.2C78.8797 29.3596 80.2144 28.1057 81.7585 28.1057C83.3056 28.1057 84.6373 29.3596 84.6373 31.2C84.6403 33.0254 83.3056 34.2943 81.7585 34.2943ZM70.5874 26.1067C67.7595 26.1067 65.4672 28.2524 65.4672 31.212C65.4672 34.1446 67.7744 36.3172 70.5874 36.3172C73.4153 36.3172 75.7076 34.1566 75.7076 31.212C75.7076 28.2524 73.4123 26.1067 70.5874 26.1067ZM70.5874 34.2943C69.0403 34.2943 67.7086 33.0135 67.7086 31.2C67.7086 29.3596 69.0433 28.1057 70.5874 28.1057C72.1345 28.1057 73.4662 29.3596 73.4662 31.2C73.4662 33.0254 72.1345 34.2943 70.5874 34.2943ZM57.2946 27.6658V29.8264H62.4807C62.3221 31.0384 61.9211 31.9332 61.3076 32.5466C60.5475 33.3067 59.3744 34.1327 57.3066 34.1327C54.1196 34.1327 51.6268 31.5591 51.6268 28.3721C51.6268 25.185 54.1196 22.6115 57.3066 22.6115C59.0273 22.6115 60.2812 23.2908 61.2118 24.1586L62.744 22.6264C61.4512 21.3875 59.7305 20.4389 57.3186 20.4389C52.9465 20.4389 49.2776 24 49.2776 28.3601C49.2776 32.7322 52.9435 36.2813 57.3186 36.2813C59.6797 36.2813 61.4512 35.5092 62.8517 34.0549C64.2792 32.6274 64.731 30.6135 64.731 28.9885C64.731 28.4828 64.6921 28.0279 64.6113 27.6419H57.2916C57.2946 27.6389 57.2946 27.6658 57.2946 27.6658ZM111.666 29.3476C111.238 28.2015 109.945 26.0948 107.294 26.0948C104.666 26.0948 102.482 28.1626 102.482 31.2C102.482 34.0668 104.642 36.3052 107.548 36.3052C109.882 36.3052 111.241 34.8778 111.8 34.0399L110.068 32.8788C109.493 33.7317 108.694 34.2913 107.56 34.2913C106.414 34.2913 105.612 33.7706 105.079 32.7441L111.905 29.9162C111.905 29.9192 111.666 29.3476 111.666 29.3476ZM104.705 31.0534C104.651 29.0813 106.237 28.0788 107.372 28.0788C108.266 28.0788 109.011 28.5187 109.266 29.1591L104.705 31.0534ZM99.16 36H101.401V21.0015H99.16V36ZM95.4792 27.2409H95.3984C94.8927 26.6394 93.9321 26.0948 92.7051 26.0948C90.1585 26.0948 87.8124 28.3362 87.8124 31.215C87.8124 34.0818 90.1465 36.2963 92.7051 36.2963C93.9171 36.2963 94.8927 35.7486 95.3984 35.1352H95.4792V35.8683C95.4792 37.8165 94.4378 38.8668 92.759 38.8668C91.3854 38.8668 90.5326 37.8793 90.1854 37.0534L88.2373 37.8673C88.7969 39.214 90.2902 40.8808 92.756 40.8808C95.3835 40.8808 97.6099 39.3337 97.6099 35.5601V26.4H95.4912V27.2409C95.4942 27.2409 95.4792 27.2409 95.4792 27.2409ZM92.9056 34.2943C91.3585 34.2943 90.0657 33.0015 90.0657 31.215C90.0657 29.4135 91.3585 28.1087 92.9056 28.1087C94.4378 28.1087 95.6258 29.4284 95.6258 31.215C95.6408 33.0015 94.4408 34.2943 92.9056 34.2943ZM122.161 21.0015H116.801V36H119.042V30.3202H122.164C124.644 30.3202 127.083 28.5217 127.083 25.6668C127.083 22.812 124.653 21.0015 122.161 21.0015ZM122.226 28.2254H119.039V23.0783H122.226C123.905 23.0783 124.854 24.4638 124.854 25.6519C124.854 26.8279 123.893 28.2254 122.226 28.2254ZM136.067 26.0798C134.439 26.0798 132.76 26.801 132.066 28.3721L134.053 29.198C134.481 28.3721 135.265 28.0908 136.094 28.0908C137.255 28.0908 138.428 28.785 138.455 30.0239V30.1825C138.054 29.9551 137.174 29.608 136.121 29.608C133.975 29.608 131.799 30.781 131.799 32.9805C131.799 34.9945 133.559 36.2873 135.519 36.2873C137.024 36.2873 137.853 35.608 138.371 34.8209H138.452V35.982H140.612V30.2364C140.612 27.5611 138.625 26.0798 136.067 26.0798ZM135.786 34.2943C135.052 34.2943 134.026 33.9352 134.026 33.0135C134.026 31.8524 135.307 31.4125 136.399 31.4125C137.387 31.4125 137.853 31.6249 138.44 31.9182C138.278 33.2648 137.141 34.2823 135.786 34.2943ZM148.495 26.4L145.921 32.9057H145.84L143.174 26.4H140.762L144.763 35.4943L142.483 40.5486H144.817L150.973 26.4H148.495ZM128.319 36H130.561V21.0015H128.319V36Z" fill="white"/>
<path fill-rule="evenodd" clip-rule="evenodd" d="M12.5207 9.0404C12.1735 9.41447 11.973 9.98604 11.973 10.7342V37.2688C11.973 38.0169 12.1735 38.5885 12.5326 38.9476L12.6254 39.0284L27.4923 24.1616V23.8294L12.6134 8.9596L12.5207 9.0404Z" fill="url(#paint0_linear_60_397)"/>
<path fill-rule="evenodd" clip-rule="evenodd" d="M32.4389 29.1322L27.4803 24.1736V23.8264L32.4389 18.8678L32.5466 18.9337L38.4119 22.2673C40.0907 23.213 40.0907 24.7751 38.4119 25.7327L32.5466 29.0663L32.4389 29.1322Z" fill="url(#paint1_linear_60_397)"/>
<path fill-rule="evenodd" clip-rule="evenodd" d="M32.5466 29.0663L27.4803 24L12.5207 38.9596C13.0683 39.5461 13.987 39.612 15.0135 39.0404L32.5466 29.0663Z" fill="url(#paint2_linear_60_397)"/>
<path fill-rule="evenodd" clip-rule="evenodd" d="M32.5466 18.9337L15.0135 8.97456C13.987 8.38803 13.0653 8.46883 12.5207 9.05536L27.4803 24L32.5466 18.9337Z" fill="url(#paint3_linear_60_397)"/>
<path opacity="0.2" fill-rule="evenodd" clip-rule="evenodd" d="M32.4389 28.9585L15.0254 38.8519C14.0529 39.4115 13.185 39.3726 12.6254 38.8639L12.5327 38.9566L12.6254 39.0374C13.185 39.5432 14.0529 39.5851 15.0254 39.0255L32.5586 29.0663L32.4389 28.9585Z" fill="black"/>
<path opacity="0.12" fill-rule="evenodd" clip-rule="evenodd" d="M38.412 25.5591L32.424 28.9586L32.5317 29.0663L38.397 25.7327C39.2379 25.2539 39.6509 24.6254 39.6509 24C39.6 24.5746 39.1721 25.1192 38.412 25.5591Z" fill="black"/>
<path opacity="0.25" fill-rule="evenodd" clip-rule="evenodd" d="M15.0134 9.14813L38.412 22.4409C39.1721 22.8689 39.6 23.4285 39.6659 24C39.6659 23.3746 39.2529 22.7462 38.412 22.2674L15.0134 8.97457C13.3346 8.01397 11.973 8.81596 11.973 10.7342V10.9077C11.973 8.98654 13.3346 8.1995 15.0134 9.14813Z" fill="white"/>
</g>
<defs>
<linearGradient id="paint0_linear_60_397" x1="26.1588" y1="10.4479" x2="2.34457" y2="16.7932" gradientUnits="userSpaceOnUse">
<stop stop-color="#00A0FF"/>
<stop offset="0.00657" stop-color="#00A1FF"/>
<stop offset="0.2601" stop-color="#00BEFF"/>
<stop offset="0.5122" stop-color="#00D2FF"/>
<stop offset="0.7604" stop-color="#00DFFF"/>
<stop offset="1" stop-color="#00E3FF"/>
</linearGradient>
<linearGradient id="paint1_linear_60_397" x1="40.6012" y1="24" x2="11.5651" y2="24" gradientUnits="userSpaceOnUse">
<stop stop-color="#FFE000"/>
<stop offset="0.4087" stop-color="#FFBD00"/>
<stop offset="0.7754" stop-color="#FFA500"/>
<stop offset="1" stop-color="#FF9C00"/>
</linearGradient>
<linearGradient id="paint2_linear_60_397" x1="29.7918" y1="26.7568" x2="10.6739" y2="58.9337" gradientUnits="userSpaceOnUse">
<stop stop-color="#FF3A44"/>
<stop offset="1" stop-color="#C31162"/>
</linearGradient>
<linearGradient id="paint3_linear_60_397" x1="8.7537" y1="0.214551" x2="17.2829" y2="14.5853" gradientUnits="userSpaceOnUse">
<stop stop-color="#32A071"/>
<stop offset="0.0685" stop-color="#2DA771"/>
<stop offset="0.4762" stop-color="#15CF74"/>
<stop offset="0.8009" stop-color="#06E775"/>
<stop offset="1" stop-color="#00F076"/>
</linearGradient>
<clipPath id="clip0_60_397">
<rect width="162.667" height="48" fill="white"/>
</clipPath>
</defs>
</svg>
