<svg width="142" height="64" viewBox="0 0 142 64" fill="none" xmlns="http://www.w3.org/2000/svg">
<path d="M50.1293 12.1779C50.1293 12.6686 50.0367 13.1294 49.8514 13.56C49.6661 13.9932 49.412 14.3713 49.089 14.6943C48.766 15.0173 48.3866 15.2714 47.951 15.4567C47.5178 15.642 47.0546 15.7346 46.5613 15.7346H41.9718V1.24111H46.5613C47.0546 1.24111 47.5178 1.33375 47.951 1.51904C48.3866 1.70432 48.766 1.95846 49.089 2.28146C49.412 2.60445 49.6661 2.98379 49.8514 3.41945C50.0367 3.85512 50.1293 4.31833 50.1293 4.80909V4.95181C50.1293 5.29483 50.0843 5.62284 49.9941 5.93582C49.9015 6.2488 49.7713 6.54049 49.6035 6.81091C49.4358 7.07882 49.2367 7.32295 49.0063 7.54328C48.7785 7.76112 48.5231 7.94515 48.2402 8.09538C48.5231 8.24311 48.7785 8.42589 49.0063 8.64372C49.2367 8.86406 49.4358 9.11069 49.6035 9.38361C49.7713 9.65653 49.9015 9.94948 49.9941 10.2625C50.0843 10.5754 50.1293 10.9034 50.1293 11.2465V12.1779ZM48.8261 12.1779V11.0361C48.8261 10.7106 48.7647 10.4089 48.642 10.131C48.5219 9.85058 48.3553 9.60645 48.1425 9.39863C47.9297 9.18831 47.6843 9.02305 47.4064 8.90287C47.126 8.78018 46.8242 8.71884 46.5013 8.71884H43.2751V14.4914H46.5013C46.8242 14.4914 47.126 14.4314 47.4064 14.3112C47.6843 14.1885 47.9297 14.0232 48.1425 13.8154C48.3553 13.6051 48.5219 13.361 48.642 13.083C48.7647 12.8026 48.8261 12.5009 48.8261 12.1779ZM48.8261 5.15086V4.80909C48.8261 4.48609 48.7647 4.18438 48.642 3.90395C48.5219 3.62352 48.3553 3.37814 48.1425 3.16782C47.9297 2.95499 47.6843 2.78723 47.4064 2.66455C47.126 2.54436 46.8242 2.48427 46.5013 2.48427H43.2751V7.47568H46.5013C46.8242 7.47568 47.126 7.41559 47.4064 7.2954C47.6843 7.17522 47.9297 7.00871 48.1425 6.79589C48.3553 6.58306 48.5219 6.33643 48.642 6.056C48.7647 5.77807 48.8261 5.47636 48.8261 5.15086ZM60.7732 15.7346H52.6156V1.24111H60.7732V2.48427H53.9189V7.87004H59.4699V9.11319H53.9189V14.4914H60.7732V15.7346ZM70.587 15.7346H62.4295V15.1187L68.8894 2.48427H62.6323V1.24111H70.587V1.86832L64.1271 14.4914H70.587V15.7346ZM74.3765 15.7346H73.0733V1.24111H74.3765V15.7346ZM85.8466 15.7346H77.6891V1.24111H85.8466V2.48427H78.9961V7.87004H84.5434V9.11319H78.9961V14.4914H85.8466V15.7346ZM96.4905 15.7346H95.1872V9.11319H89.6362V15.7346H88.333V1.24111H89.6362V7.87004H95.1872V1.24111H96.4905V15.7346ZM107.75 12.3807C107.75 12.8715 107.658 13.3322 107.472 13.7628C107.287 14.1935 107.032 14.5716 106.706 14.8971C106.383 15.2201 106.006 15.4742 105.576 15.6595C105.145 15.8448 104.683 15.9374 104.19 15.9374H103.161C102.667 15.9374 102.204 15.8448 101.771 15.6595C101.335 15.4742 100.956 15.2201 100.633 14.8971C100.31 14.5716 100.056 14.1935 99.8707 13.7628C99.6854 13.3322 99.5927 12.8715 99.5927 12.3807V1.24111H100.896V12.3807C100.896 12.7037 100.957 13.0042 101.08 13.2821C101.2 13.5625 101.367 13.8091 101.58 14.022C101.792 14.2348 102.038 14.4013 102.316 14.5215C102.596 14.6442 102.898 14.7055 103.221 14.7055H104.13C104.453 14.7055 104.754 14.6442 105.035 14.5215C105.315 14.4013 105.559 14.2348 105.767 14.022C105.978 13.8091 106.143 13.5625 106.263 13.2821C106.386 13.0042 106.447 12.7037 106.447 12.3807V1.24111H107.75V12.3807ZM119.018 15.7346H118.33L112.287 5.18466L112.167 4.55745V15.7346H110.86V1.24111H111.54L117.583 11.8023L117.714 12.4183V1.24111H119.018V15.7346ZM130.277 8.11416V15.7346H129.864L129.106 14.5741C128.788 14.9897 128.403 15.3215 127.953 15.5694C127.502 15.8147 127 15.9374 126.446 15.9374H125.688C125.197 15.9374 124.734 15.8448 124.298 15.6595C123.865 15.4742 123.486 15.2201 123.16 14.8971C122.837 14.5716 122.583 14.1935 122.398 13.7628C122.212 13.3322 122.12 12.8715 122.12 12.3807V4.59501C122.12 4.10426 122.212 3.64355 122.398 3.21289C122.583 2.78223 122.837 2.40415 123.16 2.07865C123.486 1.75565 123.865 1.50151 124.298 1.31623C124.734 1.13094 125.197 1.0383 125.688 1.0383H126.721C127.211 1.0383 127.672 1.13094 128.103 1.31623C128.536 1.50151 128.914 1.75565 129.237 2.07865C129.56 2.40415 129.814 2.78223 129.999 3.21289C130.185 3.64355 130.277 4.10426 130.277 4.59501V5.18466L128.974 5.38372V4.59501C128.974 4.27201 128.913 3.97155 128.79 3.69362C128.67 3.41319 128.506 3.16907 128.298 2.96125C128.088 2.75093 127.842 2.58567 127.562 2.46549C127.284 2.3428 126.984 2.28146 126.661 2.28146H125.748C125.425 2.28146 125.124 2.3428 124.846 2.46549C124.566 2.58567 124.319 2.75093 124.107 2.96125C123.894 3.16907 123.727 3.41319 123.607 3.69362C123.484 3.97155 123.423 4.27201 123.423 4.59501V12.3807C123.423 12.7037 123.484 13.0042 123.607 13.2821C123.727 13.5625 123.894 13.8091 124.107 14.022C124.319 14.2348 124.566 14.4013 124.846 14.5215C125.124 14.6442 125.425 14.7055 125.748 14.7055H126.661C126.984 14.7055 127.284 14.6442 127.562 14.5215C127.842 14.4013 128.088 14.2348 128.298 14.022C128.506 13.8091 128.67 13.5625 128.79 13.2821C128.913 13.0042 128.974 12.7037 128.974 12.3807V9.35732H126.661V8.11416H130.277ZM141.334 11.945V12.3807C141.334 12.8715 141.235 13.3322 141.038 13.7628C140.837 14.1935 140.571 14.5716 140.238 14.8971C139.905 15.2201 139.518 15.4742 139.077 15.6595C138.634 15.8448 138.167 15.9374 137.676 15.9374H136.636C136.143 15.9374 135.676 15.8448 135.235 15.6595C134.794 15.4742 134.406 15.2201 134.071 14.8971C133.738 14.5716 133.472 14.1935 133.274 13.7628C133.077 13.3322 132.978 12.8715 132.978 12.3807V11.8023L134.281 11.592V12.3807C134.281 12.7037 134.346 13.0042 134.476 13.2821C134.609 13.5625 134.785 13.8091 135.006 14.022C135.229 14.2348 135.487 14.4013 135.78 14.5215C136.072 14.6442 136.382 14.7055 136.707 14.7055H137.616C137.939 14.7055 138.246 14.6442 138.536 14.5215C138.824 14.4013 139.08 14.2348 139.302 14.022C139.525 13.8091 139.702 13.5625 139.832 13.2821C139.965 13.0042 140.031 12.7037 140.031 12.3807V11.945C140.031 11.4468 139.933 11.0324 139.738 10.7019C139.543 10.3714 139.284 10.0897 138.961 9.85683C138.635 9.62398 138.27 9.42743 137.864 9.26718C137.456 9.10443 137.036 8.94293 136.606 8.78269C136.173 8.61994 135.753 8.44091 135.348 8.24561C134.939 8.05031 134.574 7.80619 134.251 7.51324C133.925 7.22029 133.665 6.86099 133.47 6.43533C133.274 6.01218 133.177 5.49013 133.177 4.86918V4.59501C133.177 4.10426 133.269 3.64355 133.455 3.21289C133.64 2.78223 133.895 2.40415 134.221 2.07865C134.544 1.75565 134.922 1.50151 135.355 1.31623C135.791 1.13094 136.254 1.0383 136.745 1.0383H137.676C138.167 1.0383 138.629 1.13094 139.062 1.31623C139.493 1.50151 139.87 1.75565 140.193 2.07865C140.516 2.40415 140.77 2.78223 140.955 3.21289C141.14 3.64355 141.233 4.10426 141.233 4.59501V4.97059L139.93 5.18466V4.59501C139.93 4.27201 139.87 3.97155 139.749 3.69362C139.627 3.41319 139.461 3.16907 139.254 2.96125C139.043 2.75093 138.799 2.58567 138.521 2.46549C138.241 2.3428 137.939 2.28146 137.616 2.28146H136.805C136.482 2.28146 136.181 2.3428 135.903 2.46549C135.623 2.58567 135.376 2.75093 135.164 2.96125C134.951 3.16907 134.784 3.41319 134.664 3.69362C134.541 3.97155 134.48 4.27201 134.48 4.59501V4.86918C134.48 5.33489 134.579 5.72549 134.777 6.04098C134.972 6.35897 135.231 6.63063 135.554 6.85598C135.877 7.08133 136.243 7.27662 136.651 7.44188C137.059 7.60713 137.478 7.77614 137.909 7.94891C138.34 8.11917 138.759 8.30696 139.167 8.51227C139.575 8.71759 139.941 8.97047 140.264 9.27094C140.587 9.5714 140.846 9.93696 141.041 10.3676C141.237 10.7983 141.334 11.3241 141.334 11.945Z" fill="#E5194A"/>
<path d="M4.34595 27.1468V31.9694C4.34595 32.5051 4.58387 33.1007 5.00046 33.458C5.35749 33.815 5.89347 33.994 6.36989 33.994C6.90559 33.994 7.44156 33.7552 7.7986 33.3984L13.9303 27.2662H32.5043C35.4819 27.2662 37.9222 24.8256 37.9222 21.8488V5.41762C37.9222 2.44082 35.4816 0 32.5043 0H5.41733C2.44082 0 0 2.44082 0 5.41762V21.8483C0 24.4088 1.84557 26.6114 4.34595 27.1468ZM13.2761 9.28743C13.9898 8.57308 15.0022 8.15563 16.0144 8.15563C17.0268 8.15563 18.0389 8.5725 18.7535 9.28743L18.9911 9.52506L19.2291 9.28743C19.9431 8.57308 20.9555 8.15563 21.9679 8.15563C22.9804 8.15563 23.9916 8.5725 24.7065 9.28743C25.4209 10.0012 25.838 11.0136 25.838 12.026C25.838 13.0381 25.4215 14.05 24.7065 14.7643L19.4074 20.0628C19.2886 20.2415 19.1097 20.3005 18.9909 20.3005C18.8125 20.3005 18.6931 20.2415 18.5743 20.1224L13.2761 14.8239C12.562 14.1098 12.1443 13.0974 12.1443 12.0853C12.085 11.0136 12.5016 10.0613 13.2761 9.28743Z" fill="url(#paint0_linear_116_3629)"/>
<path d="M52.21 18.5147H41.8512V21.789C41.8512 26.9681 37.6842 31.1357 32.5045 31.1357H19.7052V40.3627C19.7052 43.3398 22.1454 45.7806 25.1228 45.7806H43.6971L49.8288 51.9123C50.1861 52.2693 50.7218 52.5075 51.2575 52.5075C51.7935 52.5075 52.2699 52.3289 52.6272 51.9721C53.0438 51.6151 53.2817 51.019 53.2817 50.483V45.6609C55.7225 45.1252 57.6274 42.9816 57.6274 40.3624V23.9323C57.6277 20.9558 55.1866 18.5147 52.21 18.5147Z" fill="url(#paint1_linear_116_3629)"/>
<path d="M88.0284 43.6594H86.5224L82.5901 37.4737H80.8023V43.6594H79.4991V29.1659H84.0961C84.5894 29.1659 85.0514 29.2586 85.482 29.4439C85.9127 29.6292 86.2895 29.8833 86.6125 30.2063C86.9355 30.5293 87.1896 30.9086 87.3749 31.3443C87.5602 31.78 87.6528 32.2432 87.6528 32.7339V33.9057C87.6528 34.399 87.5602 34.8622 87.3749 35.2954C87.1896 35.731 86.9355 36.1104 86.6125 36.4334C86.2895 36.7563 85.9127 37.0105 85.482 37.1958C85.0514 37.3811 84.5894 37.4737 84.0961 37.4737L88.0284 43.6594ZM86.3496 33.9057V32.7339C86.3496 32.4109 86.2895 32.1092 86.1693 31.8288C86.0466 31.5484 85.8814 31.303 85.6736 31.0927C85.4657 30.8798 85.2216 30.7121 84.9412 30.5894C84.6608 30.4692 84.359 30.4091 84.036 30.4091H80.8023V36.2305H84.036C84.359 36.2305 84.6608 36.1704 84.9412 36.0503C85.2216 35.9276 85.4657 35.7598 85.6736 35.547C85.8814 35.3367 86.0466 35.0913 86.1693 34.8109C86.2895 34.5304 86.3496 34.2287 86.3496 33.9057ZM96.9108 43.6594L95.9531 40.283H91.3635L90.4133 43.6594H89.0613L93.3053 29.1659H93.9926L98.2554 43.6594H96.9108ZM93.617 32.3583L91.7166 39.0399H95.6076L93.6996 32.3583L93.6583 31.825L93.617 32.3583ZM108.062 40.3055C108.062 40.7963 107.969 41.257 107.784 41.6877C107.598 42.1183 107.344 42.4964 107.021 42.8219C106.696 43.1449 106.318 43.399 105.887 43.5843C105.456 43.7696 104.994 43.8623 104.501 43.8623H103.472C102.981 43.8623 102.518 43.7696 102.082 43.5843C101.647 43.399 101.267 43.1449 100.945 42.8219C100.622 42.4964 100.367 42.1183 100.182 41.6877C99.9968 41.257 99.9042 40.7963 99.9042 40.3055V29.1659H101.207V40.3055C101.207 40.6285 101.269 40.929 101.391 41.2069C101.512 41.4874 101.678 41.734 101.891 41.9468C102.104 42.1596 102.349 42.3261 102.627 42.4463C102.908 42.569 103.209 42.6304 103.532 42.6304H104.441C104.764 42.6304 105.066 42.569 105.346 42.4463C105.627 42.3261 105.871 42.1596 106.079 41.9468C106.289 41.734 106.454 41.4874 106.574 41.2069C106.697 40.929 106.758 40.6285 106.758 40.3055V29.1659H108.062V40.3055ZM119.119 39.8699V40.3055C119.119 40.7963 119.018 41.257 118.818 41.6877C118.62 42.1183 118.355 42.4964 118.022 42.8219C117.689 43.1449 117.301 43.399 116.858 43.5843C116.417 43.7696 115.951 43.8623 115.461 43.8623H114.416C113.926 43.8623 113.46 43.7696 113.019 43.5843C112.576 43.399 112.188 43.1449 111.855 42.8219C111.522 42.4964 111.257 42.1183 111.059 41.6877C110.858 41.257 110.758 40.7963 110.758 40.3055V39.7272L112.062 39.5168V40.3055C112.062 40.6285 112.128 40.929 112.261 41.2069C112.391 41.4874 112.567 41.734 112.79 41.9468C113.013 42.1596 113.271 42.3261 113.564 42.4463C113.857 42.569 114.165 42.6304 114.488 42.6304H115.397C115.722 42.6304 116.029 42.569 116.317 42.4463C116.607 42.3261 116.864 42.1596 117.087 41.9468C117.31 41.734 117.486 41.4874 117.616 41.2069C117.749 40.929 117.815 40.6285 117.815 40.3055V39.8699C117.815 39.3716 117.718 38.9572 117.522 38.6267C117.325 38.2962 117.064 38.0145 116.741 37.7817C116.418 37.5488 116.053 37.3523 115.645 37.192C115.239 37.0293 114.82 36.8678 114.386 36.7075C113.956 36.5448 113.536 36.3657 113.128 36.1704C112.72 35.9751 112.355 35.731 112.032 35.4381C111.709 35.1451 111.449 34.7858 111.254 34.3602C111.059 33.937 110.961 33.415 110.961 32.794V32.5198C110.961 32.0291 111.054 31.5684 111.239 31.1377C111.424 30.7071 111.678 30.329 112.001 30.0035C112.324 29.6805 112.704 29.4263 113.139 29.2411C113.575 29.0558 114.038 28.9631 114.529 28.9631H115.461C115.951 28.9631 116.412 29.0558 116.843 29.2411C117.273 29.4263 117.651 29.6805 117.977 30.0035C118.3 30.329 118.554 30.7071 118.739 31.1377C118.925 31.5684 119.017 32.0291 119.017 32.5198V32.8954L117.714 33.1095V32.5198C117.714 32.1968 117.653 31.8964 117.53 31.6185C117.41 31.338 117.245 31.0939 117.034 30.8861C116.826 30.6758 116.582 30.5105 116.302 30.3903C116.024 30.2676 115.722 30.2063 115.397 30.2063H114.589C114.266 30.2063 113.964 30.2676 113.684 30.3903C113.406 30.5105 113.161 30.6758 112.948 30.8861C112.735 31.0939 112.569 31.338 112.448 31.6185C112.326 31.8964 112.264 32.1968 112.264 32.5198V32.794C112.264 33.2597 112.362 33.6503 112.557 33.9658C112.753 34.2838 113.012 34.5555 113.335 34.7808C113.66 35.0062 114.026 35.2015 114.431 35.3667C114.84 35.532 115.259 35.701 115.69 35.8737C116.123 36.044 116.542 36.2318 116.948 36.4371C117.356 36.6424 117.722 36.8953 118.044 37.1958C118.37 37.4962 118.63 37.8618 118.826 38.2925C119.021 38.7231 119.119 39.2489 119.119 39.8699ZM129.86 40.3055C129.86 40.7963 129.767 41.257 129.582 41.6877C129.397 42.1183 129.143 42.4964 128.82 42.8219C128.497 43.1449 128.12 43.399 127.689 43.5843C127.256 43.7696 126.794 43.8623 126.303 43.8623H125.274C124.781 43.8623 124.318 43.7696 123.885 43.5843C123.449 43.399 123.07 43.1449 122.747 42.8219C122.424 42.4964 122.17 42.1183 121.984 41.6877C121.799 41.257 121.706 40.7963 121.706 40.3055V32.5198C121.706 32.0291 121.799 31.5684 121.984 31.1377C122.17 30.7071 122.424 30.329 122.747 30.0035C123.07 29.6805 123.449 29.4263 123.885 29.2411C124.318 29.0558 124.781 28.9631 125.274 28.9631H126.303C126.794 28.9631 127.256 29.0558 127.689 29.2411C128.12 29.4263 128.497 29.6805 128.82 30.0035C129.143 30.329 129.397 30.7071 129.582 31.1377C129.767 31.5684 129.86 32.0291 129.86 32.5198V33.1095L128.557 33.3086V32.5198C128.557 32.1968 128.497 31.8964 128.377 31.6185C128.254 31.338 128.089 31.0939 127.881 30.8861C127.671 30.6758 127.426 30.5105 127.148 30.3903C126.868 30.2676 126.566 30.2063 126.243 30.2063H125.334C125.011 30.2063 124.71 30.2676 124.429 30.3903C124.149 30.5105 123.902 30.6758 123.689 30.8861C123.479 31.0939 123.313 31.338 123.19 31.6185C123.07 31.8964 123.01 32.1968 123.01 32.5198V40.3055C123.01 40.6285 123.07 40.929 123.19 41.2069C123.313 41.4874 123.479 41.734 123.689 41.9468C123.902 42.1596 124.149 42.3261 124.429 42.4463C124.71 42.569 125.011 42.6304 125.334 42.6304H126.243C126.566 42.6304 126.868 42.569 127.148 42.4463C127.426 42.3261 127.671 42.1596 127.881 41.9468C128.089 41.734 128.254 41.4874 128.377 41.2069C128.497 40.929 128.557 40.6285 128.557 40.3055V39.5168L129.86 39.7272V40.3055ZM140.917 43.6594H139.614V37.038H134.067V43.6594H132.763V29.1659H134.067V35.7949H139.614V29.1659H140.917V43.6594Z" fill="#3C0A51"/>
<path d="M15.7276 57.48L14.0075 63.9136H13.2676L11.9681 59.6058C11.908 59.4155 11.8392 59.1751 11.7616 58.8847C11.6864 58.5942 11.6476 58.4189 11.6451 58.3589C11.58 58.747 11.4774 59.1714 11.3372 59.6321L10.0752 63.9136H9.33909L7.62646 57.48H8.41893L9.43299 61.4536C9.57571 62.012 9.67836 62.5165 9.74096 62.9672C9.82108 62.4314 9.93876 61.9068 10.094 61.3935L11.247 57.48H12.0395L13.2488 61.4273C13.3916 61.883 13.5105 62.3963 13.6056 62.9672C13.6607 62.5515 13.7671 62.0445 13.9249 61.4461L14.9352 57.48H15.7276ZM23.2993 63.2451V63.9136H19.7088V57.48H23.2993V58.1448H20.4599V60.218H23.1265V60.8752H20.4599V63.2451H23.2993ZM36.4632 63.9136H35.8623L33.6802 58.2086H33.6426C33.6852 58.6618 33.7065 59.1989 33.7065 59.8198V63.9136H33.0154V57.48H34.1422L36.1778 62.7869H36.2153L38.2697 57.48H39.389V63.9136H38.6378V59.7673C38.6378 59.2915 38.6591 58.7757 38.7017 58.2199H38.6641L36.4632 63.9136ZM48.9474 63.9136H48.1699L47.37 61.8667H44.7897L43.9973 63.9136H43.2424L45.785 57.4537H46.416L48.9474 63.9136ZM45.0564 61.1945H47.1371L46.3897 59.2001C46.2921 58.9473 46.1919 58.638 46.0892 58.2725C46.0241 58.5529 45.9315 58.8621 45.8113 59.2001L45.0564 61.1945ZM54.7876 58.1448V63.9136H54.0364V58.1448H52.0008V57.48H56.8232V58.1448H54.7876ZM63.5235 58.0546C62.8149 58.0546 62.2566 58.29 61.8484 58.7607C61.4378 59.2314 61.2325 59.8762 61.2325 60.6949C61.2325 61.5387 61.4303 62.1897 61.8259 62.6479C62.219 63.1061 62.7811 63.3352 63.5122 63.3352C63.9604 63.3352 64.4725 63.2551 65.0483 63.0949V63.7521C64.6027 63.9174 64.0531 64 63.3996 64C62.4506 64 61.7195 63.7133 61.2062 63.1399C60.6904 62.5641 60.4325 61.7466 60.4325 60.6874C60.4325 60.0239 60.5564 59.443 60.8043 58.9448C61.0522 58.4465 61.4103 58.0622 61.8785 57.7917C62.3467 57.5213 62.8975 57.3861 63.531 57.3861C64.2045 57.3861 64.7942 57.5101 65.3 57.7579L64.9845 58.4002C64.4962 58.1698 64.0092 58.0546 63.5235 58.0546ZM74.3138 57.48V63.9136H73.5664V60.8865H70.175V63.9136H69.4276V57.48H70.175V60.218H73.5664V57.48H74.3138ZM85.1154 61.1644V63.9136H84.368V57.48H87.9547V58.1448H85.1154V60.4996H87.782V61.1644H85.1154ZM97.5808 60.6874C97.5808 61.7165 97.3204 62.5265 96.7996 63.1174C96.2788 63.7058 95.5552 64 94.6287 64C93.6798 64 92.9474 63.7108 92.4316 63.1324C91.9183 62.554 91.6617 61.7365 91.6617 60.6799C91.6617 59.6308 91.9196 58.8183 92.4354 58.2424C92.9512 57.6665 93.6848 57.3786 94.6363 57.3786C95.5602 57.3786 96.2813 57.6716 96.7996 58.2574C97.3204 58.8459 97.5808 59.6558 97.5808 60.6874ZM92.4541 60.6874C92.4541 61.5588 92.6394 62.2198 93.01 62.6705C93.3806 63.1212 93.9202 63.3465 94.6287 63.3465C95.3398 63.3465 95.8782 63.1224 96.2437 62.6742C96.6068 62.2235 96.7883 61.5613 96.7883 60.6874C96.7883 59.8211 96.6068 59.1651 96.2437 58.7194C95.8807 58.2712 95.3448 58.0471 94.6363 58.0471C93.9227 58.0471 93.3806 58.2725 93.01 58.7232C92.6394 59.1739 92.4541 59.8286 92.4541 60.6874ZM104.082 61.2358H102.737V63.9136H101.99V57.48H103.755C104.544 57.48 105.127 57.6302 105.505 57.9307C105.881 58.2337 106.069 58.6894 106.069 59.2978C106.069 60.1491 105.638 60.7237 104.777 61.0217L106.523 63.9136H105.637L104.082 61.2358ZM102.737 58.1335V60.5935H103.763C104.291 60.5935 104.679 60.4896 104.927 60.2818C105.172 60.0715 105.295 59.756 105.295 59.3354C105.295 58.9097 105.17 58.603 104.92 58.4152C104.669 58.2274 104.266 58.1335 103.71 58.1335H102.737ZM115.785 57.48L117.49 60.6949L119.206 57.48H120.018L117.869 61.4198V63.9136H117.111V61.4536L114.966 57.48H115.785ZM129.46 60.6874C129.46 61.7165 129.199 62.5265 128.678 63.1174C128.158 63.7058 127.434 64 126.508 64C125.559 64 124.828 63.7108 124.314 63.1324C123.799 62.554 123.541 61.7365 123.541 60.6799C123.541 59.6308 123.799 58.8183 124.314 58.2424C124.833 57.6665 125.566 57.3786 126.515 57.3786C127.439 57.3786 128.161 57.6716 128.682 58.2574C129.201 58.8459 129.46 59.6558 129.46 60.6874ZM124.333 60.6874C124.333 61.5588 124.518 62.2198 124.889 62.6705C125.259 63.1212 125.799 63.3465 126.508 63.3465C127.221 63.3465 127.76 63.1224 128.123 62.6742C128.486 62.2235 128.667 61.5613 128.667 60.6874C128.667 59.8211 128.487 59.1651 128.126 58.7194C127.763 58.2712 127.226 58.0471 126.515 58.0471C125.802 58.0471 125.259 58.2725 124.889 58.7232C124.518 59.1739 124.333 59.8286 124.333 60.6874ZM137.982 57.48H138.729V61.6414C138.729 62.375 138.507 62.9522 138.064 63.3728C137.621 63.7909 137.013 64 136.239 64C135.463 64 134.863 63.7897 134.44 63.369C134.017 62.9459 133.805 62.365 133.805 61.6264V57.48H134.553V61.679C134.553 62.2148 134.699 62.6267 134.992 62.9146C135.285 63.2025 135.717 63.3465 136.288 63.3465C136.829 63.3465 137.247 63.2013 137.542 62.9108C137.835 62.6229 137.982 62.2085 137.982 61.6677V57.48Z" fill="black"/>
<defs>
<linearGradient id="paint0_linear_116_3629" x1="18.9611" y1="0" x2="18.9611" y2="33.994" gradientUnits="userSpaceOnUse">
<stop stop-color="#F4686B"/>
<stop offset="1" stop-color="#E5194A"/>
</linearGradient>
<linearGradient id="paint1_linear_116_3629" x1="18.5147" y1="-38.3786" x2="52.5075" y2="-38.3786" gradientUnits="userSpaceOnUse">
<stop stop-color="#B4206C"/>
<stop offset="0.990476" stop-color="#400B52"/>
</linearGradient>
</defs>
</svg>
