<svg width="24" height="24" viewBox="0 0 24 24" fill="white" xmlns="http://www.w3.org/2000/svg">
<g clip-path="url(#clip0_408_395)">
<path d="M15.271 13.2101C15.8117 13.3802 16.3298 13.6152 16.814 13.9101L16.783 13.8921C17.312 14.1271 17.769 14.4021 18.186 14.7251L18.171 14.7141C18.191 14.7751 18.203 14.8441 18.203 14.9171L18.202 14.9491V14.9481C18.187 15.3771 18.092 15.7801 17.931 16.1471L17.939 16.1261C17.708 16.5891 17.323 16.9461 16.852 17.1361L16.838 17.1411C16.3507 17.3959 15.8117 17.5364 15.262 17.5521H15.256C14.2067 17.4172 13.1927 17.0839 12.268 16.5701L12.311 16.5921C11.3288 16.1471 10.4356 15.5274 9.675 14.7631L9.674 14.7621C8.84439 13.8983 8.09217 12.9634 7.426 11.9681L7.379 11.8941C6.71793 11.0299 6.33439 9.98566 6.279 8.89907L6.278 8.88607V8.76207C6.29267 8.29791 6.40166 7.8416 6.59834 7.42091C6.79501 7.00023 7.07526 6.62398 7.422 6.31507L7.425 6.31207C7.63919 6.09865 7.92769 5.97645 8.23 5.97107H8.231C8.332 5.97407 8.429 5.98207 8.523 5.99607L8.51 5.99407C8.597 6.00707 8.698 6.01507 8.802 6.01707H8.805C8.95059 6.00291 9.09665 6.0389 9.219 6.11907L9.217 6.11807C9.324 6.23607 9.406 6.37907 9.455 6.53607L9.457 6.54407C9.53967 6.75073 9.71033 7.2054 9.969 7.90807C10.104 8.22207 10.236 8.60907 10.342 9.00707L10.356 9.07007C10.2839 9.41811 10.096 9.73146 9.823 9.95907L9.82 9.96107C9.46333 10.3384 9.285 10.5784 9.285 10.6811C9.28882 10.7653 9.31695 10.8465 9.366 10.9151L9.365 10.9141C9.75176 11.7136 10.2865 12.4326 10.941 13.0331L10.946 13.0381C11.6312 13.6553 12.3993 14.1736 13.228 14.5781L13.287 14.6041C13.3883 14.6698 13.5053 14.7074 13.626 14.7131H13.628C13.7833 14.7131 14.0627 14.4624 14.466 13.9611C14.8693 13.4597 15.1373 13.2091 15.27 13.2091L15.271 13.2101ZM12.124 21.4261H12.146C13.4591 21.4279 14.7581 21.1558 15.96 20.6271L15.899 20.6511C18.255 19.6571 20.092 17.8201 21.062 15.5271L21.086 15.4641C21.576 14.3511 21.861 13.0531 21.861 11.6891C21.861 10.3251 21.576 9.02707 21.062 7.85207L21.086 7.91407C20.092 5.55807 18.255 3.72107 15.962 2.75107L15.899 2.72707C14.786 2.23707 13.488 1.95207 12.124 1.95207C10.76 1.95207 9.462 2.23707 8.287 2.75107L8.349 2.72707C5.993 3.72107 4.156 5.55807 3.186 7.85107L3.162 7.91407C2.6464 9.1098 2.38259 10.3989 2.387 11.7011C2.38377 13.7599 3.04251 15.7652 4.266 17.4211L4.247 17.3951L3.022 21.0081L6.774 19.8141C8.34138 20.8697 10.1893 21.4313 12.079 21.4261H12.126H12.124ZM12.124 6.79351e-05H12.157C13.785 6.79351e-05 15.333 0.342068 16.732 0.959068L16.659 0.930068C19.484 2.12707 21.687 4.33007 22.855 7.07907L22.884 7.15507C23.472 8.49207 23.814 10.0511 23.814 11.6901C23.814 13.3291 23.472 14.8881 22.855 16.2991L22.884 16.2251C21.687 19.0501 19.484 21.2531 16.735 22.4211L16.659 22.4501C15.332 23.0381 13.784 23.3801 12.156 23.3801H12.122H12.124H12.071C10.012 23.3801 8.079 22.8391 6.407 21.8921L6.464 21.9221L-0.000999451 24.0001L2.108 17.7211C1.00711 15.9102 0.427812 13.8303 0.434001 11.7111C0.434001 10.0651 0.776001 8.49907 1.393 7.08007L1.364 7.15507C2.561 4.33007 4.764 2.12707 7.513 0.959068L7.589 0.930068C9.00933 0.311366 10.5428 -0.00533306 12.092 6.79351e-05H12.125H12.123H12.124Z" />
</g>
<defs>
<clipPath id="clip0_408_395">
<rect width="24" height="24"/>
</clipPath>
</defs>
</svg>
