<svg width="80" height="80" viewBox="0 0 80 80" fill="none" xmlns="http://www.w3.org/2000/svg">
<rect width="80" height="80" rx="16" fill="#E3D9E4"/>
<path d="M59.4141 23.5859V57.1487H29.3711V23.5859H59.4141Z" fill="#B8A0BB"/>
<path d="M31.7148 25.9297H57.0703V54.8051H31.7148V25.9297Z" fill="#D0D1D8"/>
<path d="M53.9453 25.9297H57.0703V54.8051H53.9453V25.9297Z" fill="#888C9D"/>
<path d="M49.131 45.5132V36.2458C49.131 33.6288 47.0095 31.5073 44.3926 31.5073C41.7756 31.5073 39.6541 33.6288 39.6541 36.2458L42.5879 36.2465L42.6077 45.5132C42.6077 47.3145 44.068 48.7748 45.8694 48.7748C47.6707 48.7748 49.131 47.3145 49.131 45.5132Z" fill="#828CB3"/>
<path d="M44.3926 31.5073C43.8449 31.5073 43.3195 31.6014 42.8301 31.7722C44.6791 32.418 46.006 34.1765 46.006 36.2457V45.5131C46.006 46.7483 45.3193 47.823 44.3069 48.3766C44.7709 48.6304 45.3032 48.7747 45.8694 48.7747C47.6707 48.7747 49.131 47.3144 49.131 45.5131V36.2458C49.131 33.6288 47.0095 31.5073 44.3926 31.5073Z" fill="#717EB3"/>
<path d="M38.7996 54.8583H49.4277V47.3865C49.4277 45.0002 47.4931 43.0657 45.1068 43.0657H43.1204C40.7341 43.0657 38.7995 45.0002 38.7995 47.3865V54.8583H38.7996Z" fill="#FF2D78"/>
<path d="M43.918 45.748C43.1909 45.748 42.6016 45.1586 42.6016 44.4315V42.6471H45.2344V44.4315C45.2344 45.1586 44.645 45.748 43.918 45.748Z" fill="#FFCAB9"/>
<path d="M40.4145 36.2494V39.6038C40.4145 41.5012 41.9527 43.0394 43.8501 43.0394H43.861C45.7585 43.0394 47.2966 41.5012 47.2966 39.6038V38.2432C47.2966 37.0935 46.3562 36.1661 45.2066 36.1822L40.4145 36.2494Z" fill="#FFCAB9"/>
<path d="M45.2067 36.1822L44.1717 36.2003V39.6037C44.1717 40.9405 43.4077 42.0981 42.293 42.666C42.7605 42.9042 43.2894 43.0393 43.8501 43.0393H43.8611C45.7585 43.0393 47.2967 41.5011 47.2967 39.6037V38.2431C47.2967 37.0935 46.3562 36.1661 45.2067 36.1822Z" fill="#FABBA7"/>
<path d="M20.5859 62.4141V57.1582C20.5859 53.6216 23.4529 50.7548 26.9894 50.7548H30.9859C34.5225 50.7548 37.3894 53.6217 37.3894 57.1582V62.4141" fill="#FF2D78"/>
<path d="M28.997 51.2641H28.9782C25.7242 51.2641 23.0863 48.6262 23.0863 45.3721V40.3699C23.0863 37.1158 25.7241 34.4779 28.9782 34.4779H28.997C32.251 34.4779 34.889 37.1158 34.889 40.3699V45.3721C34.889 48.6262 32.2511 51.2641 28.997 51.2641Z" fill="#FFCAB9"/>
<path d="M22.3922 54.0444V41.1449C22.3922 37.5023 25.3451 34.5494 28.9877 34.5494C32.6302 34.5494 35.5831 37.5023 35.5831 41.1449L33.2678 42.117C32.1798 42.5738 31.472 43.6387 31.472 44.8187V54.0444C31.472 56.5517 29.4395 58.5843 26.9321 58.5843C24.4248 58.5843 22.3922 56.5517 22.3922 54.0444Z" fill="#828CB3"/>
<path d="M28.9877 34.5494C28.4491 34.5494 27.9263 34.6155 27.4252 34.7373C30.3133 35.4391 32.4581 38.0408 32.4581 41.1449L30.1428 42.117C29.0548 42.5738 28.347 43.6387 28.347 44.8187V54.0444C28.347 56.0027 27.1072 57.6712 25.3696 58.3082C25.8568 58.4868 26.383 58.5843 26.9321 58.5843C29.4395 58.5843 31.472 56.5517 31.472 54.0444V44.8187C31.472 43.6387 32.1798 42.5739 33.2678 42.117L35.5831 41.1449C35.5831 37.5023 32.6302 34.5494 28.9877 34.5494Z" fill="#717EB3"/>
<path d="M22.7946 34.5312L25.1698 28.84H23.3335V24.9841L21.0923 30.6752H22.7946V34.5312Z" fill="#FFEA00"/>
<path d="M59.4141 28.3109C59.7377 28.3109 60 28.0485 60 27.7249V23.5859C60 23.2623 59.7377 23 59.4141 23H29.3711C29.0475 23 28.7852 23.2623 28.7852 23.5859V33.9666C24.9186 34.0742 21.8063 37.2528 21.8063 41.1449V43.3699C21.8063 44.1275 22.9781 44.1275 22.9781 43.3699V41.1449C23.285 33.3984 34.1577 33.0845 34.985 40.7605L33.041 41.5768C31.732 42.1264 30.8861 43.399 30.8861 44.8188V54.0444C30.6697 59.288 23.1954 59.2901 22.9781 54.0444V46.484C22.9781 45.7264 21.8063 45.7264 21.8063 46.484V52.4716C20.6405 53.759 20 55.413 20 57.1582V62.4141C20 62.7377 20.2623 63 20.5859 63C20.9095 63 21.1719 62.7377 21.1719 62.4141V57.1582C21.1719 56.2102 21.3986 55.2943 21.8256 54.4745C22.5915 60.9477 31.8264 60.5831 32.0579 54.0443V51.4409C34.7648 51.9481 36.8034 54.3454 36.8034 57.1581V62.4141C36.8294 63.1881 37.9481 63.1909 37.9752 62.4141V57.7348H59.4141C59.7377 57.7348 60 57.4724 60 57.1488V30.7261C59.9766 29.9591 58.8576 29.9427 58.8281 30.7261V56.5628H37.9489C37.9152 56.1648 37.8473 55.7731 37.7477 55.3909H57.0703C57.3939 55.3909 57.6562 55.1286 57.6562 54.805V25.9297C57.6562 25.6061 57.3939 25.3438 57.0703 25.3438H31.7148C31.3912 25.3438 31.1289 25.6061 31.1289 25.9297V34.2896C30.7507 34.1713 30.3591 34.0837 29.957 34.0292V24.1719H58.8281V27.7249C58.8281 28.0485 59.0905 28.3109 59.4141 28.3109ZM32.058 49.7063V44.8188C32.058 43.433 33.1446 42.74 34.303 42.3179V45.3723C34.303 47.1073 33.4457 48.7223 32.058 49.7063ZM48.8417 54.2191H47.0033V49.028C47.0033 48.2704 45.8314 48.2704 45.8314 49.028V54.2191H42.0691V49.028C42.0691 48.2704 40.8972 48.2704 40.8972 49.028V54.2191H39.3855V47.3865C39.3855 45.7245 40.4782 44.2916 42.0156 43.8177V44.4316C42.1204 46.9559 45.7164 46.9539 45.8203 44.4316V43.7201C47.5505 44.0536 48.8417 45.5752 48.8417 47.3865V54.2191ZM45.1985 35.5963L40.411 35.6634L40.2808 35.6627C41.1445 30.6108 48.3857 31.0895 48.545 36.2458V43.8857C47.9709 43.3214 47.258 42.8976 46.4595 42.6695C47.3291 41.9312 47.8826 40.8312 47.8826 39.6037V38.243C47.8827 36.7993 46.6467 35.5741 45.1985 35.5963ZM41.0004 36.8271L45.2149 36.7681C46.0277 36.7576 46.7108 37.4296 46.7108 38.2431V39.6038C46.7108 41.1751 45.4324 42.4535 43.861 42.4535H43.85C42.2787 42.4535 41.0003 41.1752 41.0003 39.6038V36.8271H41.0004ZM44.6484 43.5474V44.4316C44.6089 45.4005 43.2267 45.3998 43.1875 44.4316V43.5698C43.6716 43.6504 44.1663 43.6435 44.6484 43.5474ZM32.3008 26.5156H56.4844V54.2191H50.0136V47.3865C50.0136 46.7977 49.9077 46.2331 49.717 45.7087V36.2458C49.717 33.3099 47.3284 30.9214 44.3926 30.9214C41.4567 30.9214 39.0682 33.3099 39.0682 36.2458C39.0682 36.6775 39.4655 36.8615 39.8285 36.8326V39.6038C39.8285 40.8998 40.4454 42.0539 41.4003 42.7898C39.523 43.4912 38.2138 45.3017 38.2138 47.3866V54.2191H37.3277C36.5163 52.4348 34.8706 51.01 32.9983 50.4646C36.0143 47.987 35.427 45.2711 35.475 41.8259C35.7986 41.7551 36.1691 41.5137 36.1691 41.1449C36.1691 38.3794 34.5976 35.9744 32.3009 34.7749V26.5156H32.3008Z" fill="black"/>
<path d="M34.8749 31.3929L37.3169 28.951C37.8527 28.4153 37.0239 27.5867 36.4883 28.1224L34.0463 30.5643C33.5105 31.1 34.3392 31.9286 34.8749 31.3929Z" fill="black"/>
<path d="M34.371 34.8924C34.6472 35.1212 34.9234 35.1212 35.1996 34.8924L41.141 28.951C41.6768 28.4153 40.848 27.5867 40.3124 28.1224L34.371 34.0638C34.1422 34.2926 34.1422 34.6636 34.371 34.8924Z" fill="black"/>
<path d="M51.9529 51.5545C52.1028 51.5545 52.2528 51.4973 52.3672 51.3829L54.726 49.024C54.9549 48.7952 54.9549 48.4242 54.726 48.1954C54.4972 47.9666 54.1262 47.9666 53.8974 48.1954L51.5386 50.5543C51.3098 50.7831 51.3098 51.1541 51.5386 51.3829C51.653 51.4973 51.803 51.5545 51.9529 51.5545Z" fill="black"/>
<path d="M21.0923 31.2612H22.2087V34.5312C22.2087 35.1511 23.096 35.3302 23.3353 34.7569L25.7105 29.0657C25.82 28.6022 25.6398 28.3316 25.1698 28.2541H23.9195V24.9841C23.9195 24.353 23.0195 24.1822 22.7883 24.7694L20.5471 30.4605C20.4466 30.9197 20.6283 31.1866 21.0923 31.2612ZM22.7476 28.071V28.84C22.7476 29.1636 23.0099 29.4259 23.3335 29.4259H24.2903L23.3805 31.6059V30.6752C23.3805 30.3516 23.1181 30.0893 22.7945 30.0893H21.9528L22.7476 28.071Z" fill="black"/>
</svg>
