<svg width="80" height="80" viewBox="0 0 80 80" fill="none" xmlns="http://www.w3.org/2000/svg">
<rect width="80" height="80" rx="16" fill="#E3D9E4"/>
<g clip-path="url(#clip0_114_2506)">
<path d="M25.5294 40.0804C25.4326 40.096 25.3342 40.1063 25.2331 40.1063C24.8189 40.1063 24.4376 39.9688 24.1289 39.7393C23.9914 40.411 23.9779 41.4186 24.5023 42.7296C25.0975 44.2177 22.8544 45.4546 23.0525 47.5296L25.2917 46.9643C25.557 46.8974 25.8147 46.8027 26.0601 46.6818L27.1583 46.1404C27.58 45.9324 27.847 45.503 27.847 45.0329V43.686C26.5454 42.9764 25.6337 41.6344 25.5294 40.0804Z" fill="#FCDD86"/>
<path d="M36.1174 49.2764C35.2289 49.4194 34.4458 48.8199 34.2891 47.9988C32.6577 50.8616 31.0019 49.5233 30.2964 48.708C30.2385 48.641 30.2132 48.5621 30.2114 48.4839H29.708C29.7063 48.5621 29.681 48.641 29.623 48.708C28.8464 49.6055 26.9188 51.1375 25.1392 47.0027L22.1163 47.7658C21.3435 47.9603 20.7867 48.6349 20.7425 49.4307L20.3914 59.075C20.3752 59.3652 20.6063 59.6094 20.8969 59.6094H23.7089C23.898 59.6094 24.0513 59.4561 24.0513 59.2671V53.2385L24.5478 54.8291C24.8725 55.8691 25.0377 56.9524 25.0377 58.0419V59.2669C25.0377 59.456 25.191 59.6092 25.38 59.6092H32.1696L32.3188 56.8864C32.3557 56.2249 32.8183 55.6641 33.4608 55.5024L35.311 55.0367C35.4142 54.6808 35.4978 54.4305 35.868 53.2383V54.8964L36.4402 54.7524L37.3278 54.3147C37.3653 54.283 38.2325 54.0022 38.2325 53.0444V52.4486C37.0485 51.8536 36.2105 50.6632 36.1174 49.2764Z" fill="#DE5B65"/>
<path d="M34.4625 46.918C33.9683 46.77 33.7311 46.6064 33.0199 46.2678C32.4455 46.9405 31.5494 47.7894 30.4736 48.1231C30.2205 48.2017 30.123 48.5075 30.2964 48.708C31.0019 49.5234 32.6577 50.8616 34.2891 47.9988C34.2152 47.6117 34.2853 47.2353 34.4625 46.918Z" fill="#EDF4FC"/>
<path d="M29.4458 48.1231C28.37 47.7895 27.4739 46.9405 26.8995 46.2678L26.0603 46.6816C25.8148 46.8025 25.5573 46.8972 25.2919 46.9641L25.1392 47.0027C26.9188 51.1375 28.8464 49.6055 29.623 48.708C29.7963 48.5075 29.6989 48.2016 29.4458 48.1231Z" fill="#EDF4FC"/>
<path d="M32.7609 46.1402C32.3392 45.9322 32.0722 45.5028 32.0722 45.0327V43.6858C31.4429 44.0288 30.7229 44.2239 29.9595 44.2239C29.1961 44.2239 28.4761 44.0288 27.847 43.6858V45.0327C27.847 45.5028 27.58 45.9322 27.1583 46.1402L26.8994 46.2678C27.4737 46.9405 28.3698 47.7894 29.4456 48.1231C29.614 48.1755 29.7112 48.3284 29.7078 48.4839H30.2112C30.2078 48.3283 30.305 48.1753 30.4734 48.1231C31.5492 47.7895 32.4453 46.9405 33.0197 46.2678L32.7609 46.1402Z" fill="#F9D0B4"/>
<path d="M35.9266 52.8524C35.7358 52.8224 35.5522 52.9382 35.4948 53.1227C35.3523 53.5817 35.2523 53.901 35.1773 54.1405C35.0728 54.4742 35.0164 54.6541 34.9617 54.8397C34.9006 55.0464 35.0187 55.2638 35.2256 55.3249C35.2625 55.3358 35.2998 55.3411 35.3364 55.3411C35.4727 55.3411 35.6003 55.2692 35.6709 55.1521C35.7287 55.186 35.7961 55.2053 35.868 55.2053C36.0837 55.2053 36.2586 55.0305 36.2586 54.8147V53.2386C36.2586 53.0453 36.1175 52.8813 35.9266 52.8524Z" fill="black"/>
<path d="M32.1694 59.2188H25.4283V58.0421C25.4283 56.9119 25.2575 55.7918 24.9206 54.7127L24.4241 53.1221C24.3666 52.9379 24.1833 52.8221 23.9924 52.8522C23.8016 52.8814 23.6606 53.0454 23.6606 53.2385V59.2188H20.897C20.8536 59.2188 20.8256 59.196 20.813 59.1827C20.8002 59.1691 20.7791 59.1402 20.7819 59.0893L21.1325 49.4522C21.1675 48.8238 21.6013 48.2982 22.2119 48.1446L25.2349 47.3814C25.4441 47.3286 25.5708 47.1163 25.518 46.9071C25.4652 46.698 25.2527 46.5718 25.0436 46.6239L22.021 47.3869C21.077 47.6244 20.4066 48.4369 20.352 49.4163L20.0014 59.0533C19.9878 59.2982 20.0766 59.5411 20.2453 59.7194C20.4141 59.8979 20.6516 60 20.897 60H23.7091C24.1131 60 24.442 59.6713 24.442 59.2672V55.9874C24.5785 56.6627 24.6472 57.3505 24.6472 58.0421V59.2672C24.6472 59.6713 24.976 60 25.38 60H32.1695C32.3853 60 32.5602 59.8252 32.5602 59.6094C32.5602 59.3936 32.3852 59.2188 32.1694 59.2188Z" fill="black"/>
<path d="M35.7902 39.739C35.4814 39.9685 35.1003 40.106 34.6859 40.106C34.5848 40.106 34.4864 40.0957 34.3897 40.0801C34.2855 41.6342 33.3736 42.9762 32.072 43.6856V45.0324C32.072 45.5026 32.3391 45.932 32.7608 46.14L33.8589 46.6814C34.0531 46.7771 34.2552 46.8556 34.4623 46.9176C34.5642 46.7353 34.7006 46.5751 34.8628 46.4454C34.8625 46.4456 34.8623 46.4457 34.862 46.446V45.0512C34.862 44.2162 35.0625 43.4284 35.4159 42.7314C35.4162 42.7306 35.4164 42.7298 35.4167 42.7292C35.9411 41.4184 35.9277 40.4107 35.7902 39.739Z" fill="#FCDD86"/>
<path d="M34.6861 36.3975C34.589 36.3975 34.4941 36.4056 34.4011 36.4201V39.7825C34.4011 39.8826 34.3966 39.9817 34.3898 40.0803C34.4866 40.0959 34.585 40.1062 34.6861 40.1062C35.7101 40.1062 36.5405 39.2761 36.5405 38.2518C36.5405 37.2278 35.7101 36.3975 34.6861 36.3975Z" fill="#F9D0B4"/>
<path d="M34.1278 35.8559C33.6784 35.7517 33.1327 35.4914 32.5072 34.9231C32.3834 34.8108 32.1927 34.82 32.0839 34.9469C31.4075 35.7364 29.0089 38.1317 25.5181 37.1375V39.7825C25.5181 42.2253 27.5167 44.2239 29.9595 44.2239C32.4023 44.2239 34.4009 42.2253 34.4009 39.7825V36.1942C34.4011 36.0311 34.2869 35.8928 34.1278 35.8559Z" fill="#F9D0B4"/>
<path d="M25.5181 39.7825V37.1375C25.2131 37.0506 24.9 36.9382 24.5787 36.7964C24.3717 36.705 24.1297 36.747 23.9645 36.9018C23.6042 37.2396 23.3787 37.7189 23.3787 38.2518C23.3787 39.2759 24.2089 40.1062 25.2331 40.1062C25.3342 40.1062 25.4326 40.0959 25.5293 40.0803C25.5228 39.9817 25.5181 39.8826 25.5181 39.7825Z" fill="#F9D0B4"/>
<path d="M29.9597 29.817C26.638 29.817 23.9202 32.5348 23.9202 35.8565V36.948C23.9353 36.9328 23.9491 36.9165 23.9647 36.9019C24.1299 36.747 24.3717 36.7048 24.5789 36.7964C24.9002 36.9383 25.2133 37.0506 25.5183 37.1375C29.0091 38.1319 31.4077 35.7364 32.0841 34.9469C32.1928 34.82 32.3836 34.8106 32.5073 34.9231C33.1328 35.4914 33.6786 35.7517 34.128 35.8559C34.2869 35.8928 34.4011 36.0311 34.4011 36.1942V36.4201C34.4941 36.4058 34.5891 36.3975 34.6861 36.3975C35.1992 36.3975 35.6634 36.6059 35.9992 36.9426V35.8564C35.9992 32.5348 33.2814 29.817 29.9597 29.817Z" fill="#FCDD86"/>
<path d="M34.6861 36.0068C34.6167 36.0068 34.5483 36.0103 34.4806 36.0167C34.2658 36.0367 34.1078 36.227 34.1278 36.4418C34.1478 36.6565 34.3378 36.8118 34.553 36.7946C34.5969 36.7906 34.6411 36.7882 34.6861 36.7882C35.4933 36.7882 36.1498 37.4448 36.1498 38.252C36.1498 39.059 35.4933 39.7156 34.6861 39.7156C34.6395 39.7156 34.5936 39.7126 34.5484 39.7078C34.3323 39.685 34.1413 39.8395 34.118 40.054C34.0947 40.2686 34.2497 40.4612 34.4642 40.4845C34.5398 40.4928 34.6145 40.4968 34.6861 40.4968C35.9239 40.4968 36.9311 39.4898 36.9311 38.252C36.9309 37.014 35.9239 36.0068 34.6861 36.0068Z" fill="black"/>
<path d="M31.5646 40.9512C31.3991 40.8124 31.1528 40.8343 31.0142 40.9996C30.7975 41.2582 30.4275 41.4126 30.0242 41.4126C29.621 41.4126 29.251 41.2584 29.0342 40.9996C28.8958 40.8345 28.6496 40.8126 28.4839 40.9512C28.3186 41.0898 28.2969 41.3362 28.4355 41.5015C28.7988 41.9348 29.3927 42.1937 30.0242 42.1937C30.6558 42.1937 31.2497 41.9349 31.613 41.5015C31.7516 41.3362 31.7299 41.0898 31.5646 40.9512Z" fill="black"/>
<path d="M34.2159 35.4753C33.7528 35.368 33.2663 35.085 32.7697 34.6338C32.6322 34.5088 32.4467 34.4442 32.2627 34.4555C32.077 34.4672 31.9083 34.5514 31.7873 34.6927C31.1695 35.4138 28.8994 37.6945 25.6252 36.7617C25.5073 36.728 25.3806 36.7519 25.2828 36.8256C25.185 36.8995 25.1275 37.0149 25.1275 37.1374V39.7824C25.1275 42.4469 27.2952 44.6145 29.9595 44.6145C32.6239 44.6145 34.7916 42.4469 34.7916 39.7824V36.1942C34.7917 35.8497 34.5552 35.5541 34.2159 35.4753ZM34.0105 39.7824C34.0105 42.0161 32.1933 43.8333 29.9597 43.8333C27.7261 43.8333 25.9089 42.0161 25.9089 39.7824V37.6352C29.255 38.3241 31.5736 36.1158 32.3156 35.2758C32.8792 35.7725 33.4489 36.093 34.0105 36.2294V39.7824Z" fill="black"/>
<path d="M24.4209 37.1536C24.7489 37.2984 25.0822 37.4194 25.4113 37.5131C25.6184 37.5724 25.8348 37.4519 25.8939 37.2444C25.953 37.0369 25.8327 36.8208 25.6252 36.7617C25.3306 36.6778 25.0317 36.5694 24.7366 36.4389C24.3855 36.2836 23.9778 36.3538 23.6975 36.617C23.2467 37.0395 22.9883 37.6356 22.9883 38.2519C22.9883 39.4899 23.9953 40.4969 25.2333 40.4969C25.2961 40.4969 25.3578 40.4936 25.4191 40.488C25.6339 40.4681 25.7919 40.2777 25.7719 40.063C25.752 39.848 25.5616 39.6888 25.3469 39.71C25.3094 39.7134 25.2716 39.7155 25.2331 39.7155C24.4259 39.7155 23.7694 39.0589 23.7694 38.2517C23.7694 37.8445 23.9336 37.4664 24.2317 37.1867C24.2831 37.1388 24.3575 37.1253 24.4209 37.1536Z" fill="black"/>
<path d="M29.9597 29.4264C26.4141 29.4264 23.5295 32.3109 23.5295 35.8565V36.8555C23.5295 37.0712 23.7044 37.2461 23.9202 37.2461C24.1359 37.2461 24.3108 37.0712 24.3108 36.8555V35.8565C24.3108 32.7417 26.8449 30.2076 29.9597 30.2076C33.0745 30.2076 35.6086 32.7419 35.6086 35.8565V36.8294C35.6086 37.0451 35.7834 37.22 35.9992 37.22C36.215 37.22 36.3898 37.0451 36.3898 36.8294V35.8565C36.3898 32.3109 33.5053 29.4264 29.9597 29.4264Z" fill="black"/>
<path d="M36.193 39.7652C36.1551 39.5528 35.952 39.4105 35.7398 39.4492C35.5275 39.487 35.3859 39.6899 35.4237 39.9022C35.5655 40.698 35.4376 41.6255 35.0541 42.5844C35.0519 42.59 35.0498 42.5956 35.0478 42.6011C34.978 42.7978 35.0755 43.0161 35.2709 43.0942C35.3186 43.1133 35.3676 43.1224 35.4159 43.1224C35.5709 43.1224 35.7176 43.0294 35.7787 42.8767C35.7797 42.8742 35.7806 42.8719 35.7816 42.8692C36.2239 41.7611 36.3623 40.7167 36.193 39.7652Z" fill="black"/>
<path d="M24.8651 42.5842C24.4812 41.6247 24.3536 40.697 24.4956 39.9011C24.5336 39.6888 24.3922 39.4858 24.1798 39.448C23.9673 39.4099 23.7645 39.5513 23.7267 39.7638C23.5565 40.717 23.6954 41.7636 24.1398 42.8744C24.3556 43.4139 24.0693 43.927 23.5843 44.7199C23.1168 45.4842 22.5868 46.3505 22.6554 47.4614C22.6683 47.6685 22.8401 47.828 23.045 47.828C23.0531 47.828 23.0612 47.8277 23.0693 47.8272C23.2847 47.8139 23.4484 47.6286 23.4351 47.4133C23.3817 46.5481 23.8236 45.8261 24.2508 45.1277C24.7359 44.3347 25.2375 43.5149 24.8651 42.5842Z" fill="black"/>
<path d="M34.8244 46.7713C34.7799 46.6616 34.688 46.578 34.5745 46.544C34.3858 46.4874 34.2031 46.4158 34.0316 46.3315L33.1924 45.9177C33.032 45.8385 32.8386 45.8785 32.7227 46.0143C32.1914 46.6363 31.3497 47.4425 30.3578 47.7502C30.1091 47.8272 29.9181 48.0214 29.847 48.2697C29.7777 48.5129 29.835 48.7722 30.0008 48.9635C30.4724 49.5083 31.2105 50.1332 32.1156 50.1332C32.1789 50.1332 32.2431 50.13 32.308 50.1238C33.165 50.0397 33.9456 49.3899 34.6283 48.1922C34.6744 48.1113 34.6902 48.0168 34.6727 47.9255C34.6185 47.6414 34.6636 47.3588 34.8035 47.1083C34.8613 47.005 34.8689 46.881 34.8244 46.7713ZM33.8824 47.9213C33.3528 48.8114 32.798 49.291 32.2319 49.3463C31.56 49.4135 30.9445 48.8513 30.6213 48.4861C31.6536 48.156 32.5191 47.4021 33.1147 46.7502L33.6863 47.0322C33.7706 47.0738 33.857 47.1127 33.9452 47.1488C33.8735 47.398 33.8519 47.6585 33.8824 47.9213Z" fill="black"/>
<path d="M30.072 48.2697C30.0009 48.0214 29.8102 47.8272 29.5614 47.7501C28.5692 47.4423 27.7277 46.6362 27.1964 46.0142C27.0803 45.8784 26.8869 45.8386 26.7267 45.9176L25.8875 46.3314C25.6675 46.4398 25.435 46.5253 25.1961 46.5854L25.0435 46.624C24.9325 46.6522 24.8395 46.7273 24.7889 46.8298C24.7383 46.9325 24.7352 47.052 24.7805 47.1572C25.5553 48.9575 26.4716 49.9514 27.5038 50.1109C27.5995 50.1258 27.696 50.1331 27.7928 50.1331C28.5141 50.1331 29.2586 49.7261 29.9185 48.9636C30.0841 48.772 30.1414 48.5125 30.072 48.2697ZM27.6231 49.3389C26.9542 49.2355 26.288 48.5183 25.6835 47.2569C25.8717 47.1948 26.0556 47.1195 26.233 47.0322L26.8044 46.7503C27.3999 47.4022 28.2652 48.1559 29.2978 48.4862C28.9613 48.8667 28.3213 49.4458 27.6231 49.3389Z" fill="black"/>
<path d="M33.1927 45.9175L32.9336 45.7899C32.6433 45.6468 32.4628 45.3568 32.4628 45.0327V43.8185C32.4628 43.6027 32.288 43.4279 32.0722 43.4279C31.8564 43.4279 31.6816 43.6027 31.6816 43.8185V45.0327C31.6816 45.6563 32.0291 46.2149 32.5881 46.4905L32.8471 46.6182C32.9025 46.6455 32.9614 46.6586 33.0196 46.6586C33.1636 46.6586 33.3022 46.5785 33.3702 46.4407C33.4656 46.2472 33.3861 46.013 33.1927 45.9175Z" fill="black"/>
<path d="M30.1838 48.0933H29.7355C29.5197 48.0933 29.3448 48.2681 29.3448 48.4839C29.3448 48.6997 29.5197 48.8745 29.7355 48.8745H30.1838C30.3995 48.8745 30.5744 48.6997 30.5744 48.4839C30.5744 48.2681 30.3995 48.0933 30.1838 48.0933Z" fill="black"/>
<path d="M27.847 43.4375C27.6313 43.4375 27.4564 43.6123 27.4564 43.8281V45.0327C27.4564 45.3566 27.2761 45.6467 26.9855 45.7898L26.7266 45.9175C26.5331 46.013 26.4536 46.2472 26.5491 46.4408C26.6172 46.5786 26.7556 46.6587 26.8997 46.6587C26.9577 46.6587 27.0167 46.6456 27.0722 46.6183L27.3309 46.4906C27.8902 46.215 28.2377 45.6564 28.2377 45.0328V43.8281C28.2377 43.6123 28.0628 43.4375 27.847 43.4375Z" fill="black"/>
<path d="M54.2934 35.6149C54.2908 35.4812 54.1838 35.371 54.05 35.3671C52.0916 35.3098 51.0595 34.5335 50.6631 34.1448C50.5549 34.0387 50.3802 34.0499 50.2858 34.1685C48.5639 36.334 46.0238 36.0284 45.1697 35.8496C45.0145 35.8171 44.8656 35.9342 44.8655 36.0928V39.8882C44.8655 42.4812 46.9869 44.6026 49.5799 44.6026C52.1728 44.6026 54.2942 42.4812 54.2942 39.8882V35.6887C54.2941 35.664 54.2939 35.6395 54.2934 35.6149Z" fill="#F9C1A8"/>
<path d="M53.2689 30.6144C52.7666 30.6144 52.2969 30.7562 51.8933 30.9984C51.4219 30.2115 50.563 29.6803 49.5839 29.6803H48.2011C45.5247 29.6803 43.3348 31.8701 43.3348 34.5465V36.727C43.6716 36.4575 44.0981 36.2955 44.563 36.2955C44.6659 36.2955 44.7669 36.3042 44.8655 36.3195V36.093C44.8656 35.9344 45.0145 35.8175 45.1697 35.8498C46.0237 36.0286 48.5639 36.3342 50.2858 34.1687C50.3802 34.0501 50.5548 34.0389 50.6631 34.145C51.0597 34.5337 52.0916 35.3098 54.05 35.3673C54.1836 35.3712 54.2908 35.4814 54.2934 35.6151C54.2939 35.6397 54.2942 35.6642 54.2942 35.6889V36.3195C54.393 36.3042 54.4937 36.2955 54.5967 36.2955C55.1273 36.2955 55.608 36.5064 55.9619 36.8478V33.3073C55.9619 31.8262 54.75 30.6144 53.2689 30.6144Z" fill="#414344"/>
<path d="M54.5967 36.2953C54.4938 36.2953 54.3928 36.3039 54.2942 36.3194V39.8884C54.2942 39.9947 54.2894 40.1 54.2823 40.2045C54.385 40.2211 54.4895 40.232 54.5967 40.232C55.6838 40.232 56.565 39.3508 56.565 38.2637C56.565 37.1765 55.6838 36.2953 54.5967 36.2953Z" fill="#F9C1A8"/>
<path d="M44.8653 39.8883V36.3192C44.7666 36.3039 44.6658 36.2952 44.5628 36.2952C43.4758 36.2952 42.5945 37.1764 42.5945 38.2634C42.5945 39.3505 43.4758 40.2317 44.5628 40.2317C44.6702 40.2317 44.7745 40.2208 44.8772 40.2042C44.8702 40.0999 44.8653 39.9947 44.8653 39.8883Z" fill="#F9C1A8"/>
<path d="M59.0873 49.5559C59.042 48.7429 58.4734 48.054 57.6839 47.8553L54.0227 46.9337L52.7286 46.2958C52.1724 46.0215 51.8202 45.4551 51.8202 44.835V44.0325C51.1528 44.3959 50.3892 44.6026 49.5797 44.6026C48.8249 44.6026 48.1106 44.4218 47.4764 44.1029V44.835C47.4764 45.4551 47.1242 46.0214 46.568 46.2958L45.3983 46.8725C46.0935 48.0261 45.1297 49.495 43.7711 49.2764C43.7711 49.2764 43.7711 49.2764 43.7711 49.2762C43.681 50.6192 42.8927 51.7789 41.7675 52.3915V53.0447C41.7675 54.002 42.6352 54.2836 42.6722 54.315L43.5599 54.7526L46.5394 55.5026C47.1819 55.6643 47.6445 56.2251 47.6814 56.8865L47.8306 59.6093H59.092C59.3889 59.6093 59.625 59.3598 59.6084 59.0634L59.0873 49.5559Z" fill="#714276"/>
<path d="M52.7286 46.2958C52.1723 46.0215 51.8202 45.4551 51.8202 44.835V44.0325C51.1528 44.3959 50.3892 44.6026 49.5797 44.6026C48.8248 44.6026 48.1106 44.4218 47.4764 44.1029V44.835C47.4764 45.4551 47.1242 46.0214 46.568 46.2958L46.3647 46.3959C46.9787 47.5875 48.222 48.4076 49.6483 48.4076C51.0745 48.4076 52.3177 47.5873 52.9319 46.3959L52.7286 46.2958Z" fill="#F9C1A8"/>
<path d="M54.6839 35.6073C54.6771 35.2635 54.4035 34.9865 54.0614 34.9768C52.2085 34.9223 51.2588 34.1818 50.9364 33.8659C50.8061 33.7384 50.6278 33.6728 50.4452 33.6826C50.2633 33.6939 50.0936 33.7826 49.9799 33.9257C48.422 35.8845 46.1525 35.6568 45.2495 35.4675C45.0588 35.4281 44.8625 35.4751 44.711 35.5981C44.561 35.7198 44.4747 35.9001 44.4745 36.0962V39.8885C44.4745 42.7035 46.7647 44.9935 49.5796 44.9935C52.3944 44.9935 54.6846 42.7035 54.6846 39.8885V35.689L54.6839 35.6073ZM53.9035 39.8882C53.9035 42.2725 51.9638 44.212 49.5797 44.212C47.1956 44.212 45.256 42.2725 45.256 39.8882V36.2642C46.2194 36.4346 48.7341 36.6281 50.4983 34.5257C51.0167 34.9915 52.0756 35.6684 53.9035 35.7528V39.8882Z" fill="black"/>
<path d="M53.2689 30.2237C52.8393 30.2237 52.4136 30.3159 52.0197 30.4926C51.4383 29.7428 50.5349 29.2898 49.5838 29.2898H48.201C45.3024 29.2898 42.9441 31.6481 42.9441 34.5467V36.7271C42.9441 36.8773 43.0302 37.0142 43.1655 37.0792C43.301 37.1443 43.4616 37.1259 43.5788 37.0321C43.8617 36.8057 44.2019 36.686 44.5628 36.686C44.641 36.686 44.7225 36.6926 44.8057 36.7054C44.9183 36.7223 45.033 36.6901 45.1196 36.616C45.2061 36.5417 45.256 36.4334 45.256 36.3195V36.2643C46.2192 36.4346 48.7341 36.6279 50.4983 34.5259C51.0167 34.9917 52.0757 35.6685 53.9035 35.7529V36.3195C53.9035 36.4334 53.9533 36.5418 54.0399 36.616C54.1264 36.6903 54.241 36.7226 54.3538 36.7054C54.4369 36.6926 54.5185 36.686 54.5966 36.686C55.006 36.686 55.3944 36.8434 55.6907 37.129C55.765 37.2006 55.8627 37.2384 55.9619 37.2384C56.0135 37.2384 56.0653 37.2282 56.1146 37.2073C56.2588 37.1459 56.3524 37.0045 56.3524 36.8478V33.3073C56.3525 31.607 54.9693 30.2237 53.2689 30.2237ZM55.5713 36.1154C55.2946 35.9893 54.9944 35.9178 54.6849 35.9064L54.6841 35.6073C54.6772 35.2635 54.4036 34.9865 54.0616 34.9768C52.2086 34.9223 51.2589 34.1818 50.9366 33.8659C50.8063 33.7384 50.628 33.6728 50.4453 33.6826C50.2635 33.6939 50.0938 33.7826 49.98 33.9257C48.4222 35.8846 46.1528 35.6567 45.2497 35.4675C45.0589 35.4281 44.8627 35.4751 44.7111 35.5981C44.6114 35.679 44.54 35.7856 44.5032 35.9056C44.2364 35.9125 43.9732 35.9653 43.7253 36.0596V34.5465C43.7253 32.0787 45.7332 30.0709 48.201 30.0709H49.5838C50.3846 30.0709 51.1411 30.5032 51.5582 31.1992C51.6114 31.2879 51.6978 31.3521 51.7983 31.3773C51.8988 31.4026 52.0052 31.3867 52.0941 31.3335C52.4524 31.1185 52.8588 31.005 53.2689 31.005C54.5385 31.005 55.5713 32.0378 55.5713 33.3073V36.1154Z" fill="black"/>
<path d="M56.178 51.4022C55.9622 51.4022 55.7874 51.5771 55.7874 51.7928V59.4878C55.7874 59.7036 55.9622 59.8785 56.178 59.8785C56.3938 59.8785 56.5686 59.7036 56.5686 59.4878V51.7928C56.5686 51.5771 56.3938 51.4022 56.178 51.4022Z" fill="black"/>
<path d="M43.1186 51.4022C42.9028 51.4022 42.728 51.5771 42.728 51.7928V54.4661C42.728 54.6819 42.9028 54.8568 43.1186 54.8568C43.3344 54.8568 43.5092 54.6819 43.5092 54.4661V51.7928C43.5092 51.5771 43.3344 51.4022 43.1186 51.4022Z" fill="black"/>
<path d="M54.5966 35.9047C54.4787 35.9047 54.3567 35.9144 54.2344 35.9333C54.0441 35.9626 53.9034 36.1265 53.9034 36.3194V39.8884C53.9034 39.9743 53.9 40.0664 53.8925 40.1783C53.8789 40.3797 54.0211 40.5583 54.2203 40.5903C54.3561 40.6122 54.4792 40.6226 54.5967 40.6226C55.8975 40.6226 56.9556 39.5645 56.9556 38.2637C56.9556 36.9629 55.8973 35.9047 54.5966 35.9047ZM54.6847 39.8389V36.6884C55.5137 36.7344 56.1742 37.4233 56.1742 38.2637C56.1744 39.104 55.5139 39.7929 54.6847 39.8389Z" fill="black"/>
<path d="M45.2559 39.8883V36.3192C45.2559 36.1266 45.1155 35.9627 44.925 35.9331C44.8025 35.9142 44.6806 35.9045 44.5628 35.9045C43.262 35.9045 42.2039 36.9627 42.2039 38.2636C42.2039 39.5642 43.262 40.6225 44.5628 40.6225C44.6802 40.6225 44.8034 40.612 44.9392 40.5902C45.1384 40.5581 45.2805 40.3795 45.267 40.1783C45.2595 40.0661 45.2559 39.9741 45.2559 39.8883ZM44.4747 39.8389C43.6456 39.793 42.9852 39.1041 42.9852 38.2638C42.9852 37.4233 43.6456 36.7344 44.4747 36.6884V39.8389Z" fill="black"/>
<path d="M47.4764 43.8232C47.2606 43.8232 47.0858 43.9981 47.0858 44.2139V44.8351C47.0858 45.31 46.8212 45.7354 46.3953 45.9454L45.2811 46.4948C45.0876 46.5901 45.0079 46.8243 45.1034 47.0179C45.1714 47.1559 45.31 47.2361 45.454 47.2361C45.512 47.2361 45.5709 47.2231 45.6265 47.1956L46.7409 46.6462C47.4356 46.3036 47.8672 45.6095 47.8672 44.8351V44.2139C47.867 43.9981 47.692 43.8232 47.4764 43.8232Z" fill="black"/>
<path d="M59.9986 59.042L59.4773 49.5342C59.4222 48.5451 58.7398 47.7183 57.7792 47.4762L54.1581 46.565L52.9014 45.9453C52.4754 45.7351 52.2109 45.3098 52.2109 44.835V44.1926C52.2109 43.9768 52.0361 43.802 51.8203 43.802C51.6045 43.802 51.4297 43.9768 51.4297 44.1926V44.835C51.4297 45.6093 51.8612 46.3033 52.5559 46.6461L53.85 47.284C53.8747 47.2962 53.9006 47.3059 53.9273 47.3126L57.5886 48.234C58.2157 48.392 58.6614 48.9318 58.6973 49.5773L59.2186 59.0851C59.2212 59.1325 59.1981 59.1643 59.184 59.1792C59.1701 59.194 59.1395 59.2189 59.0922 59.2189H47.8307C47.615 59.2189 47.4401 59.3937 47.4401 59.6095C47.4401 59.8253 47.615 60.0001 47.8307 60.0001H59.0922C59.3406 60.0001 59.5809 59.8967 59.7517 59.7162C59.9223 59.5354 60.0123 59.2897 59.9986 59.042Z" fill="black"/>
<path d="M53.0579 46.1773C52.8701 46.0714 52.6317 46.1381 52.5259 46.3258C51.9378 47.369 50.8353 48.017 49.6483 48.017C48.4514 48.017 47.3443 47.3611 46.759 46.3051C46.6545 46.1164 46.4167 46.048 46.2281 46.1528C46.0393 46.2573 45.9712 46.4951 46.0758 46.6837C46.7987 47.9879 48.1676 48.7981 49.6483 48.7981C51.1167 48.7981 52.4803 47.9976 53.2064 46.7092C53.3125 46.5214 53.2459 46.2833 53.0579 46.1773Z" fill="black"/>
<path d="M51.2325 40.9663C51.0671 40.8275 50.8208 40.8495 50.6822 41.0149C50.463 41.2764 50.0885 41.4327 49.6805 41.4327C49.2725 41.4327 48.8981 41.2764 48.6789 41.0149C48.5403 40.8495 48.2939 40.8278 48.1286 40.9663C47.9631 41.1049 47.9414 41.3511 48.08 41.5164C48.446 41.9531 49.0442 42.2138 49.6805 42.2138C50.3167 42.2138 50.915 41.9531 51.281 41.5164C51.4194 41.3511 51.3978 41.1047 51.2325 40.9663Z" fill="black"/>
<path d="M51.622 37.8219C51.2795 37.8219 51.0017 38.0996 51.0017 38.4422C51.0017 38.7847 51.2794 39.0625 51.622 39.0625C51.9647 39.0625 52.2423 38.7849 52.2423 38.4422C52.2423 38.0997 51.9647 37.8219 51.622 37.8219Z" fill="black"/>
<path d="M47.7529 37.8219C47.4104 37.8219 47.1326 38.0996 47.1326 38.4422C47.1326 38.7847 47.4103 39.0625 47.7529 39.0625C48.0956 39.0625 48.3733 38.7849 48.3733 38.4422C48.3733 38.0997 48.0954 37.8219 47.7529 37.8219Z" fill="black"/>
<path d="M31.9345 38.1344C31.592 38.1344 31.3142 38.4121 31.3142 38.7547C31.3142 39.0972 31.5919 39.375 31.9345 39.375C32.2772 39.375 32.5548 39.0974 32.5548 38.7547C32.5548 38.4122 32.2772 38.1344 31.9345 38.1344Z" fill="black"/>
<path d="M28.0654 38.1344C27.7229 38.1344 27.4451 38.4121 27.4451 38.7547C27.4451 39.0972 27.7228 39.375 28.0654 39.375C28.4081 39.375 28.6858 39.0974 28.6858 38.7547C28.6858 38.4122 28.4079 38.1344 28.0654 38.1344Z" fill="black"/>
<path d="M43.3595 45.6825H43.3551C42.1503 45.6825 41.0822 45.0986 40.4175 44.1984C40.2083 43.9151 39.7915 43.9151 39.5825 44.1984C38.9176 45.0984 37.8497 45.6825 36.6448 45.6825C36.6067 45.6825 36.5687 45.6819 36.5309 45.6806C36.2989 45.6731 36.1078 45.86 36.1078 46.0922V49.019C36.1078 51.1292 37.8342 52.8556 39.9444 52.8556C42.0545 52.8556 43.7809 51.1292 43.7809 49.019V46.095C43.7808 45.8639 43.5908 45.6822 43.3595 45.6825Z" fill="#F9C1A8"/>
<path d="M40 39.9136C37.1624 39.9136 34.8621 42.2139 34.8621 45.0515V46.4464C35.1361 46.227 35.4832 46.0951 35.8614 46.0951C35.9452 46.0951 36.0274 46.1022 36.1077 46.1147V46.0922C36.1077 45.86 36.2988 45.6731 36.5308 45.6806C36.5686 45.6819 36.6066 45.6825 36.6447 45.6825C37.8496 45.6825 38.9177 45.0986 39.5824 44.1984C39.7916 43.9151 40.2083 43.9151 40.4174 44.1984C41.0822 45.0984 42.1502 45.6825 43.355 45.6825H43.3594C43.5907 45.6822 43.7805 45.8637 43.7805 46.095V46.1145C43.8608 46.102 43.9428 46.095 44.0267 46.095C44.4585 46.095 44.8496 46.2667 45.1377 46.5444V45.0512C45.138 42.2139 42.8377 39.9136 40 39.9136Z" fill="#414344"/>
<path d="M44.0269 46.0952C43.9431 46.0952 43.8609 46.1022 43.7806 46.1147V49.0191C43.7806 49.1057 43.7767 49.1913 43.7709 49.2765C43.8544 49.2899 43.9395 49.2988 44.0267 49.2988C44.9114 49.2988 45.6284 48.5816 45.6284 47.6971C45.6287 46.8124 44.9116 46.0952 44.0269 46.0952Z" fill="#F9C1A8"/>
<path d="M36.1077 49.0191V46.1147C36.0274 46.1022 35.9453 46.0952 35.8614 46.0952C34.9767 46.0952 34.2597 46.8124 34.2597 47.6969C34.2597 48.5816 34.9769 49.2987 35.8614 49.2987C35.9488 49.2987 36.0338 49.2897 36.1172 49.2763C36.1117 49.1913 36.1077 49.1057 36.1077 49.0191Z" fill="#F9C1A8"/>
<path d="M47.6814 56.8866C47.6445 56.225 47.1819 55.6644 46.5394 55.5027L43.5598 54.7527L42.5067 54.2335C42.0541 54.0104 41.7675 53.5494 41.7675 53.0447V52.3916C41.2244 52.6874 40.603 52.8557 39.9442 52.8557C39.33 52.8557 38.7486 52.7085 38.2325 52.4489V53.0447C38.2325 53.5494 37.9459 54.0102 37.4933 54.2335L36.4402 54.7527L33.4606 55.5027C32.8181 55.6644 32.3553 56.2252 32.3186 56.8868L32.1694 59.6094H47.8306L47.6814 56.8866Z" fill="#C70DF0"/>
<path d="M42.5067 54.2335C42.0541 54.0104 41.7675 53.5494 41.7675 53.0447V52.3916C41.2244 52.6874 40.603 52.8557 39.9442 52.8557C39.33 52.8557 38.7486 52.7085 38.2325 52.4489V53.0447C38.2325 53.5494 37.9459 54.0102 37.4933 54.2335L37.3278 54.315C37.8277 55.2847 38.8392 55.9522 40 55.9522C41.1608 55.9522 42.1724 55.2847 42.6722 54.315L42.5067 54.2335Z" fill="#F9C1A8"/>
<path d="M45.3137 57.2635C45.0979 57.2635 44.9231 57.4384 44.9231 57.6542V59.5681C44.9231 59.7839 45.0979 59.9587 45.3137 59.9587C45.5295 59.9587 45.7043 59.7839 45.7043 59.5681V57.6542C45.7043 57.4384 45.5295 57.2635 45.3137 57.2635Z" fill="black"/>
<path d="M34.6863 57.2635C34.4705 57.2635 34.2957 57.4384 34.2957 57.6542V59.5681C34.2957 59.7839 34.4705 59.9587 34.6863 59.9587C34.9021 59.9587 35.0769 59.7839 35.0769 59.5681V57.6542C35.0769 57.4384 34.9021 57.2635 34.6863 57.2635Z" fill="black"/>
<path d="M44.0269 45.7046C43.9533 45.7046 43.8775 45.709 43.8015 45.7179C43.5873 45.7427 43.4337 45.9366 43.4586 46.1508C43.4834 46.3651 43.6759 46.5188 43.8917 46.4938C43.9361 46.4887 43.9811 46.4857 44.0269 46.4857C44.6947 46.4857 45.2379 47.0291 45.2379 47.6969C45.2379 48.3646 44.6947 48.908 44.0269 48.908C43.9845 48.908 43.9406 48.9051 43.8926 48.8991C43.6787 48.8707 43.4834 49.0244 43.4565 49.2383C43.4298 49.4524 43.5817 49.6476 43.7958 49.6743C43.8761 49.6843 43.9517 49.6893 44.0269 49.6893C45.1254 49.6893 46.0192 48.7955 46.0192 47.6969C46.0192 46.5983 45.1256 45.7046 44.0269 45.7046Z" fill="black"/>
<path d="M36.3969 49.2516C36.3751 49.0371 36.1842 48.8801 35.9689 48.9024C35.9334 48.9058 35.8976 48.9082 35.8614 48.9082C35.1936 48.9082 34.6503 48.3647 34.6503 47.6971C34.6503 47.0293 35.1936 46.4858 35.8614 46.4858C35.8937 46.4858 35.9258 46.4874 35.9575 46.4901C36.1731 46.5082 36.3615 46.3493 36.3801 46.1343C36.3987 45.9193 36.2394 45.7301 36.0244 45.7116C35.9708 45.7071 35.9164 45.7046 35.8615 45.7046C34.7629 45.7046 33.8692 46.5985 33.8692 47.6971C33.8692 48.7957 34.7629 49.6894 35.8615 49.6894C35.9244 49.6894 35.9864 49.686 36.0476 49.6796C36.2622 49.658 36.4186 49.4663 36.3969 49.2516Z" fill="black"/>
<path d="M48.0714 56.865C48.0248 56.0282 47.4473 55.3284 46.6347 55.1237L43.6953 54.384L42.6794 53.8831C42.3578 53.7245 42.1581 53.4034 42.1581 53.0448V52.5197C42.1581 52.3039 41.9833 52.129 41.7675 52.129C41.5517 52.129 41.3769 52.3039 41.3769 52.5197V53.0448C41.3769 53.7032 41.7436 54.2928 42.3339 54.5839L43.387 55.1031C43.4117 55.1153 43.4376 55.1248 43.4644 55.1317L46.4439 55.8817C46.9233 56.0022 47.2639 56.415 47.2912 56.9081L47.4181 59.2187H32.5819L32.7086 56.9082C32.7361 56.4148 33.0765 56.002 33.5559 55.8815L36.5354 55.1315C36.5622 55.1247 36.5881 55.1153 36.6128 55.1029L37.6658 54.5837C38.2562 54.2928 38.6229 53.7031 38.6229 53.0447V52.5847C38.6229 52.3689 38.4481 52.194 38.2323 52.194C38.0165 52.194 37.8417 52.3689 37.8417 52.5847V53.0447C37.8417 53.4032 37.642 53.7245 37.3204 53.8829L36.3045 54.3839L33.3651 55.1236C32.5523 55.3282 31.9751 56.0279 31.9284 56.8651L31.779 59.5879C31.7731 59.6951 31.8115 59.7998 31.8854 59.8778C31.9594 59.9557 32.062 60 32.1694 60H47.8306C47.9379 60 48.0404 59.9559 48.1142 59.8779C48.1879 59.8 48.2264 59.6951 48.2206 59.5881L48.0714 56.865Z" fill="black"/>
<path d="M42.8155 54.0615C42.6269 53.9564 42.3891 54.024 42.2841 54.2125C41.8197 55.0445 40.9446 55.5615 40.0002 55.5615C39.0688 55.5615 38.1996 55.0551 37.7317 54.2397C37.6244 54.0525 37.3856 53.9876 37.1985 54.0953C37.0113 54.2026 36.9467 54.4414 37.0541 54.6284C37.6608 55.6859 38.7897 56.3428 40.0002 56.3428C41.2275 56.3428 42.3641 55.6723 42.9663 54.5931C43.0713 54.4047 43.0038 54.1667 42.8155 54.0615Z" fill="black"/>
<path d="M41.3359 49.8405C41.1706 49.7017 40.9242 49.7236 40.7856 49.8889C40.6208 50.0856 40.3369 50.2031 40.0262 50.2031C39.7156 50.2031 39.4317 50.0856 39.2669 49.8889C39.1284 49.7238 38.882 49.702 38.7165 49.8405C38.5512 49.9792 38.5295 50.2255 38.6681 50.3908C38.9797 50.7623 39.4875 50.9842 40.0262 50.9842C40.565 50.9842 41.0728 50.7623 41.3844 50.3908C41.5229 50.2255 41.5012 49.9792 41.3359 49.8405Z" fill="black"/>
<path d="M41.6062 47.3375C41.3275 47.3375 41.1014 47.5635 41.1014 47.8424C41.1014 48.1211 41.3273 48.3471 41.6062 48.3471C41.885 48.3471 42.1111 48.1211 42.1111 47.8424C42.1109 47.5635 41.885 47.3375 41.6062 47.3375Z" fill="black"/>
<path d="M38.4577 47.3375C38.1789 47.3375 37.9528 47.5635 37.9528 47.8424C37.9528 48.1211 38.1788 48.3471 38.4577 48.3471C38.7364 48.3471 38.9625 48.1211 38.9625 47.8424C38.9624 47.5635 38.7364 47.3375 38.4577 47.3375Z" fill="black"/>
<path d="M43.9369 45.5295C43.675 45.2679 43.3749 45.2951 43.3591 45.2918C43.343 45.2879 41.7611 45.36 40.7317 43.9665C40.5577 43.7307 40.2909 43.5956 40 43.5956C39.7091 43.5956 39.4424 43.7307 39.2683 43.9665C38.6553 44.7965 37.6745 45.2918 36.6447 45.2918C36.6108 45.2918 36.577 45.2912 36.5434 45.2901C36.3264 45.2829 36.1184 45.3631 35.9614 45.515C35.8038 45.6676 35.717 45.8725 35.717 46.092V49.0189C35.717 51.3496 37.6133 53.2461 39.9442 53.2461C42.2752 53.2461 44.1714 51.3496 44.1714 49.0189V46.0948C44.1714 45.8814 44.0881 45.6804 43.9369 45.5295ZM43.3902 49.0192C43.3902 50.9192 41.8444 52.4651 39.9442 52.4651C38.0441 52.4651 36.4983 50.9192 36.4983 49.0192V46.0921C36.4983 46.0895 36.4983 46.0825 36.5181 46.0711C36.5602 46.0725 36.6024 46.0731 36.6447 46.0731C37.9213 46.0731 39.1369 45.459 39.8966 44.4306C39.9313 44.3837 39.9763 44.3767 40 44.3767C40.0238 44.3767 40.0688 44.3837 40.1034 44.4306C40.8631 45.459 42.0788 46.0731 43.3553 46.0731H43.3603C43.3731 46.0731 43.3806 46.0781 43.3902 46.0951V49.0192Z" fill="black"/>
<path d="M40 39.5229C36.9516 39.5229 34.4714 42.0029 34.4714 45.0514V46.3672C34.4714 46.5829 34.6463 46.7578 34.8621 46.7578C35.0778 46.7578 35.2527 46.5829 35.2527 46.3672V45.0514C35.2527 42.4337 37.3824 40.3042 40 40.3042C42.6177 40.3042 44.7472 42.4337 44.7472 45.0514V46.3867C44.7472 46.6025 44.9221 46.7773 45.1378 46.7773C45.3536 46.7773 45.5285 46.6025 45.5285 46.3867V45.0514C45.5285 42.0029 43.0485 39.5229 40 39.5229Z" fill="black"/>
<path d="M43.6906 24.5856C42.6958 23.6592 41.1297 23.7303 40.1684 24.6915C40.0755 24.7845 39.9247 24.7845 39.8317 24.6915C38.8705 23.7303 37.3044 23.659 36.3095 24.5856C35.2651 25.5583 35.2433 27.194 36.2437 28.1945L39.482 31.4329C39.7681 31.719 40.2319 31.719 40.518 31.4329L43.7563 28.1945C44.7569 27.194 44.735 25.5583 43.6906 24.5856Z" fill="#FF2D78"/>
<path d="M43.9569 24.2999C42.865 23.2827 41.1206 23.2996 40 24.313C38.8792 23.2994 37.135 23.2829 36.0431 24.2999C35.4614 24.8418 35.1333 25.5771 35.1191 26.3702C35.105 27.1638 35.4062 27.9099 35.9673 28.4708L39.2056 31.7093C39.4176 31.9213 39.6998 32.0382 39.9998 32.0382C40.2998 32.0382 40.582 31.9214 40.7941 31.7093L44.0323 28.4708C44.5934 27.9097 44.8947 27.1638 44.8806 26.3702C44.8667 25.5769 44.5386 24.8416 43.9569 24.2999ZM43.4801 27.9185L40.2419 31.1569C40.1126 31.286 39.8875 31.286 39.7583 31.1569L36.5198 27.9185C36.11 27.5086 35.89 26.9638 35.9003 26.3841C35.9105 25.8047 36.1505 25.2675 36.5756 24.8714C36.9692 24.5049 37.4798 24.3236 37.9955 24.3236C38.5586 24.3236 39.1273 24.54 39.5553 24.968C39.8005 25.2129 40.1992 25.2127 40.4444 24.9679C41.2642 24.1482 42.6009 24.1052 43.4241 24.8714C43.8494 25.2675 44.0892 25.8047 44.0994 26.3841C44.11 26.9636 43.89 27.5086 43.4801 27.9185Z" fill="black"/>
<path d="M35.3819 22.4815C34.6791 22.3507 34.1252 21.8081 33.9916 21.1196C33.9849 21.0851 33.9366 21.0851 33.9299 21.1196C33.7963 21.8081 33.2424 22.3507 32.5395 22.4815C32.5042 22.4881 32.5042 22.5354 32.5395 22.542C33.2424 22.6729 33.7963 23.2156 33.9299 23.904C33.9366 23.9386 33.9849 23.9386 33.9916 23.904C34.1252 23.2156 34.6791 22.6729 35.3819 22.542C35.4172 22.5354 35.4172 22.4882 35.3819 22.4815Z" fill="#F5C84C"/>
<path d="M48.4205 26.8674C47.9686 26.7832 47.6124 26.4343 47.5264 25.9916C47.5221 25.9694 47.4911 25.9694 47.4867 25.9916C47.4008 26.4343 47.0447 26.7833 46.5927 26.8674C46.57 26.8716 46.57 26.9021 46.5927 26.9063C47.0446 26.9905 47.4008 27.3394 47.4867 27.7821C47.4911 27.8043 47.5221 27.8043 47.5264 27.7821C47.6124 27.3394 47.9685 26.9904 48.4205 26.9063C48.4431 26.9021 48.4431 26.8718 48.4205 26.8674Z" fill="#70D6F9"/>
<path d="M22.6805 31.2972H22.3166V30.9331C22.3166 30.6606 22.0958 30.4398 21.8233 30.4398C21.5508 30.4398 21.33 30.6606 21.33 30.9331V31.2972H20.9659C20.6934 31.2972 20.4727 31.5179 20.4727 31.7904C20.4727 32.0629 20.6934 32.2837 20.9659 32.2837H21.33V32.6478C21.33 32.9203 21.5508 33.1411 21.8233 33.1411C22.0958 33.1411 22.3166 32.9201 22.3166 32.6478V32.2837H22.6805C22.953 32.2837 23.1738 32.0629 23.1738 31.7904C23.1739 31.5179 22.953 31.2972 22.6805 31.2972Z" fill="#FC657E"/>
<path d="M37.2595 21.0553C37.5509 21.0553 37.7872 20.8191 37.7872 20.5277C37.7872 20.2362 37.5509 20 37.2595 20C36.9681 20 36.7319 20.2362 36.7319 20.5277C36.7319 20.8191 36.9681 21.0553 37.2595 21.0553Z" fill="#87D147"/>
<path d="M20.5277 35.4688C20.2363 35.4688 20 35.705 20 35.9964C20 36.2878 20.2363 36.5241 20.5277 36.5241C20.8191 36.5241 21.0553 36.2878 21.0553 35.9964C21.0553 35.705 20.8191 35.4688 20.5277 35.4688Z" fill="#F5C84C"/>
</g>
<defs>
<clipPath id="clip0_114_2506">
<rect width="40" height="40" fill="white" transform="translate(20 20)"/>
</clipPath>
</defs>
</svg>
