<svg width="80" height="80" viewBox="0 0 80 80" fill="none" xmlns="http://www.w3.org/2000/svg">
<rect width="80" height="80" rx="16" fill="#E3D9E4"/>
<g clip-path="url(#clip0_114_2505)">
<path d="M25.2843 24.7844V57.9132C25.2843 58.7427 25.9568 59.4152 26.7863 59.4152H53.2136C54.0431 59.4152 54.7157 58.7427 54.7157 57.9132V24.7844H25.2843Z" fill="#FFD5E4"/>
<path d="M27.8624 57.9133V24.7844H25.2843V57.9132C25.2843 58.7427 25.9568 59.4152 26.7863 59.4152H29.3644C28.5349 59.4153 27.8624 58.7428 27.8624 57.9133Z" fill="#FF96BC"/>
<path d="M53.2136 20.5872H29.4277V24.9407H54.7157V22.0892C54.7157 21.2596 54.0431 20.5872 53.2136 20.5872Z" fill="#714276"/>
<path d="M29.584 20.5872H26.7863C25.9568 20.5872 25.2843 21.2597 25.2843 22.0892V24.9408H29.584V20.5872Z" fill="#EFADB2"/>
<path d="M29.3645 20.5872H26.7863C25.9568 20.5872 25.2843 21.2597 25.2843 22.0892V24.9408H27.8624V22.0892C27.8624 21.2596 28.5349 20.5872 29.3645 20.5872Z" fill="#DE5B65"/>
<path d="M40 27.3374C36.9868 27.3374 34.5443 29.7801 34.5443 32.7931C34.5443 34.5282 35.3552 36.0729 36.6177 37.0722V35.6872C36.6177 34.6683 37.3794 33.8347 38.3103 33.8347H41.6896C42.6206 33.8347 43.3823 34.6683 43.3823 35.6872V37.0722C44.6448 36.073 45.4557 34.5283 45.4557 32.7931C45.4557 29.7801 43.0131 27.3374 40 27.3374Z" fill="#714276"/>
<path d="M36.9857 32.7932C36.9857 30.1999 38.7956 28.0308 41.2207 27.4762C40.828 27.3865 40.4198 27.3374 40 27.3374C36.9868 27.3374 34.5443 29.7801 34.5443 32.7931C34.5443 34.5282 35.3552 36.0729 36.6177 37.0722V35.6872C36.6177 35.1344 36.8423 34.6364 37.1962 34.2962C37.0594 33.8188 36.9857 33.3147 36.9857 32.7932Z" fill="#B8A0BB"/>
<path d="M39.9999 33.6968C41.1016 33.6968 41.9947 32.8037 41.9947 31.702C41.9947 30.6004 41.1016 29.7073 39.9999 29.7073C38.8983 29.7073 38.0052 30.6004 38.0052 31.702C38.0052 32.8037 38.8983 33.6968 39.9999 33.6968Z" fill="#FFCEBE"/>
<path d="M39.724 31.702C39.724 30.9081 40.1879 30.2225 40.8594 29.9015C40.5991 29.777 40.3077 29.7073 40 29.7073C38.8984 29.7073 38.0052 30.6003 38.0052 31.702C38.0052 32.8038 38.8983 33.6967 39.9999 33.6967C40.3077 33.6967 40.5991 33.627 40.8593 33.5025C40.1879 33.1814 39.724 32.4959 39.724 31.702Z" fill="#FFB1A0"/>
<path d="M41.7425 33.6968H38.2574C37.2974 33.6968 36.5119 34.4823 36.5119 35.4423V36.9877C37.4576 37.775 38.6733 38.249 40 38.249C41.3267 38.249 42.5424 37.7751 43.4882 36.9877V35.4423C43.4881 34.4823 42.7026 33.6968 41.7425 33.6968Z" fill="#FF656F"/>
<path d="M38.2307 35.2861C38.2307 34.5819 38.6535 33.972 39.2577 33.6968H38.2575C37.2974 33.6968 36.5119 34.4823 36.5119 35.4423V36.9877C37.016 37.4073 37.5973 37.7368 38.2307 37.954V35.2861Z" fill="#FF4756"/>
<path d="M35.1274 41.1948H29.3299C28.8877 41.1948 28.5293 41.5533 28.5293 41.9955V46.5296C28.5293 46.9718 28.8877 47.3302 29.3299 47.3302H35.1274C35.5696 47.3302 35.9281 46.9718 35.9281 46.5296V41.9955C35.9281 41.5533 35.5696 41.1948 35.1274 41.1948Z" fill="#3ABCA7"/>
<path d="M35.1274 49.9651H29.3299C28.8877 49.9651 28.5293 50.3235 28.5293 50.7657V55.2999C28.5293 55.742 28.8877 56.1005 29.3299 56.1005H35.1274C35.5696 56.1005 35.9281 55.742 35.9281 55.2999V50.7657C35.9281 50.3236 35.5696 49.9651 35.1274 49.9651Z" fill="#3ABCA7"/>
<path d="M51.8053 22.1768H32.4423C32.1186 22.1768 31.8564 22.4391 31.8564 22.7627C31.8564 23.0863 32.1186 23.3486 32.4423 23.3486H51.8054C52.1291 23.3486 52.3913 23.0863 52.3913 22.7627C52.3913 22.4391 52.129 22.1768 51.8053 22.1768Z" fill="black"/>
<path d="M36.514 41.9942C36.514 41.2297 35.892 40.6077 35.1275 40.6077H29.3299C28.5654 40.6077 27.9434 41.2296 27.9434 41.9942V46.5284C27.9434 47.2929 28.5654 47.9149 29.3299 47.9149H35.1275C35.892 47.9149 36.514 47.293 36.514 46.5284V41.9942ZM35.3421 46.5284C35.3421 46.6467 35.2459 46.7431 35.1275 46.7431H29.3299C29.2115 46.7431 29.1152 46.6468 29.1152 46.5284V41.9942C29.1152 41.8759 29.2115 41.7795 29.3299 41.7795H35.1275C35.2459 41.7795 35.3421 41.8758 35.3421 41.9942V46.5284Z" fill="black"/>
<path d="M35.1275 49.3779H29.3299C28.5654 49.3779 27.9434 50 27.9434 50.7645V55.2986C27.9434 56.0632 28.5654 56.6852 29.3299 56.6852H35.1275C35.892 56.6852 36.514 56.0632 36.514 55.2986V50.7645C36.514 49.9999 35.892 49.3779 35.1275 49.3779ZM35.3421 55.2986C35.3421 55.4169 35.2459 55.5132 35.1275 55.5132H29.3299C29.2115 55.5132 29.1152 55.4169 29.1152 55.2986V50.7644C29.1152 50.6461 29.2115 50.5497 29.3299 50.5497H35.1275C35.2459 50.5497 35.3421 50.6461 35.3421 50.7644V55.2986Z" fill="black"/>
<path d="M50.915 41.363H38.6828C38.3591 41.363 38.0969 41.6254 38.0969 41.949C38.0969 42.2726 38.3591 42.5349 38.6828 42.5349H50.915C51.2387 42.5349 51.5009 42.2726 51.5009 41.949C51.5009 41.6254 51.2386 41.363 50.915 41.363Z" fill="black"/>
<path d="M50.915 43.6755H38.6828C38.3591 43.6755 38.0969 43.9379 38.0969 44.2615C38.0969 44.5851 38.3591 44.8474 38.6828 44.8474H50.915C51.2387 44.8474 51.5009 44.5851 51.5009 44.2615C51.5009 43.9379 51.2386 43.6755 50.915 43.6755Z" fill="black"/>
<path d="M50.915 45.988H38.6828C38.3591 45.988 38.0969 46.2504 38.0969 46.574C38.0969 46.8976 38.3591 47.1599 38.6828 47.1599H50.915C51.2387 47.1599 51.5009 46.8976 51.5009 46.574C51.5009 46.2504 51.2386 45.988 50.915 45.988Z" fill="black"/>
<path d="M50.915 50.1331H38.6828C38.3591 50.1331 38.0969 50.3954 38.0969 50.719C38.0969 51.0426 38.3591 51.3049 38.6828 51.3049H50.915C51.2387 51.3049 51.5009 51.0426 51.5009 50.719C51.5009 50.3954 51.2386 50.1331 50.915 50.1331Z" fill="black"/>
<path d="M50.915 52.4456H38.6828C38.3591 52.4456 38.0969 52.7079 38.0969 53.0315C38.0969 53.3551 38.3591 53.6174 38.6828 53.6174H50.915C51.2387 53.6174 51.5009 53.3551 51.5009 53.0315C51.5009 52.7079 51.2386 52.4456 50.915 52.4456Z" fill="black"/>
<path d="M50.915 54.7581H38.6828C38.3591 54.7581 38.0969 55.0204 38.0969 55.344C38.0969 55.6676 38.3591 55.9299 38.6828 55.9299H50.915C51.2387 55.9299 51.5009 55.6676 51.5009 55.344C51.5009 55.0204 51.2386 54.7581 50.915 54.7581Z" fill="black"/>
<path d="M32.9943 43.1384L31.9912 44.1415L31.4629 43.6132C31.234 43.3844 30.8631 43.3844 30.6343 43.6132C30.4054 43.842 30.4054 44.213 30.6343 44.4418L31.5768 45.3844C31.8056 45.613 32.1766 45.6132 32.4055 45.3844L33.8229 43.967C34.0518 43.7381 34.0518 43.3671 33.8229 43.1384C33.5941 42.9096 33.2232 42.9096 32.9943 43.1384Z" fill="black"/>
<path d="M32.9943 51.9084L31.9912 52.9116L31.4629 52.3833C31.2341 52.1544 30.8631 52.1545 30.6343 52.3833C30.4054 52.6121 30.4054 52.9831 30.6343 53.2119L31.5769 54.1545C31.8055 54.3832 32.1765 54.3834 32.4055 54.1545L33.8229 52.737C34.0518 52.5082 34.0518 52.1372 33.8229 51.9084C33.5941 51.6796 33.2232 51.6796 32.9943 51.9084Z" fill="black"/>
<path d="M40 38.8338C43.3393 38.8338 46.0416 36.1121 46.0416 32.7921C46.0416 30.0356 44.1796 27.6299 41.5136 26.9418C41.2 26.861 40.8806 27.0495 40.7998 27.3628C40.719 27.6761 40.9074 27.9956 41.2208 28.0765C43.3692 28.631 44.8698 30.57 44.8698 32.7921C44.8698 33.7745 44.5764 34.6892 44.074 35.4551V35.4411C44.074 34.2905 43.2359 33.3325 42.1384 33.1439C42.4174 32.7317 42.5806 32.2349 42.5806 31.7008C42.5806 30.2778 41.4229 29.1201 39.9999 29.1201C38.5769 29.1201 37.4192 30.2778 37.4192 31.7008C37.4192 32.2349 37.5823 32.7317 37.8614 33.1439C36.7638 33.3326 35.9258 34.2906 35.9258 35.4411V35.4551C35.4234 34.6892 35.13 33.7745 35.13 32.7921C35.13 30.57 36.6306 28.6309 38.7791 28.0765C39.0924 27.9956 39.2809 27.6761 39.2 27.3628C39.1192 27.0495 38.7995 26.861 38.4863 26.9418C35.8202 27.6299 33.9581 30.0356 33.9581 32.7921C33.9583 36.1033 36.6491 38.8338 40 38.8338ZM40 30.2921C40.7768 30.2921 41.4088 30.9241 41.4088 31.701C41.4088 32.4778 40.7768 33.1098 40 33.1098C39.2232 33.1098 38.5912 32.4778 38.5912 31.701C38.5912 30.9241 39.2232 30.2921 40 30.2921ZM37.0978 35.4412C37.0978 34.8017 37.6181 34.2816 38.2575 34.2816H41.7426C42.382 34.2816 42.9022 34.8018 42.9022 35.4412V36.7C42.0326 37.3475 41.0014 37.6619 40.0001 37.6619C38.9966 37.6619 37.9648 37.3456 37.0979 36.7V35.4412H37.0978Z" fill="black"/>
<path d="M24.6984 22.088V57.912C24.6984 59.0634 25.6351 60 26.7864 60H53.2137C54.365 60 55.3017 59.0634 55.3017 57.912V41.3672C55.3017 41.0436 55.0395 40.7813 54.7158 40.7813C54.3921 40.7813 54.1299 41.0436 54.1299 41.3672V57.912C54.1299 58.4172 53.7189 58.8281 53.2137 58.8281H26.7863C26.2812 58.8281 25.8702 58.4172 25.8702 57.912V25.5254H54.1297V38.6328C54.1297 38.9564 54.392 39.2188 54.7157 39.2188C55.0393 39.2188 55.3016 38.9564 55.3016 38.6328V22.088C55.3016 20.9366 54.3649 20 53.2136 20H26.7863C25.6351 20 24.6984 20.9366 24.6984 22.088ZM30.1699 21.1719H53.2136C53.7188 21.1719 54.1298 21.5828 54.1298 22.088V24.3536H30.1699V21.1719ZM28.998 24.3536H25.8703V22.088C25.8703 21.5828 26.2812 21.1719 26.7863 21.1719H28.998V24.3536Z" fill="black"/>
</g>
<defs>
<clipPath id="clip0_114_2505">
<rect width="40" height="40" fill="white" transform="translate(20 20)"/>
</clipPath>
</defs>
</svg>
