<svg width="80" height="80" viewBox="0 0 80 80" fill="none" xmlns="http://www.w3.org/2000/svg">
<rect width="80" height="80" rx="16" fill="#E3D9E4"/>
<g clip-path="url(#clip0_114_2530)">
<path d="M39.1525 60V58.4943C39.1525 54.8956 37.6419 51.4621 34.9893 49.0302C32.8815 49.0298 30.8069 49.5563 28.9539 50.5612L27.4951 51.3525L26.7914 51.8524C24.1495 53.7247 22.58 56.7621 22.5806 60H39.1525Z" fill="#B8A0BB"/>
<path d="M47.0975 50.3202C46.8866 50.3205 46.6888 50.218 46.568 50.045L45.2136 48.1077C45.0165 47.816 45.09 47.4198 45.3784 47.2181C45.6671 47.0161 46.0641 47.0829 46.2707 47.3683L47.6257 49.3058C47.7637 49.5027 47.7807 49.7599 47.6697 49.9732C47.5586 50.1866 47.3379 50.3202 47.0975 50.3202Z" fill="#B3B3E5"/>
<path d="M42.5812 43.8694C42.3651 43.87 42.1634 43.762 42.0438 43.5819L40.7538 41.6444C40.6216 41.4527 40.603 41.2049 40.7053 40.9956C40.8072 40.7865 41.0141 40.6486 41.2466 40.6346C41.4789 40.6208 41.7007 40.7331 41.8268 40.9287L43.1174 42.8663C43.2495 43.0644 43.262 43.3189 43.15 43.5285C43.0377 43.7385 42.8192 43.8694 42.5812 43.8694Z" fill="#B3B3E5"/>
<path d="M59.8581 36.3926C59.8578 36.7557 59.8144 37.1174 59.7287 37.4701C59.6127 37.9789 59.4122 38.465 59.1357 38.9075L54.2837 46.6044H50.1355C46.7676 46.0114 44.0451 43.5276 43.3938 40.4438C43.0972 39.0955 43.1891 37.6908 43.6581 36.3926C44.3634 34.4895 45.759 32.9215 47.5674 32.0002C49.3374 31.1176 51.3501 30.8475 53.2901 31.2327L55.9613 31.7231C58.0368 32.1021 59.6136 33.8047 59.8324 35.9031C59.8508 36.0657 59.8593 36.229 59.8581 36.3926Z" fill="#FFC55F"/>
<path d="M59.8581 36.3926C59.8578 36.7557 59.8145 37.1174 59.7287 37.4701C59.2825 35.4435 57.72 33.8486 55.7031 33.3606L52.7939 32.7607C50.672 32.2825 48.4482 32.6185 46.5625 33.7024C45.4178 34.386 44.429 35.3016 43.6594 36.3901C44.3649 34.488 45.7599 32.9209 47.5674 32.0002C49.3375 31.1176 51.3501 30.8475 53.2901 31.2327L55.9613 31.7231C58.0368 32.1021 59.6136 33.8047 59.8325 35.9031C59.8508 36.0657 59.8593 36.229 59.8581 36.3926Z" fill="#A97C50"/>
<path d="M55.6207 47.1882L55.5438 49.675L50.5374 49.0302L50.1349 46.6044H52.1143" fill="#FFD9C0"/>
<path d="M48.3868 45.1593C48.3868 43.7341 46.9427 42.5787 45.1611 42.5787C43.3798 42.5787 41.9357 43.7341 41.9357 45.1593C41.9357 46.5845 43.3798 47.7399 45.1611 47.7399C46.9427 47.7399 48.3868 46.5845 48.3868 45.1593Z" fill="#FFC55F"/>
<path d="M50.5374 49.0302L55.5438 49.675V51.6107L50.5374 49.0302Z" fill="#DE5B65"/>
<path d="M53.2217 39.7C54.2395 38.8919 54.3344 37.2955 54.8795 36.1182L57.2543 37.2174C58.4699 37.7759 59.0805 39.1507 58.6801 40.4269L57.0001 45.7205C56.2894 47.2397 54.4824 47.8961 52.9627 47.1875C52.4164 46.9351 51.9565 46.5277 51.6406 46.0156L51.2894 45.4449C50.639 44.3948 50.5594 43.0884 51.0776 41.9669L50.625 41.7599C49.8801 41.4181 49.5529 40.5371 49.8944 39.7919C50.2414 39.0488 51.1249 38.7274 51.868 39.0744L53.2217 39.7Z" fill="#FFD9C0"/>
<path d="M56.1289 60L56.557 59.3576C57.1213 58.5104 57.8967 57.8253 58.8068 57.3694C59.5386 57.005 60.0006 56.2579 60 55.4407C60 54.6677 59.5859 53.9542 58.9151 53.5706L55.4837 51.6107L50.5374 49.0302C48.0801 50.6458 46.5726 53.3652 46.5045 56.3055L46.4194 60H56.1289Z" fill="#EFADB2"/>
<path d="M52.5 50.0549L50.535 49.0302C48.0774 50.6458 46.5701 53.3652 46.5018 56.3055L46.4194 60H49.6451L49.7305 56.3089C49.7885 53.9395 50.7846 51.6901 52.5 50.0549Z" fill="#DE5B65"/>
<path d="M32.0563 42.0551L33.9188 44.3857L34.9893 49.0302C32.8815 49.0298 30.8069 49.5563 28.9539 50.5612L27.4951 51.3525L26.3507 47.6593L28.0624 43.0231L32.0563 42.0551Z" fill="#FFD9C0"/>
<path d="M23.2156 35.3381C21.8344 34.5547 20.8795 33.1909 20.6161 31.6251L20.0256 28.3612L21.3467 29.8032C21.8716 30.3799 22.5171 30.8337 23.2376 31.1325C24.3579 31.5985 25.6116 31.6299 26.7538 31.2207C28.3881 30.6345 30.705 30.8487 33.9294 33.0487L33.992 33.0838C35.3412 33.8452 36.2994 35.148 36.6251 36.6626C36.9458 38.0685 36.7386 39.5435 36.0431 40.8069L33.9331 44.4318" fill="#A97C50"/>
<path d="M36.6251 36.637C36.2961 35.1239 35.3348 33.8239 33.9844 33.0661L33.9218 33.0319C30.69 30.8444 28.3731 30.6345 26.7407 31.2256C25.5997 31.6385 24.346 31.611 23.2245 31.1487C22.5015 30.853 21.8533 30.401 21.3263 29.8251L20 28.3868L20.4587 30.8749L20.6805 31.1163C21.2076 31.6907 21.8546 32.1417 22.5757 32.4374C23.6972 32.9001 24.9509 32.9276 26.0919 32.515C27.7249 31.9232 30.0418 32.1301 33.2736 34.3207L33.3362 34.3558C34.6866 35.1132 35.6479 36.4127 35.9769 37.9257C36.2393 39.0704 36.1539 40.2673 35.7318 41.3632L36.0532 40.7831C36.7462 39.5181 36.9498 38.0423 36.6251 36.637Z" fill="#553E28"/>
<path d="M23.212 35.3542L22.1411 44.5623C22.0706 46.452 23.5397 48.0438 25.4288 48.1249C26.0846 48.1228 26.723 47.9131 27.2525 47.5262L27.8543 47.0886C28.9902 46.2386 29.6521 44.8974 29.6362 43.4786H30.1712C31.0953 43.4399 31.8134 42.6608 31.7777 41.7367C31.8106 40.8148 31.0931 40.039 30.1712 39.9999H29.6362L29.523 39.7549C28.8904 38.3749 28.5635 36.874 28.5657 35.3555H23.212V35.3542Z" fill="#FFD9C0"/>
<path d="M38.5294 33.5376L31.8869 27.8351C28.9462 25.3125 30.387 20.3418 34.2462 20.0192C34.3997 20.0064 34.5544 20 34.7113 20C36.0495 20.0018 37.3404 20.4971 38.3362 21.3913L36.9067 24.1638L38.2758 25.5344L37.1805 26.6312L38.8232 27.9999L38.2758 29.0964L39.1507 30.8014L38.1699 31.4563L38.5294 33.5376Z" fill="#EFADB2"/>
<path d="M34.2462 21.9543C34.3994 21.9418 34.5544 21.9351 34.7113 21.9351C35.7416 21.9351 36.7502 22.2302 37.6181 22.7856L38.3386 21.3913C37.3422 20.4965 36.0504 20.0012 34.7113 20C34.5541 20 34.3991 20.0064 34.2462 20.0192C32.9898 20.1468 31.8497 20.8109 31.1191 21.8408C30.3885 22.8711 30.1386 24.1666 30.4337 25.3943C30.7849 23.5199 32.3459 22.1118 34.2462 21.9543Z" fill="#DE5B65"/>
<path d="M38.2788 33.3225L38.5294 33.5377L38.4698 33.1943L38.2788 33.3225Z" fill="#993C4C"/>
<path d="M41.4587 33.548L48.1131 27.8351C51.0507 25.3107 49.613 20.3418 45.7538 20.0226C45.6003 20.0076 45.4456 20 45.2887 20C43.9716 20.0009 42.6996 20.4803 41.7093 21.3489L42.76 22.7802L40.8539 24.1638L42.4963 25.5344L41.4014 26.6312L42.7701 27.7283L41.6751 29.0988L41.7838 31.1313L41.1301 32.4438L41.4587 33.548Z" fill="#EFADB2"/>
<path d="M44.6439 21.9376C44.8001 21.9376 44.9564 21.9443 45.108 21.9568C46.2735 22.0685 47.3444 22.6456 48.0783 23.5574C48.812 24.4696 49.1467 25.639 49.0064 26.8011C50.6595 24.1544 49.1357 20.3043 45.7562 20.022C45.6 20.0061 45.4456 20 45.2887 20C43.9716 20.0009 42.6996 20.4803 41.7093 21.3489L42.4768 22.3938C43.1598 22.0929 43.8977 21.9376 44.6439 21.9376Z" fill="#DE5B65"/>
<path d="M35.9268 60H39.1525V58.4943C39.1525 54.8956 37.6419 51.4621 34.9893 49.0302C34.0155 49.0317 33.045 49.1458 32.0975 49.3701C34.5428 51.777 35.9222 55.0635 35.9268 58.4949V60Z" fill="#714276"/>
</g>
<defs>
<clipPath id="clip0_114_2530">
<rect width="40" height="40" fill="white" transform="translate(20 20)"/>
</clipPath>
</defs>
</svg>
