<svg width="80" height="80" viewBox="0 0 80 80" fill="none" xmlns="http://www.w3.org/2000/svg">
<rect width="80" height="80" rx="16" fill="#E3D9E4"/>
<path d="M28.3859 49.0637V55.258C31.9141 55.4136 30.8961 56.0371 37.0348 58.7972C37.8166 59.1047 39.6214 59.6085 41.5543 58.7203C41.5553 58.7199 41.557 58.7191 41.5581 58.7187L53.6179 54.4008C54.0103 54.2202 55.9898 53.1447 55.2091 51.1416C54.2962 49.0056 51.9473 49.8966 51.7504 49.9607L45.4544 51.7014" fill="#EAC092"/>
<path d="M35.5091 51.6554L42.5208 53.8773C43.7445 54.2253 45.0184 53.5154 45.3664 52.2917C45.7144 51.068 45.0045 49.7941 43.6023 49.2737L37.3822 47.1626C37.382 47.1622 36.0541 44.9939 32.8922 44.9939C30.8956 44.9939 29.1744 46.6076 28.386 48.0202V50.8409" fill="#FEDBAB"/>
<path d="M32.7148 51.551C32.6641 51.551 32.6125 51.5455 32.5625 51.5353C32.5125 51.526 32.4633 51.5103 32.4156 51.4908C32.3687 51.4713 32.3234 51.4471 32.2812 51.4188C32.2383 51.3907 32.1984 51.3579 32.1625 51.322C32.1266 51.286 32.0938 51.2462 32.0656 51.2032C32.0367 51.161 32.0133 51.1157 31.9938 51.0681C31.9742 51.0212 31.9586 50.972 31.9492 50.922C31.9391 50.872 31.9336 50.8204 31.9336 50.7696C31.9336 50.7188 31.9391 50.6673 31.9492 50.6173C31.9586 50.5673 31.9742 50.5181 31.9938 50.4704C32.0133 50.4235 32.0367 50.3782 32.0656 50.336C32.0938 50.2931 32.1266 50.2532 32.1625 50.2173C32.1984 50.1813 32.2383 50.1485 32.2812 50.1204C32.3234 50.0923 32.3687 50.0681 32.4156 50.0485C32.4633 50.029 32.5125 50.0134 32.5625 50.004C32.6625 49.9837 32.7664 49.9837 32.8672 50.004C32.9172 50.0134 32.9664 50.029 33.0133 50.0485C33.0609 50.0681 33.1063 50.0923 33.1484 50.1204C33.1914 50.1485 33.2313 50.1813 33.2672 50.2173C33.3031 50.2532 33.3359 50.2931 33.3641 50.336C33.3922 50.3782 33.4164 50.4235 33.4359 50.4704C33.4555 50.5181 33.4703 50.5673 33.4805 50.6173C33.4906 50.6673 33.4961 50.7188 33.4961 50.7696C33.4961 50.8204 33.4906 50.872 33.4805 50.922C33.4703 50.972 33.4555 51.0212 33.4359 51.0681C33.4164 51.1157 33.3922 51.161 33.3641 51.2032C33.3359 51.2462 33.3031 51.286 33.2672 51.322C33.2313 51.3579 33.1914 51.3907 33.1484 51.4188C33.1063 51.447 33.0609 51.4713 33.0133 51.4908C32.9664 51.5103 32.9172 51.526 32.8672 51.5353C32.8172 51.5455 32.7656 51.551 32.7148 51.551Z" fill="black"/>
<path d="M28.3862 47.9202H25.4266V56.3139H28.3862V47.9202Z" fill="#EAECF0"/>
<path d="M25.4266 47.9202H20.7812V57.7702H25.4266V47.9202Z" fill="#714276"/>
<path d="M55.937 50.858C55.9339 50.8501 55.9308 50.8424 55.9275 50.8348C55.2084 49.1522 53.522 48.5303 51.5263 49.2119L46.0834 50.7171C45.7688 49.7641 44.9838 48.9532 43.874 48.5413C43.8671 48.5388 43.8602 48.5363 43.8533 48.534L37.8704 46.5034C37.3724 45.8597 35.8126 44.2126 32.892 44.2126C30.851 44.2126 29.0455 45.6128 28.0125 47.139H20.7812C20.3498 47.139 20 47.4887 20 47.9202V57.77C20 58.2015 20.3498 58.5512 20.7812 58.5512H25.4263C25.8578 58.5512 26.2076 58.2015 26.2076 57.77V57.0955H28.3859C28.8174 57.0955 29.1672 56.7457 29.1672 56.3142V56.0894C30.437 56.2001 30.8547 56.441 32.0209 57.1135C32.9178 57.6307 34.2734 58.4123 36.7145 59.5099C36.7258 59.515 36.7373 59.5198 36.7488 59.5244C37.2173 59.7087 38.1331 59.9982 39.2623 59.9982C40.0482 59.9982 40.9377 59.8578 41.8506 59.444L53.8812 55.1365C53.9026 55.1288 53.9237 55.1202 53.9443 55.1107C55.0941 54.5817 56.8074 53.0908 55.937 50.858ZM24.6451 56.9887H21.5625V48.7014H24.6451V56.9887ZM27.6047 55.5329H26.2076V48.7014H27.6047V55.5329ZM53.32 53.6776L41.2948 57.9832C41.2843 57.9869 41.27 57.9926 41.2596 57.9968C41.2491 58.0011 41.2385 58.0056 41.2281 58.0104C39.5534 58.7801 37.9614 58.3193 37.3375 58.0767C34.9795 57.0157 33.721 56.29 32.8015 55.7598C31.523 55.0226 30.907 54.6673 29.1672 54.5236V48.2312C29.9077 47.0175 31.3438 45.7751 32.8921 45.7751C35.5473 45.7751 36.6723 47.502 36.7166 47.5717C36.812 47.7269 36.9586 47.8438 37.131 47.9023L43.34 50.0097C44.3316 50.3819 44.8557 51.2311 44.6148 52.078C44.5037 52.4691 44.2468 52.7934 43.8916 52.9913C43.5395 53.1875 43.1325 53.236 42.7445 53.1287L35.7451 50.9105C35.3335 50.7801 34.8946 51.008 34.7643 51.4193C34.6339 51.8306 34.8617 52.2697 35.273 52.4001L42.2847 54.622C42.2921 54.6244 42.2995 54.6266 42.307 54.6287C42.587 54.7084 42.872 54.7477 43.1552 54.7477C43.6738 54.7477 44.1867 54.6156 44.6522 54.3562C45.372 53.9552 45.8924 53.2979 46.1177 52.5053C46.1357 52.442 46.1516 52.3787 46.1655 52.3155L52.0313 50.6905C52.8785 50.4011 53.9906 50.2968 54.4858 51.4372C54.9983 52.776 53.6662 53.5125 53.32 53.6776Z" fill="black"/>
<path d="M38.7424 27.7219L31.8035 20.783L23.1038 29.4827L37.97 44.3489L46.1795 36.1394" fill="#3ABCA7"/>
<path d="M34.6337 28.9073C34.6341 28.9057 34.6346 28.9042 34.635 28.9026C33.7809 28.9609 32.9431 29.3165 32.2902 29.9695C30.8561 31.4035 30.8561 33.7285 32.2902 35.1626C33.7242 36.5967 36.0492 36.5967 37.4833 35.1626C38.1769 34.469 38.5349 33.567 38.5577 32.6583" fill="#FFD36C"/>
<path d="M51.6141 32.135V25.9407C48.0859 25.7851 49.1039 25.1617 42.9652 22.4016C42.1834 22.094 40.3786 21.5902 38.4457 22.4784C38.4447 22.4789 38.443 22.4796 38.4419 22.48L34.8034 23.7827L38.5576 27.537" fill="#EAC092"/>
<path d="M23.1038 29.4828L26.0532 26.5334C27.6797 28.1599 27.6797 30.8057 26.0532 32.4322L23.1038 29.4828Z" fill="#00B192"/>
<path d="M35.0206 41.3996C36.6471 39.7731 39.2929 39.7731 40.9194 41.3996L37.97 44.3489L35.0206 41.3996Z" fill="#00B192"/>
<path d="M28.8541 23.7323L31.8035 20.783L34.7529 23.7323C33.1265 25.3588 30.4806 25.3588 28.8541 23.7323Z" fill="#00B192"/>
<path d="M42.7505 34.2224C42.2158 35.6981 42.5391 37.4172 43.7204 38.5985L46.1795 36.1394" fill="#00B192"/>
<path d="M44.4909 29.5435L37.4792 27.3216C36.2555 26.9736 34.9816 27.6835 34.6337 28.9072C34.2857 30.1309 34.9956 31.4049 36.3977 31.9252L42.6205 34.0371L42.6179 34.0363C42.6179 34.0363 43.9455 36.205 47.1079 36.205C49.1045 36.205 50.8257 34.5913 51.6141 33.1787V30.3581" fill="#FEDBAB"/>
<path d="M47.2852 31.2103C47.2344 31.2103 47.1828 31.2048 47.1328 31.1947C47.0828 31.1845 47.0336 31.1697 46.9867 31.1501C46.9391 31.1306 46.8938 31.1064 46.8516 31.0783C46.8086 31.0501 46.7687 31.0173 46.7328 30.9814C46.6969 30.9455 46.6641 30.9056 46.6359 30.8626C46.6078 30.8205 46.5836 30.7751 46.5641 30.7275C46.5445 30.6806 46.5289 30.6314 46.5195 30.5814C46.5094 30.5314 46.5039 30.4798 46.5039 30.4291C46.5039 30.3783 46.5094 30.3267 46.5195 30.2767C46.5289 30.2267 46.5445 30.1775 46.5641 30.1298C46.5836 30.083 46.6078 30.0376 46.6359 29.9955C46.6641 29.9525 46.6969 29.9126 46.7328 29.8767C46.7687 29.8408 46.8086 29.808 46.8516 29.7798C46.8938 29.7517 46.9391 29.7275 46.9867 29.708C47.0336 29.6884 47.0828 29.6728 47.1328 29.6634C47.2336 29.6431 47.3375 29.6431 47.4383 29.6634C47.4875 29.6728 47.5367 29.6884 47.5844 29.708C47.6312 29.7275 47.6766 29.7517 47.7187 29.7798C47.7617 29.808 47.8016 29.8408 47.8375 29.8767C47.8734 29.9126 47.9062 29.9525 47.9344 29.9955C47.9633 30.0376 47.9867 30.083 48.0063 30.1298C48.0266 30.1775 48.0414 30.2267 48.0516 30.2767C48.0617 30.3267 48.0664 30.3783 48.0664 30.4291C48.0664 30.4798 48.0617 30.5314 48.0516 30.5814C48.0414 30.6314 48.0266 30.6806 48.0063 30.7275C47.9867 30.7751 47.9633 30.8205 47.9344 30.8626C47.9062 30.9056 47.8734 30.9455 47.8375 30.9814C47.8016 31.0173 47.7617 31.0501 47.7187 31.0783C47.6766 31.1064 47.6312 31.1306 47.5844 31.1501C47.5367 31.1697 47.4875 31.1845 47.4383 31.1947C47.3875 31.2048 47.3359 31.2103 47.2852 31.2103Z" fill="black"/>
<path d="M54.5737 24.885H51.6141V33.2788H54.5737V24.885Z" fill="#EAECF0"/>
<path d="M59.2188 23.429H54.5734V33.279H59.2188V23.429Z" fill="#714276"/>
<path d="M59.2187 22.6476H54.5737C54.1422 22.6476 53.7924 22.9974 53.7924 23.4289V24.1034H51.6141C51.1826 24.1034 50.8328 24.4532 50.8328 24.8847V25.1095C49.563 24.9986 49.1453 24.7579 47.9791 24.0854C47.0823 23.5682 45.7267 22.7865 43.2855 21.689C43.2742 21.6838 43.2628 21.679 43.2512 21.6745C42.4566 21.3618 40.374 20.7467 38.1497 21.7547L35.0059 22.8804L32.356 20.2305C32.0509 19.9254 31.5562 19.9254 31.2512 20.2305L22.5513 28.9303C22.2699 29.2118 22.2159 29.6998 22.5513 30.0352L37.4175 44.9014C37.6554 45.1393 38.2124 45.2113 38.5224 44.9014L46.465 36.9589C46.6715 36.9767 46.8858 36.9863 47.1079 36.9863C49.149 36.9863 50.9544 35.5861 51.9873 34.06H59.2187C59.6502 34.06 60 33.7103 60 33.2788V23.4289C60 22.9974 59.6502 22.6476 59.2187 22.6476ZM33.7851 29.8931C33.9293 31.0933 34.7934 32.163 36.126 32.6575C36.1329 32.66 36.1398 32.6625 36.1467 32.6649L37.7089 33.1951C37.5909 33.7275 37.324 34.2171 36.931 34.6101C35.8038 35.7372 33.9698 35.7373 32.8427 34.6101C31.7155 33.483 31.7155 31.649 32.8427 30.5218C33.1146 30.2498 33.4355 30.0372 33.7851 29.8931ZM35.3478 26.8425C34.7878 27.1546 34.3484 27.6218 34.0748 28.1872C33.1936 28.3504 32.3777 28.777 31.7377 29.4169C30.0014 31.1533 30.0014 33.9786 31.7378 35.715C32.6059 36.5831 33.7463 37.0172 34.8868 37.0172C36.0272 37.0172 37.1677 36.5832 38.0359 35.715C38.6007 35.1501 38.9964 34.4559 39.1946 33.6993L41.8324 34.5946C41.5355 35.9702 41.8396 37.4174 42.66 38.5541L40.8759 40.3382C39.1494 39.0859 36.7905 39.0859 35.0641 40.3382L27.1148 32.3889C27.7249 31.5498 28.0543 30.5419 28.0543 29.4827C28.0543 28.4234 27.725 27.4156 27.1148 26.5765L28.8974 24.794C29.7365 25.4041 30.7443 25.7335 31.8036 25.7335C32.8629 25.7335 33.8707 25.4041 34.7098 24.794L36.3995 26.4838C36.0349 26.5376 35.6794 26.6578 35.3478 26.8425ZM43.7857 37.4283C43.4841 36.9369 43.3135 36.3761 43.2866 35.8036C43.6608 36.0742 44.1181 36.3393 44.6644 36.5497L43.7857 37.4283ZM31.8035 21.8878L33.5841 23.6684C33.0548 23.9958 32.4429 24.1709 31.8035 24.1709C31.1641 24.1709 30.5522 23.9958 30.0229 23.6684L31.8035 21.8878ZM25.9893 27.7021C26.3166 28.2314 26.4918 28.8433 26.4918 29.4827C26.4918 30.1221 26.3167 30.734 25.9893 31.2634L24.2087 29.4827L25.9893 27.7021ZM37.97 43.244L36.1897 41.4637C37.2766 40.7929 38.6632 40.7929 39.7502 41.4637L37.97 43.244ZM47.1079 35.4236C46.8182 35.4236 46.5467 35.403 46.2929 35.3663C46.2919 35.3661 46.2909 35.366 46.2898 35.3658C44.6027 35.1208 43.6951 34.1618 43.3959 33.7822C43.38 33.7587 43.3121 33.6699 43.302 33.6551C43.211 33.4925 43.0618 33.3617 42.8715 33.2971L36.6599 31.1889C35.6687 30.8168 35.1447 29.968 35.3848 29.1215C35.385 29.1209 35.3852 29.1204 35.3853 29.1198C35.3855 29.1192 35.3857 29.1185 35.3859 29.1179C35.4975 28.728 35.7539 28.4047 36.1083 28.2072C36.4603 28.0111 36.8673 27.9624 37.2554 28.07L44.2548 30.288C44.6662 30.4186 45.1053 30.1906 45.2356 29.7793C45.3659 29.3679 45.1382 28.9289 44.7269 28.7985L39.1601 27.0344L39.1115 26.9858C39.111 26.9854 39.1105 26.9848 39.11 26.9843L36.228 24.1023L38.7052 23.2153C38.7135 23.2122 38.7238 23.2084 38.7321 23.205C38.7342 23.2042 38.7383 23.2026 38.7403 23.2018C38.7509 23.1975 38.7614 23.1929 38.7718 23.1882C40.4465 22.4185 42.0384 22.8792 42.6623 23.1218C45.0204 24.1829 46.279 24.9086 47.1985 25.4388C48.4769 26.1761 49.093 26.5313 50.8327 26.675V32.9673C50.0923 34.1812 48.6562 35.4236 47.1079 35.4236ZM52.3953 25.6659H53.7924V32.4974H52.3953V25.6659ZM58.4375 32.4974H55.3549V24.2101H58.4375V32.4974Z" fill="black"/>
</svg>
