<svg width="80" height="80" viewBox="0 0 80 80" fill="none" xmlns="http://www.w3.org/2000/svg">
<rect width="80" height="80" rx="16" fill="#E3D9E4"/>
<path d="M30 48.1242L33.75 44.3741L35.625 46.2492L31.875 49.9992L30 48.1242Z" fill="#C8D4D9"/>
<path d="M58.125 35.6242C58.125 37.4299 57.7693 39.2179 57.0783 40.8861C56.3873 42.5543 55.3745 44.0701 54.0977 45.3469C52.8209 46.6237 51.3051 47.6365 49.6369 48.3275C47.9686 49.0186 46.1806 49.3742 44.3749 49.3742C42.5693 49.3742 40.7813 49.0186 39.113 48.3275C37.4448 47.6365 35.929 46.6237 34.6522 45.3469C33.3754 44.0701 32.3626 42.5543 31.6716 40.8861C30.9806 39.2179 30.6249 37.4299 30.6249 35.6242C30.6249 31.9775 32.0736 28.4801 34.6522 25.9015C37.2308 23.3228 40.7282 21.8741 44.3749 21.8741C48.0217 21.8741 51.5191 23.3228 54.0977 25.9015C56.6763 28.4801 58.125 31.9775 58.125 35.6242Z" fill="#714276"/>
<path d="M33.125 50.6241L26.3989 57.3502C25.3601 58.389 23.6876 58.389 22.6489 57.3502C21.6101 56.3115 21.6101 54.639 22.6489 53.6002L29.375 46.8741L33.125 50.6241Z" fill="#888C9D"/>
<path d="M55.625 35.6243C55.625 38.608 54.4397 41.4695 52.3299 43.5793C50.2201 45.6891 47.3587 46.8743 44.375 46.8743C41.3913 46.8743 38.5298 45.6891 36.42 43.5793C34.3102 41.4695 33.1249 38.608 33.1249 35.6243C33.1249 34.1469 33.4159 32.684 33.9813 31.3191C34.5466 29.9542 35.3753 28.714 36.42 27.6693C37.4646 26.6246 38.7048 25.796 40.0698 25.2306C41.4347 24.6652 42.8976 24.3743 44.375 24.3743C45.8523 24.3743 47.3153 24.6652 48.6802 25.2306C50.0451 25.796 51.2853 26.6246 52.3299 27.6693C53.3746 28.714 54.2033 29.9542 54.7686 31.3191C55.334 32.684 55.625 34.1469 55.625 35.6243Z" fill="#E3D9E4"/>
<path d="M47.5 35.6242C47.5 36.0346 47.4192 36.4409 47.2621 36.8201C47.1051 37.1992 46.8749 37.5437 46.5847 37.8339C46.2945 38.1241 45.95 38.3543 45.5709 38.5113C45.1917 38.6684 44.7854 38.7492 44.375 38.7492C43.5462 38.7492 42.7513 38.42 42.1652 37.8339C41.5792 37.2479 41.2499 36.453 41.2499 35.6242C41.2499 34.7954 41.5792 34.0005 42.1652 33.4145C42.7513 32.8284 43.5462 32.4991 44.375 32.4991C44.7854 32.4991 45.1917 32.58 45.5709 32.737C45.95 32.8941 46.2945 33.1243 46.5847 33.4145C46.8749 33.7046 47.1051 34.0492 47.2621 34.4283C47.4192 34.8075 47.5 35.2138 47.5 35.6242Z" fill="#DE5B65"/>
<path d="M44.375 21.2505C41.0516 21.2505 37.83 22.4026 35.26 24.5098C34.6192 25.0391 35.4093 26.0018 36.0535 25.4765C38.4002 23.5524 41.3403 22.5004 44.375 22.5004C51.6312 22.5004 57.5 28.3693 57.5 35.6255C57.5 42.8816 51.6312 48.7505 44.375 48.7505C37.1188 48.7505 31.25 42.8816 31.25 35.6255C31.25 32.5755 32.3123 29.6205 34.2542 27.2685C34.8188 26.6225 33.816 25.7961 33.2898 26.4738C31.1632 29.0495 30 32.2853 30 35.6255C30 39.8439 31.8221 43.6414 34.7217 46.2724L32.1863 48.8042L31.1975 47.813L32.3193 46.6911C32.7244 46.2926 32.4308 45.6039 31.8628 45.6206C31.7006 45.6253 31.5462 45.6934 31.4331 45.8098L30.3137 46.9292L29.8181 46.4323C29.6987 46.3123 29.5358 46.2457 29.3665 46.2481C29.2035 46.2504 29.048 46.3168 28.9331 46.4323L22.2058 53.1596C20.9299 54.4356 20.9299 56.5163 22.2058 57.7922C23.4817 59.0681 25.5673 59.0682 26.8433 57.7922L33.5645 51.0698C33.8101 50.8254 33.8101 50.4279 33.5645 50.1835L33.0713 49.6891L35.686 47.0707C38.1007 48.9077 41.111 50.0005 44.375 50.0005C52.3067 50.0005 58.75 43.5572 58.75 35.6255C58.75 27.6938 52.3067 21.2505 44.375 21.2505ZM44.375 23.6418C37.764 23.6418 32.3926 29.0169 32.3926 35.6279C32.3926 42.2389 37.764 47.6091 44.375 47.6091C50.986 47.6091 56.3562 42.2389 56.3562 35.6279C56.3562 29.0169 50.986 23.6418 44.375 23.6418ZM44.375 24.8918C50.3105 24.8918 55.1111 29.6924 55.1111 35.6279C55.1111 41.5633 50.3105 46.3591 44.375 46.3591C38.4396 46.3591 33.6438 41.5633 33.6438 35.6279C33.6438 29.6924 38.4396 24.8918 44.375 24.8918ZM43.7488 26.8743V28.1561C40.1132 28.459 37.2091 31.3636 36.9067 34.9993H35.6238C34.7717 34.9804 34.7717 36.2683 35.6238 36.2493H36.9067C37.2091 39.8851 40.1132 42.7897 43.7488 43.0926V44.3743C43.7299 45.2262 45.0176 45.2262 44.9988 44.3743V43.0962C47.8305 42.8602 50.3126 41.0345 51.3599 38.3549C51.7048 37.5617 50.4817 37.083 50.1965 37.8996C49.3354 40.1028 47.3175 41.6085 44.9988 41.84V41.2504C45.0056 40.8976 44.7193 40.6091 44.3664 40.6132C44.0193 40.618 43.742 40.9034 43.7488 41.2504V41.8437C40.7913 41.5509 38.4478 39.207 38.1555 36.2493H38.7524C39.6045 36.2682 39.6045 34.9803 38.7524 34.9993H38.1555C38.4478 32.0415 40.7912 29.6975 43.7488 29.4047V29.998C43.7299 30.85 45.0176 30.85 44.9988 29.998V29.4047C47.9575 29.6965 50.3022 32.0408 50.5945 34.9993H50C49.148 34.9804 49.148 36.2682 50 36.2493C51.0514 36.2564 52.0707 36.2493 53.1238 36.2493C53.9758 36.2682 53.9758 34.9803 53.1238 34.9993H51.8433C51.5409 31.3627 48.6355 28.4578 44.9988 28.156V26.8743C45.0049 26.5219 44.7188 26.2341 44.3341 26.2401C43.9822 26.2791 43.7429 26.5527 43.7488 26.8743ZM44.3762 31.8754C42.3125 31.8754 40.625 33.563 40.625 35.6267C40.625 37.6904 42.3125 39.373 44.3762 39.373C46.4399 39.373 48.1274 37.6904 48.1274 35.6267C48.1274 33.563 46.4399 31.8754 44.3762 31.8754ZM44.3762 33.1255C45.7643 33.1255 46.8762 34.2386 46.8762 35.6267C46.8762 37.0148 45.7643 38.1218 44.3762 38.1218C42.9881 38.1218 41.875 37.0148 41.875 35.6267C41.875 34.2386 42.9881 33.1255 44.3762 33.1255ZM29.375 47.7617L32.2412 50.6267L25.957 56.9109C25.1555 57.7124 23.8936 57.7124 23.092 56.9109C22.2905 56.1093 22.2905 54.8474 23.092 54.0458L29.375 47.7617Z" fill="black"/>
</svg>
