<svg width="80" height="80" viewBox="0 0 80 80" fill="none" xmlns="http://www.w3.org/2000/svg">
<rect width="80" height="80" rx="16" fill="#E3D9E4"/>
<g clip-path="url(#clip0_114_2504)">
<path d="M50.3232 34.7438C50.5129 34.4367 50.6796 34.1141 50.8221 33.7787C50.757 33.7282 50.7144 33.6502 50.7144 33.5614V32.4385C50.1188 32.3248 49.5417 32.091 49.0216 31.7375L48.2276 32.5314C48.1935 32.5655 48.1525 32.5875 48.1093 32.6C47.4541 34.1677 45.8772 35.2542 44.0557 35.1814C41.8805 35.0946 40.1111 33.3235 40.026 31.1482C39.9322 28.7489 41.8495 26.7743 44.228 26.7743C44.8321 26.7743 45.406 26.9027 45.9252 27.1321C45.9453 27.1274 45.9662 27.1243 45.9878 27.1243H47.1107C47.2244 26.5287 47.4582 25.9516 47.8117 25.4315L47.018 24.6375C46.9413 24.5607 46.9202 24.4503 46.9528 24.354C46.6001 24.2089 46.2335 24.0907 45.8552 24.0026C45.6926 23.9648 45.5777 23.8197 45.5777 23.6528V22.1722C45.5777 21.9319 45.3829 21.7371 45.1426 21.7371H43.3136C43.0733 21.7371 42.8785 21.9319 42.8785 22.1722V23.7278C42.8785 23.8514 42.7934 23.9596 42.6727 23.9862C41.8474 24.1689 41.0755 24.4938 40.3842 24.9342C40.2792 25.0011 40.1412 24.9839 40.0531 24.8957L38.9548 23.7975C38.7849 23.6275 38.5093 23.6275 38.3394 23.7975L37.0461 25.0907C36.8762 25.2607 36.8762 25.5362 37.0461 25.7062L38.1082 26.7682C38.2176 26.8776 38.2377 27.0479 38.1556 27.1789C37.7249 27.8657 37.4077 28.6308 37.2298 29.4478C37.2065 29.5547 37.1102 29.6299 37.0008 29.6299H35.4209C35.1806 29.6299 34.9857 29.8247 34.9857 30.065V31.894C34.9857 32.1343 35.1806 32.3292 35.4209 32.3292H36.9718C37.0981 32.3292 37.2085 32.4162 37.236 32.5395C37.4188 33.3627 37.743 34.1326 38.1822 34.8222C38.2495 34.928 38.2322 35.0668 38.1435 35.1555L37.0462 36.2528C36.8763 36.4228 36.8763 36.6983 37.0462 36.8683L38.3395 38.1616C38.5094 38.3315 38.7849 38.3315 38.9549 38.1616L39.9649 37.1516C40.1047 37.0117 40.3216 36.9877 40.4902 37.091C41.1332 37.485 41.8432 37.7803 42.5991 37.956C42.7625 37.9941 42.8785 38.1389 42.8785 38.3067V39.7868C42.8785 40.0271 43.0734 40.222 43.3137 40.222H45.1426C45.3829 40.222 45.5777 40.0271 45.5777 39.7868V38.2885C45.5777 38.1314 45.6863 37.9953 45.8395 37.9601C46.6244 37.7797 47.3601 37.4706 48.0229 37.0558C48.1574 36.9717 48.332 36.9921 48.4442 37.1043L49.5015 38.1616C49.6714 38.3315 49.947 38.3315 50.1169 38.1616L51.4102 36.8684C51.5801 36.6985 51.5801 36.4229 51.4102 36.2529L50.3781 35.2208C50.251 35.0938 50.2288 34.8966 50.3232 34.7438Z" fill="#E4EAF8"/>
<path d="M38.6558 36.8685C38.4859 36.6985 38.4859 36.423 38.6558 36.253L39.7531 35.1556C39.8418 35.067 39.8592 34.9282 39.7918 34.8224C39.3526 34.1328 39.0284 33.3628 38.8456 32.5396C38.8182 32.4163 38.7078 32.3293 38.5814 32.3293H37.0305C36.7902 32.3293 36.5953 32.1345 36.5953 31.8942V30.0652C36.5953 29.8249 36.7902 29.63 37.0305 29.63H38.6104C38.7198 29.63 38.8161 29.5549 38.8394 29.448C39.0174 28.6309 39.3346 27.8658 39.7652 27.179C39.8474 27.048 39.8272 26.8777 39.7178 26.7683L38.6558 25.7064C38.4859 25.5364 38.4859 25.2609 38.6558 25.0909L39.4519 24.2948L38.9547 23.7976C38.7848 23.6277 38.5092 23.6277 38.3392 23.7976L37.0461 25.0909C36.8762 25.2608 36.8762 25.5364 37.0461 25.7064L38.1082 26.7684C38.2175 26.8778 38.2377 27.0481 38.1556 27.1791C37.7249 27.8659 37.4078 28.631 37.2298 29.4481C37.2065 29.5549 37.1102 29.6301 37.0008 29.6301H35.4209C35.1806 29.6301 34.9857 29.8249 34.9857 30.0653V31.8942C34.9857 32.1346 35.1806 32.3294 35.4209 32.3294H36.9718C37.0981 32.3294 37.2085 32.4164 37.236 32.5397C37.4188 33.3629 37.743 34.1328 38.1822 34.8224C38.2495 34.9282 38.2322 35.0671 38.1435 35.1557L37.0462 36.2531C36.8763 36.423 36.8763 36.6985 37.0462 36.8685L38.3395 38.1618C38.5094 38.3317 38.7849 38.3317 38.9549 38.1618L39.4521 37.6646L38.6558 36.8685Z" fill="#D8DCE5"/>
<path d="M57.4576 27.4001C57.4576 27.2941 57.4041 27.1963 57.3098 27.1376C57.2601 27.1066 57.2012 27.0941 57.1426 27.0941H56.0535C55.9362 26.4972 55.7052 25.9393 55.3666 25.4352L56.1429 24.6589C56.2624 24.5394 56.2624 24.3456 56.1429 24.2262L55.3295 23.4129C55.2882 23.3716 55.2376 23.3388 55.1807 23.3255C55.0725 23.3003 54.9655 23.3316 54.8905 23.4066L54.1142 24.1829C53.6101 23.8442 53.0522 23.6132 52.4553 23.4959V22.3978C52.4553 22.2288 52.3183 22.0918 52.1493 22.0918H50.9901C50.8212 22.0918 50.6842 22.2288 50.6842 22.3977V23.4959C50.0873 23.6131 49.5294 23.8442 49.0253 24.1828L48.2553 23.4128C48.214 23.3715 48.1634 23.3387 48.1064 23.3254C47.9982 23.3002 47.8912 23.3315 47.8162 23.4065L46.9966 24.2261C46.8771 24.3456 46.8771 24.5394 46.9966 24.6588L47.773 25.4352C47.4343 25.9392 47.2033 26.4971 47.086 27.094H45.988C45.819 27.094 45.6819 27.231 45.6819 27.4V28.5591C45.6819 28.7281 45.819 28.8652 45.988 28.8652H47.086C47.2033 29.462 47.4343 30.0198 47.773 30.524L46.9966 31.3003C46.8771 31.4198 46.8771 31.6136 46.9966 31.7331L47.8098 32.5462C47.8511 32.5875 47.9016 32.6202 47.9584 32.6336C48.0667 32.659 48.1738 32.6277 48.2489 32.5527L49.0252 31.7763C49.5294 32.115 50.0872 32.346 50.6841 32.4633V33.5523C50.6841 33.6107 50.6967 33.6695 50.7275 33.7192C50.7861 33.8137 50.884 33.8673 50.9901 33.8673H52.1493C52.3183 33.8673 52.4553 33.7303 52.4553 33.5613V32.4633C53.0523 32.346 53.6101 32.1149 54.1141 31.7763L54.8842 32.5463C54.9255 32.5877 54.9762 32.6205 55.033 32.6337C55.1412 32.6589 55.2483 32.6276 55.3232 32.5527L56.1364 31.7395C56.1777 31.6981 56.2105 31.6475 56.2238 31.5906C56.2491 31.4823 56.2178 31.3752 56.1428 31.3003L55.3665 30.5239C55.7051 30.0198 55.9362 29.462 56.0534 28.8651H57.1516C57.3205 28.8651 57.4576 28.728 57.4576 28.5591V27.4001ZM54.1866 27.6649C54.2932 28.59 53.9266 29.4746 53.1968 30.0532C52.8198 30.352 52.3633 30.5412 51.8854 30.5963C50.9597 30.7033 50.0744 30.3364 49.4956 29.6059C49.1969 29.2288 49.0079 28.7721 48.9528 28.2941C48.8462 27.3686 49.2133 26.4835 49.9439 25.9051C50.321 25.6065 50.7777 25.4176 51.2556 25.3627C52.181 25.2563 53.0657 25.6233 53.6441 26.3536C53.9427 26.7306 54.1316 27.1872 54.1866 27.6649Z" fill="#FFC850"/>
<path d="M57.4576 27.4001C57.4576 27.2941 57.4041 27.1963 57.3098 27.1376C57.2601 27.1066 57.2012 27.0941 57.1426 27.0941H56.0535C55.9362 26.4972 55.7052 25.9393 55.3666 25.4352L56.1429 24.6589C56.2624 24.5394 56.2624 24.3456 56.1429 24.2262L55.3295 23.4129C55.2882 23.3716 55.2376 23.3388 55.1807 23.3255C55.0725 23.3003 54.9655 23.3316 54.8905 23.4066L54.1142 24.1829C53.6101 23.8442 53.0522 23.6132 52.4553 23.4959V22.3978C52.4553 22.2288 52.3183 22.0918 52.1493 22.0918H50.9901C50.8212 22.0918 50.6842 22.2288 50.6842 22.3977V23.4959C50.0873 23.6131 49.5294 23.8442 49.0253 24.1828L48.2553 23.4128C48.214 23.3715 48.1634 23.3387 48.1064 23.3254C47.9982 23.3002 47.8912 23.3315 47.8162 23.4065L46.9966 24.2261C46.8771 24.3456 46.8771 24.5394 46.9966 24.6588L47.773 25.4352C47.4343 25.9392 47.2033 26.4971 47.086 27.094H45.988C45.819 27.094 45.6819 27.231 45.6819 27.4V28.5591C45.6819 28.7281 45.819 28.8652 45.988 28.8652H47.086C47.2033 29.462 47.4343 30.0198 47.773 30.524L46.9966 31.3003C46.8771 31.4198 46.8771 31.6136 46.9966 31.7331L47.8098 32.5462C47.8511 32.5875 47.9016 32.6202 47.9584 32.6336C48.0667 32.659 48.1738 32.6277 48.2489 32.5527L49.0252 31.7763C49.5294 32.115 50.0872 32.346 50.6841 32.4633V33.5523C50.6841 33.6107 50.6967 33.6695 50.7275 33.7192C50.7861 33.8137 50.884 33.8673 50.9901 33.8673H52.1493C52.3183 33.8673 52.4553 33.7303 52.4553 33.5613V32.4633C53.0523 32.346 53.6101 32.1149 54.1141 31.7763L54.8842 32.5463C54.9255 32.5877 54.9762 32.6205 55.033 32.6337C55.1412 32.6589 55.2483 32.6276 55.3232 32.5527L56.1364 31.7395C56.1777 31.6981 56.2105 31.6475 56.2238 31.5906C56.2491 31.4823 56.2178 31.3752 56.1428 31.3003L55.3665 30.5239C55.7051 30.0198 55.9362 29.462 56.0534 28.8651H57.1516C57.3205 28.8651 57.4576 28.728 57.4576 28.5591V27.4001ZM54.1866 27.6649C54.2932 28.59 53.9266 29.4746 53.1968 30.0532C52.8198 30.352 52.3633 30.5412 51.8854 30.5963C50.9597 30.7033 50.0744 30.3364 49.4956 29.6059C49.1969 29.2288 49.0079 28.7721 48.9528 28.2941C48.8462 27.3686 49.2133 26.4835 49.9439 25.9051C50.321 25.6065 50.7777 25.4176 51.2556 25.3627C52.181 25.2563 53.0657 25.6233 53.6441 26.3536C53.9427 26.7306 54.1316 27.1872 54.1866 27.6649Z" fill="#FFC850"/>
<path d="M48.6064 31.7332C48.4869 31.6137 48.4869 31.4199 48.6064 31.3005L49.1488 30.7581C49.2807 30.6262 49.3113 30.4215 49.218 30.26C49.0059 29.8928 48.8475 29.5002 48.7451 29.0874C48.7128 28.9571 48.5963 28.8653 48.462 28.8653H47.5977C47.4287 28.8653 47.2917 28.7283 47.2917 28.5593V27.4002C47.2917 27.2312 47.4287 27.0942 47.5977 27.0942H48.3955C48.5688 27.0942 48.7173 26.9753 48.7615 26.8077C48.8712 26.3916 49.0381 25.9966 49.2601 25.6279C49.3296 25.5124 49.3121 25.3647 49.2168 25.2694L48.6063 24.6589C48.4868 24.5394 48.4868 24.3456 48.6063 24.2262L48.8374 23.9951L48.2553 23.4129C48.2139 23.3716 48.1633 23.3388 48.1063 23.3255C47.9981 23.3003 47.8911 23.3316 47.8162 23.4066L46.9966 24.2262C46.877 24.3457 46.877 24.5395 46.9966 24.6589L47.7729 25.4353C47.4342 25.9393 47.2032 26.4972 47.086 27.0941H45.9879C45.8189 27.0941 45.6819 27.2311 45.6819 27.4001V28.5592C45.6819 28.7282 45.8189 28.8653 45.9879 28.8653H47.086C47.2032 29.4621 47.4342 30.0199 47.7729 30.5241L46.9966 31.3004C46.877 31.4199 46.877 31.6137 46.9966 31.7331L47.8097 32.5463C47.851 32.5875 47.9015 32.6203 47.9583 32.6337C48.0666 32.6592 48.1738 32.6279 48.2489 32.5528L48.8374 31.9642L48.6064 31.7332Z" fill="#F9B428"/>
<path d="M58.1861 48.1807C58.6669 47.5044 58.737 46.5828 58.2861 45.8233C57.676 44.7957 56.3484 44.4571 55.3208 45.0671L49.9503 48.2553C49.7362 48.3823 49.5549 48.5424 49.4032 48.7226C58.2889 48.1046 57.7027 48.1032 58.1861 48.1807Z" fill="#E59770"/>
<path d="M58.5509 46.5282C57.7405 46.3772 57.8632 46.4401 52.3637 46.8225L49.9502 48.2553C49.7362 48.3823 49.5548 48.5424 49.4032 48.7226C58.2889 48.1046 57.7027 48.1032 58.1861 48.1807C58.5248 47.7041 58.6585 47.1059 58.5509 46.5282Z" fill="#D88A68"/>
<path d="M59.9503 49.7366C59.467 47.6573 57.1984 48.0865 57.01 48.113L48.1276 48.7307C47.9163 48.7454 47.7561 48.5428 47.8209 48.341C48.0011 47.7799 48.1061 46.771 46.9702 45.9973C42.3642 42.8595 41.8373 42.3848 40.5629 42.081L40.5628 42.0808C36.6444 41.2257 35.8959 41.0928 33.7803 41.5229C31.9301 41.8992 30.1214 42.4541 28.3702 43.1592L31.8192 51.535C33.0606 51.0177 33.9503 50.5637 35.3718 50.8338C37.0103 51.1451 37.1336 51.3927 41.3817 54.2867C42.0401 54.6905 43.5928 55.4361 45.4851 54.942C45.486 54.9417 45.4867 54.9416 45.4867 54.9416L57.9877 52.4302C58.3716 52.3299 60.3354 51.6744 59.9503 49.7366Z" fill="#F0A479"/>
<path d="M43.1128 53.9577C38.8646 50.9372 38.7413 50.6789 37.1028 50.354C35.977 50.1307 35.1842 50.382 34.2867 50.7642C34.62 50.7411 34.9747 50.7585 35.3717 50.8339C37.0101 51.1452 37.1335 51.3928 41.3816 54.2869C42.0399 54.6906 43.5926 55.4362 45.4849 54.9421C45.4859 54.9419 45.4865 54.9417 45.4865 54.9417L46.1558 54.8072C44.7544 54.8679 43.6431 54.2972 43.1128 53.9577Z" fill="#E59770"/>
<path d="M30.1625 42.4993C29.559 42.7019 28.961 42.9212 28.3701 43.1591L31.8191 51.535C32.4212 51.284 32.9408 51.0488 33.4783 50.9031L30.1625 42.4993Z" fill="#E59770"/>
<path d="M52.601 53.5124L57.9876 52.4303C58.0612 52.4111 58.1933 52.3711 58.3555 52.3059L52.601 53.5124Z" fill="#E59770"/>
<path d="M49.5217 48.6338L48.1275 48.7308C47.9695 48.7418 47.8401 48.6312 47.812 48.4903C47.222 48.8365 46.421 49.0859 45.6117 48.8242L41.2162 47.2269C40.9029 47.113 40.5566 47.2748 40.4427 47.5881C40.3288 47.9015 40.4905 48.2478 40.8039 48.3616C40.8166 48.3662 45.2141 49.9644 45.227 49.9687C46.9032 50.5184 48.7034 49.6071 49.5217 48.6338Z" fill="#E59770"/>
<path d="M32.3673 52.5727L28.0021 41.9721C27.8195 41.5284 27.3116 41.3168 26.868 41.4995L20.557 44.0983C20.22 44.2371 20 44.5656 20 44.9301V57.5925C20 58.0688 20.4834 58.3929 20.924 58.2119L31.8948 53.7069C32.3384 53.5242 32.5499 53.0164 32.3673 52.5727Z" fill="#714276"/>
<path d="M21.6098 57.5526V44.1386C21.6098 43.9395 21.6721 43.7507 21.7812 43.5942L20.557 44.0983C20.22 44.237 20 44.5656 20 44.9301V57.5924C20 58.0688 20.4834 58.3928 20.924 58.2119L21.6968 57.8945C21.6416 57.7945 21.6098 57.6785 21.6098 57.5526Z" fill="#B8A0BB"/>
<path d="M52.0044 23.4645C52.1605 23.4767 52.294 23.3535 52.294 23.197V22.3977C52.294 22.3183 52.325 22.2466 52.3746 22.1923C52.3187 22.1309 52.2388 22.0918 52.1493 22.0918H50.9901C50.8212 22.0918 50.6842 22.2288 50.6842 22.3977V23.4959C50.6842 23.4959 51.3191 23.4106 52.0044 23.4645Z" fill="#F9B428"/>
<path d="M52.294 33.5524V32.7002C52.294 32.5694 52.188 32.4634 52.0572 32.4634H50.6842V33.5524C50.6842 33.6108 50.6968 33.6698 50.7276 33.7194C50.7862 33.8138 50.8841 33.8674 50.9902 33.8674H52.1494C52.2387 33.8674 52.3185 33.8284 52.3744 33.7672C52.361 33.7525 52.3483 33.7368 52.3374 33.7192C52.3065 33.6696 52.294 33.6107 52.294 33.5524Z" fill="#F9B428"/>
<path d="M44.4882 39.7868V38.6724C44.4882 38.4617 44.3352 38.2821 44.1272 38.2486L42.7421 38.0254H42.7406C42.825 38.092 42.8784 38.1938 42.8784 38.3068V39.7869C42.8784 40.0272 43.0733 40.222 43.3136 40.222H44.9233C44.683 40.222 44.4882 40.0271 44.4882 39.7868Z" fill="#D8DCE5"/>
<path d="M44.4882 22.1722C44.4882 21.9319 44.683 21.7371 44.9234 21.7371H43.3136C43.0733 21.7371 42.8784 21.9319 42.8784 22.1722V23.7278C42.8784 23.8514 42.7934 23.9596 42.6727 23.9863L44.1654 23.7739C44.3506 23.7475 44.4882 23.5889 44.4882 23.4018V22.1722Z" fill="#D8DCE5"/>
</g>
<defs>
<clipPath id="clip0_114_2504">
<rect width="40" height="40" fill="white" transform="translate(20 20)"/>
</clipPath>
</defs>
</svg>
