<svg width="80" height="80" viewBox="0 0 80 80" fill="none" xmlns="http://www.w3.org/2000/svg">
<rect width="80" height="80" rx="16" fill="#E3D9E4"/>
<g clip-path="url(#clip0_114_2612)">
<path d="M50.14 43.0688C49.9633 43.3242 49.8433 43.6145 49.7881 43.9201L49.3375 46.4882C49.27 46.8778 49.0671 47.2311 48.7645 47.4856C48.4619 47.7402 48.0792 47.8797 47.6837 47.8795C47.6043 47.8797 47.5249 47.8741 47.4462 47.8626L44.865 47.5001C44.7639 47.4862 44.662 47.4791 44.56 47.4788C43.9938 47.4779 43.4496 47.6979 43.0431 48.092L42.0137 49.0882L52.3037 59.3751L53.63 53.6301L59.375 52.3038L50.14 43.0688Z" fill="#714276"/>
<path d="M51.8181 44.75L51.4306 46.8588C51.2772 47.7416 50.8168 48.5418 50.1306 49.118C49.4444 49.6943 48.5767 50.0096 47.6806 50.0081C47.5016 50.0078 47.3229 49.995 47.1456 49.97L45.8331 49.7825L52.89 56.8363L53.63 53.63L59.375 52.3038L51.8181 44.75Z" fill="#B8A0BB"/>
<path d="M29.86 43.0688C30.0367 43.3242 30.1567 43.6145 30.2119 43.9201L30.6625 46.4882C30.73 46.8778 30.9329 47.2311 31.2355 47.4856C31.5381 47.7402 31.9208 47.8797 32.3162 47.8795C32.3957 47.8797 32.4751 47.8741 32.5538 47.8626L35.135 47.5001C35.2361 47.4862 35.338 47.4791 35.44 47.4788C36.0062 47.4779 36.5504 47.6979 36.9569 48.092L37.9862 49.0882L27.6962 59.3751L26.37 53.6301L20.625 52.3038L29.86 43.0688Z" fill="#714276"/>
<path d="M28.1819 44.75L28.5694 46.8588C28.7227 47.741 29.1827 48.5408 29.8682 49.117C30.5537 49.6932 31.4207 50.0088 32.3162 50.0081C32.4952 50.0078 32.674 49.995 32.8512 49.97L34.1638 49.7825L27.11 56.8363L26.37 53.63L20.625 52.3038L28.1819 44.75Z" fill="#B8A0BB"/>
<path d="M26.9806 34.7768L25.8356 32.4374C25.6157 31.9872 25.5793 31.4692 25.7342 30.9927C25.889 30.5162 26.223 30.1185 26.6656 29.8837L28.9688 28.6618C29.2294 28.5242 29.455 28.3287 29.6283 28.0903C29.8017 27.852 29.9181 27.5771 29.9688 27.2868L30.4194 24.7193C30.5058 24.2256 30.7807 23.7849 31.1862 23.4903C31.5916 23.1957 32.0957 23.0702 32.5919 23.1405L35.1731 23.5055C35.4643 23.5468 35.761 23.521 36.0407 23.4301C36.3204 23.3393 36.5756 23.1857 36.7869 22.9812L38.6619 21.1687C39.0221 20.8195 39.504 20.6243 40.0056 20.6243C40.5073 20.6243 40.9892 20.8195 41.3494 21.1687L43.2244 22.9812C43.4357 23.1857 43.6909 23.3393 43.9706 23.4301C44.2502 23.521 44.547 23.5468 44.8381 23.5055L47.4194 23.1405C47.9142 23.0725 48.4162 23.1989 48.8198 23.4932C49.2234 23.7875 49.4972 24.2267 49.5838 24.7187L50.0344 27.2862C50.0847 27.5762 50.2007 27.8509 50.3734 28.0892C50.5462 28.3275 50.7712 28.5232 51.0313 28.6612L53.3344 29.883C53.7771 30.1179 54.1112 30.5157 54.2661 30.9923C54.421 31.469 54.3845 31.9872 54.1644 32.4374L53.0194 34.7799C52.8902 35.044 52.823 35.334 52.823 35.628C52.823 35.922 52.8902 36.2121 53.0194 36.4762L54.1644 38.8187C54.3843 39.2688 54.4207 39.7869 54.2658 40.2634C54.111 40.7399 53.777 41.1376 53.3344 41.3724L51.0313 42.5912C50.7712 42.7291 50.5462 42.9248 50.3734 43.1631C50.2007 43.4014 50.0847 43.6761 50.0344 43.9662L49.5838 46.5337C49.4974 47.0273 49.2224 47.468 48.817 47.7627C48.4116 48.0573 47.9075 48.1827 47.4113 48.1124L44.83 47.7474C44.5388 47.7061 44.2421 47.7319 43.9624 47.8228C43.6828 47.9137 43.4275 48.0672 43.2163 48.2718L41.3413 50.0843C40.9811 50.4334 40.4991 50.6287 39.9975 50.6287C39.4959 50.6287 39.0139 50.4334 38.6538 50.0843L36.7788 48.2718C36.5675 48.0672 36.3122 47.9137 36.0326 47.8228C35.7529 47.7319 35.4562 47.7061 35.165 47.7474L32.5838 48.1124C32.0875 48.1827 31.5834 48.0573 31.178 47.7627C30.7726 47.468 30.4976 47.0273 30.4113 46.5337L29.9606 43.9662C29.91 43.6758 29.7935 43.4009 29.6202 43.1626C29.4468 42.9243 29.2212 42.7288 28.9606 42.5912L26.6575 41.3693C26.2149 41.1344 25.8809 40.7368 25.726 40.2603C25.5712 39.7838 25.6076 39.2657 25.8275 38.8155L26.9725 36.473C27.103 36.2096 27.1716 35.9198 27.173 35.6258C27.1744 35.3319 27.1086 35.0414 26.9806 34.7768Z" fill="#E7E8EB"/>
<path d="M37.67 23.5051C37.9611 23.5463 38.2579 23.5205 38.5376 23.4297C38.8172 23.3388 39.0725 23.1852 39.2837 22.9807L41.1587 21.1682C41.1881 21.1379 41.2208 21.1111 41.2562 21.0882C40.8909 20.7761 40.4223 20.6114 39.942 20.6262C39.4617 20.641 39.0042 20.8342 38.6587 21.1682L36.7837 22.9807C36.6421 23.1182 36.4799 23.2329 36.3031 23.3207L37.67 23.5051Z" fill="#888C9D"/>
<path d="M41.1575 50.0821L39.2825 48.2696C39.0712 48.065 38.816 47.9115 38.5363 47.8206C38.2566 47.7297 37.9599 47.7039 37.6687 47.7452L36.2969 47.9389C36.4748 48.0235 36.6386 48.135 36.7825 48.2696L38.6575 50.0821C39.0035 50.4166 39.4619 50.6099 39.9429 50.6241C40.424 50.6384 40.893 50.4725 41.2581 50.1589C41.2281 50.1333 41.1875 50.1102 41.1575 50.0821Z" fill="#888C9D"/>
<path d="M32.9162 46.5313L32.4656 43.9638C32.4153 43.6738 32.2993 43.3991 32.1266 43.1608C31.9538 42.9225 31.7288 42.7268 31.4687 42.5888L29.1656 41.3669C28.723 41.1321 28.389 40.7344 28.2342 40.2579C28.0793 39.7814 28.1157 39.2634 28.3356 38.8132L29.4806 36.4707C29.6099 36.2066 29.677 35.9165 29.677 35.6226C29.677 35.3286 29.6099 35.0385 29.4806 34.7744L28.3356 32.4376C28.1157 31.9874 28.0793 31.4693 28.2342 30.9928C28.389 30.5163 28.723 30.1187 29.1656 29.8838L31.4687 28.6619C31.7288 28.5239 31.9538 28.3283 32.1266 28.09C32.2993 27.8517 32.4153 27.577 32.4656 27.2869L32.9162 24.7194C32.9683 24.4239 33.0888 24.1446 33.2681 23.9039C33.4474 23.6632 33.6805 23.4677 33.9487 23.3332L32.5887 23.1407C32.0926 23.0704 31.5886 23.1957 31.1832 23.4902C30.7778 23.7847 30.5028 24.2253 30.4162 24.7188L29.9656 27.2863C29.915 27.5766 29.7985 27.8515 29.6252 28.0899C29.4518 28.3282 29.2262 28.5237 28.9656 28.6613L26.6625 29.8832C26.2203 30.1186 25.8869 30.5166 25.7326 30.9932C25.5783 31.4698 25.6152 31.9877 25.8356 32.4376L26.9806 34.7801C27.1099 35.0441 27.177 35.3342 27.177 35.6282C27.177 35.9222 27.1099 36.2123 26.9806 36.4763L25.8356 38.8157C25.6157 39.2659 25.5793 39.7839 25.7342 40.2604C25.889 40.7369 26.223 41.1346 26.6656 41.3694L28.9687 42.5913C29.2294 42.7289 29.455 42.9244 29.6283 43.1628C29.8017 43.4011 29.9181 43.676 29.9687 43.9663L30.4194 46.5338C30.5059 47.0274 30.7809 47.468 31.1863 47.7626C31.5917 48.0572 32.0957 48.1827 32.5919 48.1126L33.9519 47.9201C33.6827 47.7857 33.4488 47.59 33.269 47.3488C33.0891 47.1076 32.9683 46.8276 32.9162 46.5313Z" fill="#888C9D"/>
<path d="M40 44.375C44.8325 44.375 48.75 40.4575 48.75 35.625C48.75 30.7925 44.8325 26.875 40 26.875C35.1675 26.875 31.25 30.7925 31.25 35.625C31.25 40.4575 35.1675 44.375 40 44.375Z" fill="#3ABCA7"/>
<path d="M33.75 35.625C33.7511 33.5223 34.51 31.4903 35.8874 29.9016C37.2648 28.3128 39.1687 27.2736 41.25 26.9744C40.0041 26.785 38.7319 26.867 37.5206 27.2147C36.3093 27.5624 35.1874 28.1677 34.2317 28.9892C33.2759 29.8106 32.5089 30.8288 31.9831 31.9741C31.4572 33.1194 31.185 34.3648 31.185 35.625C31.185 36.8852 31.4572 38.1306 31.9831 39.2759C32.5089 40.4212 33.2759 41.4394 34.2317 42.2608C35.1874 43.0823 36.3093 43.6876 37.5206 44.0353C38.7319 44.383 40.0041 44.465 41.25 44.2756C39.1687 43.9764 37.2648 42.9372 35.8874 41.3484C34.51 39.7596 33.7511 37.7277 33.75 35.625Z" fill="#2F9E8C"/>
<path d="M59.8169 51.8619L51.1919 43.2369C51.2346 43.2034 51.2795 43.1727 51.3262 43.1451L53.625 41.9219C54.2128 41.6129 54.6567 41.0864 54.8618 40.4547C55.067 39.823 55.0172 39.1362 54.7231 38.5407L53.5781 36.1988C53.4902 36.0203 53.4445 35.824 53.4445 35.6251C53.4445 35.4261 53.4902 35.2298 53.5781 35.0513L54.7231 32.7094C55.0172 32.114 55.067 31.4271 54.8618 30.7954C54.6567 30.1638 54.2128 29.6373 53.625 29.3282L51.3237 28.1063C51.1478 28.0136 50.9955 27.8817 50.8787 27.7208C50.7619 27.5598 50.6836 27.3742 50.65 27.1782L50.1994 24.6107C50.0873 23.9562 49.7239 23.3715 49.1869 22.981C48.6498 22.5906 47.9815 22.4254 47.3244 22.5207L44.7431 22.8863C44.5463 22.9137 44.3457 22.8961 44.1567 22.8347C43.9677 22.7733 43.7951 22.6698 43.6519 22.5319L41.7769 20.7194C41.3014 20.2557 40.6635 19.9961 39.9994 19.9961C39.3352 19.9961 38.6973 20.2557 38.2219 20.7194L36.3469 22.5319C36.2037 22.6698 36.0311 22.7733 35.842 22.8347C35.653 22.8961 35.4525 22.9137 35.2556 22.8863L32.6737 22.5207C32.0167 22.4258 31.3485 22.5911 30.8115 22.9814C30.2745 23.3718 29.9111 23.9564 29.7987 24.6107L29.3481 27.1782C29.3145 27.3743 29.2362 27.56 29.1193 27.721C29.0023 27.8819 28.8499 28.0138 28.6737 28.1063L26.375 29.3282C25.7871 29.6373 25.3433 30.1638 25.1382 30.7954C24.933 31.4271 24.9828 32.114 25.2769 32.7094L26.4219 35.0513C26.5098 35.2298 26.5555 35.4261 26.5555 35.6251C26.5555 35.824 26.5098 36.0203 26.4219 36.1988L25.2744 38.5407C24.9803 39.1362 24.9305 39.823 25.1357 40.4547C25.3408 41.0864 25.7846 41.6129 26.3725 41.9219L28.6762 43.1438C28.7227 43.1716 28.7674 43.2023 28.81 43.2357L20.185 51.8607C20.106 51.9396 20.0496 52.0381 20.0216 52.1462C19.9936 52.2542 19.9951 52.3678 20.0258 52.4751C20.0566 52.5824 20.1155 52.6795 20.1965 52.7563C20.2774 52.8331 20.3775 52.8869 20.4863 52.9119L25.8506 54.1501L27.0887 59.5144C27.1138 59.6232 27.1676 59.7233 27.2444 59.8042C27.3212 59.8852 27.4183 59.9441 27.5256 59.9749C27.6329 60.0056 27.7465 60.0071 27.8545 59.9791C27.9625 59.9511 28.0611 59.8947 28.14 59.8157L37.8169 50.1382L38.2225 50.5313C38.698 50.9949 39.3359 51.2544 40 51.2544C40.6641 51.2544 41.302 50.9949 41.7775 50.5313L42.1831 50.1382L51.8619 59.8169C51.9407 59.8959 52.0393 59.9523 52.1474 59.9803C52.2554 60.0083 52.369 60.0069 52.4763 59.9761C52.5835 59.9454 52.6807 59.8864 52.7575 59.8055C52.8343 59.7245 52.888 59.6245 52.9131 59.5157L54.1512 54.1513L59.5156 52.9132C59.6244 52.8881 59.7244 52.8344 59.8054 52.7576C59.8864 52.6807 59.9453 52.5836 59.976 52.4763C60.0068 52.3691 60.0082 52.2555 59.9802 52.1474C59.9522 52.0394 59.8958 51.9408 59.8169 51.8619ZM28.0512 58.1357L26.9794 53.4894C26.9531 53.3752 26.8952 53.2707 26.8123 53.1878C26.7294 53.1049 26.6249 53.047 26.5106 53.0207L21.8644 51.9488L29.4087 44.4044L29.8006 46.6394C29.9133 47.2936 30.2768 47.878 30.8137 48.2683C31.3506 48.6586 32.0186 48.8241 32.6756 48.7294L35.2569 48.3638C35.4537 48.3367 35.6541 48.3545 35.8431 48.4158C36.0321 48.4772 36.2048 48.5806 36.3481 48.7182L36.9175 49.2688L28.0512 58.1357ZM39.0919 49.6326L38.2512 48.8201L37.2175 47.8201C36.7432 47.3584 36.1075 47.1001 35.4456 47.1001C35.3241 47.1003 35.2028 47.1088 35.0825 47.1257L32.5 47.4913C32.1641 47.5407 31.8221 47.4565 31.5475 47.2569C31.2728 47.0572 31.0873 46.758 31.0306 46.4232L30.58 43.8557C30.5247 43.5642 30.419 43.2846 30.2675 43.0294C30.2534 42.999 30.2369 42.9698 30.2181 42.9419C29.9848 42.5623 29.6553 42.251 29.2631 42.0394L26.96 40.8176C26.6594 40.66 26.4322 40.3911 26.3271 40.0683C26.222 39.7455 26.2473 39.3945 26.3975 39.0901L27.5425 36.7501C27.7143 36.4006 27.8036 36.0164 27.8036 35.6269C27.8036 35.2375 27.7143 34.8533 27.5425 34.5038L26.3975 32.1619C26.2473 31.8575 26.222 31.5065 26.3271 31.1837C26.4322 30.8609 26.6594 30.592 26.96 30.4344L29.2625 29.2126C29.6071 29.0313 29.9053 28.7732 30.1342 28.4583C30.3631 28.1434 30.5165 27.78 30.5825 27.3963L31.0331 24.8288C31.0888 24.4939 31.2736 24.1942 31.5479 23.9941C31.8222 23.794 32.1641 23.7095 32.5 23.7588L35.0819 24.1244C35.4671 24.1798 35.86 24.1459 36.2301 24.0255C36.6003 23.9052 36.9378 23.7014 37.2169 23.4301L39.0919 21.6176C39.3347 21.3805 39.6606 21.2478 40 21.2478C40.3394 21.2478 40.6653 21.3805 40.9081 21.6176L42.7831 23.4301C43.062 23.7015 43.3994 23.9053 43.7695 24.0258C44.1395 24.1463 44.5323 24.1802 44.9175 24.1251L47.5 23.7588C47.8359 23.7093 48.1779 23.7934 48.4526 23.993C48.7273 24.1927 48.9128 24.4921 48.9694 24.8269L49.42 27.3944C49.486 27.778 49.6394 28.1413 49.8681 28.4562C50.0969 28.7712 50.395 29.0293 50.7394 29.2107L53.0425 30.4326C53.3431 30.5902 53.5703 30.8591 53.6754 31.1818C53.7804 31.5046 53.7552 31.8557 53.605 32.1601L52.4575 34.5001C52.2857 34.8496 52.1964 35.2338 52.1964 35.6232C52.1964 36.0126 52.2857 36.3968 52.4575 36.7463L53.6025 39.0882C53.7527 39.3926 53.778 39.7437 53.6729 40.0664C53.5678 40.3892 53.3406 40.6581 53.04 40.8157L50.7375 42.0376C50.3929 42.2188 50.0947 42.4769 49.8658 42.7918C49.6369 43.1068 49.4835 43.4701 49.4175 43.8538L48.9669 46.4213C48.9104 46.7559 48.7254 47.0551 48.4513 47.255C48.1772 47.455 47.8358 47.5398 47.5 47.4913L44.9169 47.1251C44.5316 47.0698 44.1388 47.1037 43.7686 47.224C43.3985 47.3444 43.0609 47.5481 42.7819 47.8194L40.9069 49.6319C40.6642 49.8687 40.3386 50.0013 39.9995 50.0014C39.6604 50.0015 39.3347 49.8692 39.0919 49.6326ZM53.4894 53.0207C53.3751 53.047 53.2706 53.1049 53.1877 53.1878C53.1048 53.2707 53.0469 53.3752 53.0206 53.4894L51.9487 58.1357L43.0819 49.2688L43.6506 48.7182C43.7941 48.5807 43.9667 48.4775 44.1557 48.4161C44.3446 48.3547 44.545 48.3369 44.7419 48.3638L47.3237 48.7294C47.9808 48.8242 48.6489 48.6588 49.1858 48.2685C49.7228 47.8782 50.0862 47.2937 50.1987 46.6394L50.5906 44.4044L58.1356 51.9488L53.4894 53.0207Z" fill="black"/>
<path d="M49.375 35.6251C49.3753 33.3804 48.5698 31.2102 47.105 29.5094C47.0537 29.4409 46.9889 29.3837 46.9145 29.3413C46.8402 29.2988 46.758 29.2721 46.6729 29.2628C46.5878 29.2534 46.5017 29.2617 46.4199 29.287C46.3382 29.3123 46.2625 29.3541 46.1976 29.4099C46.1326 29.4656 46.0798 29.5341 46.0424 29.6111C46.0051 29.6881 45.9839 29.772 45.9803 29.8575C45.9766 29.943 45.9906 30.0283 46.0213 30.1082C46.052 30.1881 46.0988 30.2609 46.1587 30.3219C47.4999 31.882 48.1986 33.8932 48.1133 35.9488C48.0281 38.0044 47.1653 39.9509 45.6996 41.3945C44.2338 42.8382 42.2745 43.6713 40.2178 43.7254C38.1612 43.7794 36.1608 43.0503 34.6213 41.6856C33.0817 40.3209 32.1179 38.4224 31.9248 36.3742C31.7318 34.3259 32.3238 32.2808 33.5812 30.6524C34.8386 29.0241 36.6675 27.934 38.698 27.6028C40.7285 27.2716 42.809 27.7238 44.5187 28.8682C44.5868 28.9168 44.6639 28.9512 44.7455 28.9695C44.8271 28.9878 44.9115 28.9895 44.9938 28.9745C45.076 28.9596 45.1544 28.9283 45.2244 28.8825C45.2943 28.8367 45.3544 28.7773 45.401 28.7079C45.4476 28.6384 45.4798 28.5604 45.4956 28.4783C45.5115 28.3962 45.5108 28.3118 45.4934 28.23C45.4761 28.1482 45.4425 28.0707 45.3947 28.0021C45.3469 27.9335 45.2858 27.8752 45.215 27.8307C43.478 26.668 41.4023 26.1191 39.3176 26.2712C37.233 26.4233 35.2589 27.2678 33.7092 28.6704C32.1594 30.0729 31.1228 31.9532 30.7641 34.0124C30.4054 36.0716 30.7451 38.1916 31.7293 40.0356C32.7134 41.8796 34.2856 43.3418 36.196 44.1899C38.1065 45.038 40.2455 45.2234 42.2733 44.7165C44.3012 44.2097 46.1014 43.0397 47.3881 41.3925C48.6748 39.7452 49.3742 37.7153 49.375 35.6251Z" fill="black"/>
<path d="M43.6094 32.6949L38.7394 37.8237L36.4069 35.1662C36.3544 35.0992 36.2889 35.0436 36.2142 35.0028C36.1396 34.9621 36.0574 34.937 35.9727 34.9291C35.888 34.9212 35.8026 34.9307 35.7217 34.957C35.6408 34.9832 35.5661 35.0257 35.5022 35.0819C35.4383 35.138 35.3865 35.2066 35.3501 35.2835C35.3136 35.3603 35.2932 35.4438 35.2901 35.5288C35.2871 35.6138 35.3014 35.6986 35.3322 35.7779C35.363 35.8571 35.4097 35.9293 35.4694 35.9899L38.25 39.1618C38.3073 39.2272 38.3775 39.2799 38.4563 39.3166C38.5351 39.3533 38.6206 39.3731 38.7075 39.3749H38.72C38.8048 39.3748 38.8887 39.3575 38.9666 39.324C39.0445 39.2905 39.1148 39.2415 39.1731 39.1799L44.5138 33.5549C44.5733 33.496 44.6205 33.4258 44.6524 33.3483C44.6843 33.2709 44.7003 33.1878 44.6994 33.104C44.6986 33.0203 44.6809 32.9375 44.6474 32.8607C44.614 32.7839 44.5654 32.7147 44.5047 32.657C44.4439 32.5993 44.3722 32.5545 44.2937 32.5251C44.2153 32.4957 44.1317 32.4824 44.0481 32.4859C43.9644 32.4894 43.8822 32.5098 43.8066 32.5457C43.7309 32.5816 43.6632 32.6323 43.6075 32.6949H43.6094Z" fill="white"/>
</g>
<defs>
<clipPath id="clip0_114_2612">
<rect width="40" height="40" fill="white" transform="translate(20 20)"/>
</clipPath>
</defs>
</svg>
