<svg width="80" height="80" viewBox="0 0 80 80" fill="none" xmlns="http://www.w3.org/2000/svg">
<rect width="80" height="80" rx="16" fill="#E3D9E4"/>
<path d="M44.686 20.5858C43.6366 20.5858 42.7535 21.2976 42.4931 22.2648L42.4693 22.3595L42.4456 22.2648C42.1851 21.2976 41.3019 20.5858 40.2525 20.5858C38.8514 20.5858 37.76 21.9907 37.9374 23.3288C37.9965 23.7744 38.1601 24.1999 38.3827 24.5887C39.2956 26.1838 42.4693 28.2289 42.4693 28.2289C43.8883 27.1425 45.643 26.1837 46.556 24.5887C46.7785 24.1999 46.9421 23.7744 47.0012 23.3288C47.1786 21.9907 46.0871 20.5858 44.686 20.5858Z" fill="#FF2D78"/>
<path d="M47.001 23.3288C46.9424 23.7743 46.7782 24.1995 46.5563 24.5888C45.6433 26.1841 43.8886 27.1423 42.4692 28.2287C42.4692 28.2287 41.9799 27.9138 41.3304 27.4338C42.6412 26.4881 44.1106 25.5736 44.9196 24.1605C45.1424 23.772 45.3057 23.3468 45.3651 22.9005C45.4808 22.0298 45.0587 21.131 44.3639 20.6096C44.4686 20.594 44.5765 20.5862 44.6859 20.5862C46.0873 20.5862 47.1784 21.9907 47.001 23.3288Z" fill="#FF96BC"/>
<path d="M38.314 50.8907L34.4593 48.3381C32.8928 47.3007 31.9507 45.547 31.9507 43.668V42.4706H30.0882H29.9914H28.1289V43.668C28.1289 45.547 27.1868 47.3007 25.6202 48.3381L21.7518 50.9C21.0369 51.3733 20.6071 52.1736 20.6071 53.031V59.4139H29.9912H30.0883H39.4725V53.0476C39.4726 52.1798 39.0375 51.3698 38.314 50.8907Z" fill="#FED2A4"/>
<path d="M39.4725 53.0476V59.4138H37.9499V53.8714C37.9499 53.0038 37.7326 52.1886 36.7915 51.7141L32.9366 49.1614C31.3702 48.1241 30.2962 45.666 30.4275 43.6681V42.4707H31.9509V43.6681C31.9509 45.5472 32.8927 47.3003 34.4591 48.3383L38.3141 50.8911C39.0379 51.3703 39.4725 52.18 39.4725 53.0476Z" fill="#FFBD86"/>
<path d="M58.073 31.7023C56.4246 29.686 53.9176 28.3989 51.1101 28.3989C48.4239 28.3989 46.0128 29.5772 44.3656 31.4452C43.4127 32.5259 42.8988 33.9243 42.8988 35.3651V35.4466V46.1382C42.8988 49.5745 45.6844 52.3602 49.1207 52.3602H53.171C56.6073 52.3602 59.3929 49.5745 59.3929 46.1382V35.4466C59.3929 34.0845 58.9351 32.7567 58.073 31.7023Z" fill="#5A5A5A"/>
<path d="M59.3927 35.4462V46.1377C59.3927 49.5745 56.607 52.3602 53.1711 52.3602H51.6023C55.0391 52.3602 57.8248 49.5745 57.8248 46.1377V35.4462C57.8248 34.7654 57.7098 34.0932 57.4878 33.4593C57.2658 32.8246 56.936 32.2291 56.5046 31.7022C55.0109 29.8748 52.8131 28.6469 50.3251 28.4328C50.5839 28.4109 50.8457 28.3992 51.1099 28.3992C53.9175 28.3992 56.4241 29.6857 58.0725 31.7023C58.504 32.2291 58.8339 32.8247 59.0558 33.4594C59.2786 34.0932 59.3927 34.7654 59.3927 35.4462Z" fill="#444444"/>
<path d="M56.8665 50.9443L55.802 50.2393C53.9049 48.9831 52.7641 46.8593 52.7641 44.584V44.5696H51.1444H51.0602H49.4404V44.584C49.4404 46.8593 48.2996 48.9831 46.4026 50.2393L45.3381 50.9443C43.8149 51.9529 42.899 53.6581 42.899 55.485V59.4142H51.0601H51.1445H59.3057V55.485C59.3057 53.6581 58.3897 51.953 56.8665 50.9443Z" fill="#FED2A4"/>
<path d="M59.3052 55.4847V59.4139H57.7551V55.4847C57.7551 53.6581 56.5915 52.3035 55.0681 51.2945L54.0036 50.5903C52.1066 49.3335 51.146 46.9753 50.9662 44.5843V44.5695H52.7639V44.5843C52.7639 46.8596 53.9051 48.9833 55.802 50.2393L56.8666 50.9443C58.3899 51.9533 59.3052 53.6581 59.3052 55.4847Z" fill="#FFBD86"/>
<path d="M56.6707 34.455L57.3397 36.7734V39.9761C57.3397 40.1872 57.3291 40.396 57.3085 40.6015C57.1622 42.0622 56.5083 43.3733 55.5256 44.356C54.405 45.4766 52.8566 46.1701 51.1458 46.1701C47.9358 46.1701 45.2964 43.7283 44.9832 40.6015C44.9625 40.396 44.9519 40.1871 44.9519 39.9761V36.7734L45.5456 34.455H56.6707V34.455Z" fill="#FED2A4"/>
<path d="M57.3395 36.7735V39.9758C57.3395 40.1869 57.3293 40.3963 57.3082 40.6011C57.1621 42.062 56.5086 43.3735 55.5254 44.356C54.4053 45.4768 52.8569 46.1702 51.1459 46.1702C50.881 46.1702 50.6199 46.1538 50.3643 46.121C51.7626 45.9451 53.0156 45.3034 53.9621 44.3561C54.9454 43.3736 55.5988 42.0621 55.745 40.6012C55.766 40.3965 55.7762 40.1869 55.7762 39.9759V36.7736L55.1079 34.4553H56.6712L57.3395 36.7735Z" fill="#FFBD86"/>
<path d="M51.7404 34.285H50.5513H44.9519V36.9891C47.2042 36.9217 49.4432 36.4508 50.6563 35.2326C50.8524 35.0356 51.0133 34.853 51.1458 34.6868C51.2784 34.853 51.4392 35.0357 51.6354 35.2326C52.8484 36.4508 55.0876 36.9217 57.34 36.9891V34.285H51.7404Z" fill="#5A5A5A"/>
<path d="M57.7551 51.6803L56.7213 53.7294C56.2286 54.7061 55.972 55.7848 55.972 56.8787V59.414H46.2329V56.8794C46.2329 55.785 45.9761 54.7059 45.483 53.7289L44.449 51.6802C44.7153 51.4062 45.0131 51.1594 45.3379 50.9441L46.4027 50.2396C47.1728 49.7288 47.8178 49.0761 48.3124 48.3284L48.3132 48.3292C48.3132 48.3292 48.9621 50.522 51.1025 50.522C53.2429 50.522 53.8918 48.3292 53.8918 48.3292C54.3871 49.0768 55.0322 49.7296 55.8023 50.2396L56.8663 50.9441C57.191 51.1594 57.4889 51.4063 57.7551 51.6803Z" fill="#DE5B65"/>
<path d="M57.7553 51.6805L57.0198 53.1375C56.5367 52.4207 55.8497 51.8118 55.0682 51.2944L54.0036 50.5902C53.6378 50.3478 53.3072 50.0657 53.0102 49.7492C53.6504 49.1262 53.8856 48.3493 53.8919 48.3297C53.9052 48.3492 53.9184 48.3688 53.9317 48.3875C53.9544 48.4219 53.9778 48.4555 54.0013 48.4891C54.0862 48.611 54.1825 48.7363 54.278 48.855C54.5331 49.172 54.8176 49.4632 55.1268 49.7289C55.3444 49.9158 55.564 50.0825 55.8021 50.24C55.8021 50.24 56.8665 50.9442 56.8667 50.9443C57.1431 51.1271 57.4081 51.3388 57.6538 51.579C57.6881 51.6125 57.7217 51.6461 57.7553 51.6805Z" fill="#EFADB2"/>
<path d="M39.4724 53.0479V59.4142H20.6073V53.0307C20.6073 52.1733 21.0372 51.3737 21.7516 50.9L25.6206 48.3378C26.1428 47.9915 26.5961 47.5663 26.9674 47.0826C28.9112 47.9971 31.1693 47.9971 33.1125 47.0818C33.483 47.5656 33.9363 47.9916 34.4592 48.3378L38.3142 50.8906C39.0378 51.3698 39.4724 52.1796 39.4724 53.0479Z" fill="#714276"/>
<path d="M39.4724 53.0476V59.4138H37.9499V53.8714C37.9499 53.0038 37.7325 52.1886 36.7915 51.7141L32.9365 49.1613C32.3847 48.7963 31.8946 48.2546 31.496 47.6192C32.0493 47.5058 32.5918 47.3269 33.1116 47.0814C33.1577 47.1424 33.2054 47.2018 33.2554 47.2604C33.38 47.4064 33.5085 47.5486 33.6463 47.6825C33.8951 47.9265 34.1683 48.1457 34.4591 48.3382C34.4592 48.3383 38.314 50.891 38.314 50.891C38.45 50.9809 38.5751 51.0825 38.6892 51.1935C39.1856 51.6758 39.4724 52.3426 39.4724 53.0476Z" fill="#B8A0BB"/>
<path d="M36.449 39.0157H37.5153C38.5841 39.0157 39.4505 38.1493 39.4505 37.0806C39.4505 36.0118 38.5841 35.1454 37.5153 35.1454H36.449V39.0157Z" fill="#F6A96C"/>
<path d="M23.731 39.0157H22.6647C21.5959 39.0157 20.7296 38.1493 20.7296 37.0806C20.7296 36.0118 21.5959 35.1454 22.6647 35.1454H23.731V39.0157Z" fill="#F6A96C"/>
<path d="M37.1883 30.8402L37.2122 33.506V37.1887C37.2122 37.4314 37.2 37.6715 37.1762 37.9077C37.0081 39.5873 36.2562 41.0948 35.1262 42.2248C33.8376 43.5134 32.0573 44.3108 30.0901 44.3108C26.399 44.3108 23.364 41.5032 23.0038 37.9077C22.9801 37.6714 22.9679 37.4314 22.9679 37.1887V33.506V30.8402L28.3571 29.2355L37.1883 30.8402Z" fill="#FED2A4"/>
<path d="M37.1761 37.9076C37.0081 39.5874 36.2561 41.0951 35.1259 42.2253C33.8378 43.5134 32.0573 44.3107 30.0899 44.3107C29.8218 44.3107 29.5576 44.2958 29.2974 44.2662C30.9466 44.0841 32.4262 43.3376 33.5392 42.2254C34.6694 41.0952 35.4214 39.5874 35.5894 37.9077C35.6128 37.6717 35.6081 30.5535 35.6081 30.5535L37.1886 30.8403C37.1886 30.8402 37.2003 37.6716 37.1761 37.9076Z" fill="#FFBD86"/>
<path d="M22.9678 32.085C22.9678 32.085 26.1177 32.1857 28.1227 30.3381C28.0691 30.4065 29.8543 31.2274 30.0189 31.3054C31.1298 31.8321 32.3417 32.0142 33.5589 32.0995C35.4172 32.2297 37.1753 31.9268 38.541 30.571L39.0657 30.0007C39.3919 29.6462 39.3052 29.0803 38.8872 28.8409C38.1676 28.4287 37.1234 27.7982 36.3678 27.2048C34.683 25.8815 33.0474 24.9029 30.9529 25.3227C30.1968 25.4742 29.5307 25.8493 28.9894 26.3967C28.6668 26.7229 28.1471 26.7459 27.7982 26.4479C27.5987 26.2776 27.423 26.1275 27.3887 26.0954C26.9166 25.654 26.2323 25.3578 25.5695 25.3512C24.9822 25.3453 24.3962 25.5387 23.9377 25.9081C23.3287 26.399 22.9678 27.1523 22.9678 27.9346V30.8401V32.085Z" fill="#5A5A5A"/>
<path d="M39.066 30.0007L38.5408 30.5713C37.5082 31.596 36.2522 32.0188 34.8977 32.1079C35.6144 31.8656 36.2811 31.4755 36.8736 30.8878L37.3989 30.3172C37.7248 29.9631 37.6381 29.3973 37.2199 29.1573C36.5009 28.7454 35.4566 28.1146 34.7007 27.5214C33.2821 26.4068 31.8978 25.5368 30.2448 25.5407C30.4707 25.4454 30.7074 25.3719 30.9529 25.3226C33.0476 24.9029 34.6836 25.8815 36.3679 27.2048C37.1238 27.798 38.1679 28.4288 38.8871 28.8407C39.3052 29.08 39.3919 29.6458 39.066 30.0007Z" fill="#444444"/>
<path d="M27.1789 34.929C26.8553 34.929 26.593 35.1912 26.593 35.5148V36.6342C26.593 36.9578 26.8553 37.22 27.1789 37.22C27.5025 37.22 27.7648 36.9578 27.7648 36.6342V35.5148C27.7648 35.1913 27.5025 34.929 27.1789 34.929Z" fill="black"/>
<path d="M33.0012 37.22C33.3248 37.22 33.587 36.9578 33.587 36.6342V35.5148C33.587 35.1912 33.3248 34.929 33.0012 34.929C32.6775 34.929 32.4153 35.1912 32.4153 35.5148V36.6342C32.4153 36.9578 32.6775 37.22 33.0012 37.22Z" fill="black"/>
<path d="M48.6142 38.6281C48.2906 38.6281 48.0283 38.8903 48.0283 39.2139V40.1875C48.0283 40.5111 48.2906 40.7734 48.6142 40.7734C48.9378 40.7734 49.2 40.5111 49.2 40.1875V39.2139C49.2 38.8903 48.9377 38.6281 48.6142 38.6281Z" fill="black"/>
<path d="M53.6775 40.7734C54.0012 40.7734 54.2634 40.5111 54.2634 40.1875V39.2139C54.2634 38.8903 54.0012 38.6281 53.6775 38.6281C53.3539 38.6281 53.0917 38.8903 53.0917 39.2139V40.1875C53.0917 40.511 53.354 40.7734 53.6775 40.7734Z" fill="black"/>
<path d="M59.3929 37.0868C59.7165 37.0868 59.9788 36.8246 59.9788 36.5009V35.4466C59.9788 33.9382 59.463 32.4768 58.5265 31.3313C56.6985 29.0953 53.9953 27.813 51.1102 27.813C48.363 27.813 45.7445 28.9957 43.9262 31.0576C42.8858 32.2374 42.3129 33.7672 42.3129 35.365V46.1381C42.3129 48.0291 43.0885 49.7419 44.3377 50.9767C44.3252 50.9878 44.3136 50.9996 44.3012 51.0108C44.2037 51.0987 44.1101 51.1902 44.0183 51.2844C42.9354 52.3975 42.313 53.8946 42.313 55.4848V59.414C42.313 59.7376 42.5752 59.9999 42.8989 59.9999H59.3056C59.6293 59.9999 59.8915 59.7376 59.8915 59.414V55.4848C59.8915 53.8231 59.2121 52.2626 58.0373 51.1362C57.9957 51.0962 57.9556 51.0561 57.9126 51.0171C59.186 49.7794 59.9787 48.0498 59.9787 46.138V39.2137C59.9787 38.89 59.7165 38.6278 59.3928 38.6278C59.0692 38.6278 58.8069 38.89 58.8069 39.2137V46.138C58.8069 47.7874 58.0935 49.2722 56.9604 50.3036L56.1254 49.7507C56.0398 49.694 55.9559 49.6354 55.8735 49.5746C55.1722 49.0578 54.5804 48.3913 54.1526 47.6343C54.0735 47.4943 53.9999 47.3512 53.9319 47.2054C53.8974 47.1314 53.5551 46.3151 53.5932 46.3003C54.4627 45.9642 55.261 45.4489 55.94 44.7699C57.0436 43.6664 57.7365 42.2066 57.8913 40.6598C57.9069 40.5052 57.9256 36.9888 57.9256 36.9888C57.9256 36.6721 57.6738 36.4127 57.3573 36.4032C54.8786 36.3291 52.994 35.7664 52.0504 34.8189C51.885 34.6527 51.7347 34.4852 51.6038 34.3212C51.4926 34.1818 51.324 34.1006 51.1457 34.1006C50.9674 34.1006 50.7989 34.1819 50.6877 34.3213C50.5572 34.4849 50.407 34.6523 50.2411 34.8189C49.2977 35.7664 47.4131 36.3291 44.9343 36.4032C44.6177 36.4127 44.366 36.6721 44.366 36.9888C44.366 36.9888 44.3862 40.5209 44.4002 40.6595C44.5669 42.3231 45.3424 43.8615 46.5839 44.9913C47.1874 45.5405 47.8777 45.9693 48.6201 46.2673C48.6604 46.2835 48.3209 47.0998 48.2866 47.1744C48.1176 47.5422 47.9121 47.8945 47.6737 48.2234C47.2447 48.8149 46.7081 49.334 46.0791 49.7505L45.2942 50.2703C44.1825 49.2402 43.4847 47.7694 43.4847 46.1378V35.3648C43.4847 34.0525 43.9536 32.7981 44.805 31.8324C46.4011 30.0225 48.6992 28.9845 51.1102 28.9845C53.6423 28.9845 56.0148 30.1101 57.6193 32.0727C58.3853 33.0094 58.807 34.2076 58.807 35.4464V36.5007C58.807 36.8246 59.0693 37.0868 59.3929 37.0868ZM57.2444 53.9932L57.8744 52.7443C58.4178 53.5395 58.7198 54.4898 58.7198 55.4848V58.8281H56.5578V56.8787C56.5578 55.8813 56.7952 54.8836 57.2444 53.9932ZM45.5665 40.547C45.5545 40.391 45.5427 39.0678 45.5378 37.9019V37.5489C47.422 37.4345 49.7289 36.9942 51.0715 35.6459C51.0966 35.6207 51.1214 35.5954 51.1459 35.5702C51.1704 35.5954 51.1952 35.6206 51.2203 35.6459C52.5629 36.9942 54.8697 37.4345 56.7539 37.5489V38.2567C56.7489 39.2708 56.7368 40.4042 56.7255 40.5431C56.5975 41.8217 56.0243 43.0287 55.1114 43.9416C54.0522 45.0008 52.6439 45.5841 51.1459 45.5841C48.2528 45.5841 45.8541 43.417 45.5665 40.547ZM53.2402 48.396C53.0277 48.8804 52.4141 49.9362 51.1024 49.9362C49.7899 49.9362 49.1765 48.8791 48.9646 48.3964C49.3013 47.8391 49.5635 47.2381 49.7429 46.6081C50.2006 46.7046 50.6702 46.7559 51.1459 46.7559C51.595 46.7559 52.0374 46.7123 52.4684 46.6275C52.6474 47.2502 52.9073 47.8445 53.2402 48.396ZM45.4354 51.5921C45.5091 51.5371 45.5842 51.4837 45.6615 51.4325L46.726 50.7277C47.2792 50.3614 47.7722 49.9283 48.1981 49.4432C48.7235 50.2602 49.6662 51.1078 51.1023 51.1078C52.5386 51.1078 53.4813 50.2603 54.0068 49.4433C54.0074 49.444 54.008 49.4447 54.0087 49.4454C54.0305 49.4703 54.0531 49.4944 54.0755 49.5185C54.4856 49.9729 54.9545 50.3807 55.4786 50.7278C55.4786 50.7278 56.543 51.4326 56.543 51.4327C56.5985 51.4694 57.051 51.7752 57.0354 51.8061L56.1982 53.4655C55.6668 54.5186 55.3861 55.6989 55.3861 56.8787V58.8281H46.8187V56.8794C46.8187 55.6993 46.5376 54.5185 46.006 53.4649L45.1686 51.8061C45.2548 51.7317 45.3444 51.6608 45.4354 51.5921ZM45.6469 56.8793V58.8281H43.4847V55.4848C43.4847 54.4899 43.7866 53.5397 44.3298 52.7445L44.9599 53.9928C45.4094 54.8836 45.6469 55.8817 45.6469 56.8793Z" fill="black"/>
<path d="M42.8254 28.6941C43.141 28.4524 43.4706 28.2195 43.8195 27.9729C45.037 27.1124 46.2958 26.2227 47.0645 24.8797C47.3427 24.3933 47.5168 23.8975 47.5819 23.4058C47.6925 22.5721 47.4085 21.675 46.8224 21.0061C46.2621 20.3667 45.4836 20 44.6861 20C43.8071 20 43.0001 20.4038 42.4693 21.0548C41.9385 20.4037 41.1315 20 40.2525 20C39.455 20 38.6763 20.3667 38.116 21.0062C37.5299 21.6751 37.246 22.5721 37.3566 23.4058C37.4217 23.8978 37.5958 24.3936 37.874 24.8798C38.2904 25.6073 39.1426 26.4782 40.407 27.4683C41.3253 28.1873 42.1185 28.7 42.1519 28.7214C42.2488 28.7839 42.3591 28.8148 42.4692 28.8148C42.5951 28.8148 42.7207 28.7742 42.8254 28.6941ZM38.8911 24.2977C38.6887 23.9442 38.5633 23.5923 38.5182 23.2517C38.4514 22.7479 38.6305 22.1971 38.9974 21.7784C39.34 21.3872 39.7858 21.1717 40.2525 21.1717C41.0115 21.1717 41.6795 21.6818 41.8785 22.4126L41.901 22.5022C41.9664 22.7627 42.2006 22.9454 42.4692 22.9454H42.4694C42.7381 22.9454 42.9724 22.7624 43.0375 22.5017L43.0598 22.4125C43.259 21.6817 43.9271 21.1717 44.6861 21.1717C45.1527 21.1717 45.5985 21.3872 45.9411 21.7783C46.308 22.197 46.4871 22.7479 46.4204 23.2518C46.3753 23.5921 46.2498 23.944 46.0476 24.2977C45.4078 25.4155 44.2565 26.2291 43.1433 27.016C42.9139 27.1781 42.6794 27.3439 42.4494 27.5124C41.431 26.8181 39.5045 25.3694 38.8911 24.2977Z" fill="black"/>
<path d="M38.6375 50.4023L34.7828 47.8496C34.3192 47.5426 33.9184 47.1661 33.5877 46.74C33.5824 46.7326 33.5768 46.7253 33.5712 46.7182C33.0713 46.0666 32.7361 45.2995 32.6025 44.4795C33.6962 44.1036 34.6987 43.4811 35.5405 42.6393C36.3967 41.783 37.0352 40.7379 37.4105 39.6016H37.5153C38.9054 39.6016 40.0363 38.4706 40.0363 37.0806C40.0363 35.7831 39.051 34.7118 37.7894 34.5747C37.793 33.6043 37.7956 32.6113 37.7972 31.8728C38.2168 31.6304 38.6022 31.336 38.9538 30.9869C38.96 30.9807 38.9661 30.9743 38.9721 30.9678C39.3985 30.5044 39.9424 29.9868 39.8343 29.2874C39.7719 28.8837 39.5327 28.5357 39.1783 28.3326C38.4602 27.9213 37.4525 27.312 36.7297 26.7442C35.1706 25.5197 33.3013 24.2546 30.8376 24.7483C29.9874 24.9188 29.2043 25.3463 28.5728 25.9848C28.4663 26.0926 28.293 26.1001 28.1784 26.0025C28.0457 25.8892 27.8235 25.6996 27.7886 25.6675C27.1928 25.1106 26.3654 24.7735 25.5753 24.7655C24.8406 24.7616 24.1284 25.0021 23.5699 25.4522C22.8259 26.0519 22.3818 26.98 22.3818 27.9349C22.3818 27.9349 22.3868 31.662 22.3966 34.5739C21.1321 34.7081 20.1434 35.781 20.1434 37.0806C20.1434 38.4707 21.2744 39.6016 22.6644 39.6016H22.7687C23.1807 40.853 23.9101 41.9872 24.9032 42.891C25.6604 43.58 26.5377 44.1023 27.4824 44.4417C27.3523 45.2805 27.0118 46.0655 26.4996 46.7294C26.4987 46.7307 26.4977 46.7319 26.4969 46.7331C26.1653 47.1621 25.7627 47.5409 25.2966 47.8496L21.4283 50.4115C20.5472 50.9951 20.0212 51.9743 20.0212 53.031V54.158C20.0212 54.4816 20.2834 54.7439 20.6071 54.7439C20.9307 54.7439 21.1929 54.4816 21.1929 54.158V53.031C21.1929 52.3684 21.5228 51.7544 22.0752 51.3885L25.9436 48.8266C26.3901 48.531 26.7902 48.1837 27.1383 47.7956C28.0716 48.1702 29.0553 48.3578 30.0393 48.3578C31.0236 48.3578 32.0078 48.17 32.9411 47.795C33.2892 48.1834 33.6892 48.5309 34.1358 48.8266L37.9904 51.3793C38.5516 51.7509 38.8866 52.3746 38.8866 53.0477V58.828H35.8692V53.2733C35.8692 52.9496 35.607 52.6874 35.2833 52.6874C34.9597 52.6874 34.6974 52.9496 34.6974 53.2733V58.828H25.382V53.2733C25.382 52.9496 25.1198 52.6874 24.7961 52.6874C24.4725 52.6874 24.2102 52.9496 24.2102 53.2733V58.828H21.1929V56.8711C21.1929 56.5474 20.9307 56.2852 20.6071 56.2852C20.2834 56.2852 20.0212 56.5474 20.0212 56.8711V59.4139C20.0212 59.7376 20.2834 59.9998 20.6071 59.9998H39.4725C39.7962 59.9998 40.0584 59.7376 40.0584 59.4139V53.0477C40.0584 51.9804 39.5273 50.9915 38.6375 50.4023ZM21.3154 37.0806C21.3154 36.4267 21.7831 35.8811 22.4013 35.7582C22.4067 36.9906 22.4132 37.8908 22.4208 37.9663C22.4359 38.1173 22.457 38.2669 22.4808 38.4158C21.8237 38.3258 21.3154 37.7621 21.3154 37.0806ZM38.8646 37.0806C38.8646 37.7621 38.3561 38.3258 37.6989 38.4158C37.7229 38.2668 37.7441 38.1171 37.7592 37.9663C37.77 37.859 37.7781 36.924 37.7842 35.7582C38.3998 35.8833 38.8646 36.4286 38.8646 37.0806ZM23.5537 27.9349C23.5537 27.331 23.8347 26.7439 24.3055 26.3644C24.653 26.0842 25.0973 25.9325 25.5636 25.9372C26.061 25.9421 26.6069 26.1668 26.9884 26.5233C27.0276 26.56 27.135 26.6523 27.4178 26.8936C27.9969 27.3878 28.87 27.3505 29.4061 26.8087C29.8795 26.33 30.4386 26.0233 31.068 25.8971C32.8503 25.5401 34.2788 26.3089 36.006 27.6657C36.7843 28.277 37.844 28.9187 38.5959 29.3493C38.6554 29.3835 38.6719 29.4374 38.6764 29.4666C38.681 29.496 38.6815 29.553 38.6345 29.6041L38.119 30.1645C37.0433 31.2265 35.6066 31.6559 33.5998 31.5153C31.7784 31.3876 30.1172 30.8678 28.5462 29.9335C28.5379 29.9248 28.5292 29.9162 28.5202 29.9079C28.2958 29.7008 27.9501 29.7005 27.7256 29.9074C26.4089 31.1208 24.4959 31.4113 23.5535 31.4796V27.9349H23.5537ZM25.6921 42.0244C24.495 40.935 23.7473 39.4523 23.5867 37.8494C23.5648 37.6313 23.5537 37.4091 23.5537 37.1889V32.6562C24.5512 32.5954 26.5822 32.3129 28.1718 31.0652C29.8789 31.9772 31.5803 32.5483 33.518 32.6841C33.7846 32.7028 34.0436 32.7122 34.2958 32.7122C35.1526 32.7122 35.9268 32.6038 36.6243 32.3855C36.6185 34.7059 36.6068 37.5979 36.5925 37.8565C36.4418 39.3443 35.774 40.7485 34.7118 41.8106C33.4773 43.0452 31.8359 43.7251 30.0899 43.7251C28.4591 43.7252 26.8972 43.1212 25.6921 42.0244ZM27.8568 46.8137C28.2294 46.1826 28.4892 45.4865 28.6189 44.755C29.0999 44.8482 29.5921 44.8968 30.09 44.8968C30.556 44.8968 31.0157 44.8554 31.465 44.7749C31.5958 45.4988 31.8539 46.1879 32.2227 46.8133C30.8073 47.309 29.273 47.3091 27.8568 46.8137Z" fill="black"/>
</svg>
