<svg width="80" height="80" viewBox="0 0 80 80" fill="none" xmlns="http://www.w3.org/2000/svg">
<rect width="80" height="80" rx="16" fill="#E3D9E4"/>
<path d="M26.344 58.3313H52.0052C55.6418 58.3313 58.5902 55.3828 58.5902 51.7462V26.085C58.5902 22.4484 55.6418 19.5 52.0052 19.5H26.344C22.7074 19.5 19.759 22.4484 19.759 26.085V51.7462C19.759 55.3828 22.7074 58.3313 26.344 58.3313Z" fill="#3ABCA7" stroke="black"/>
<path d="M52.27 30.1854H39.1746C38.773 30.1854 38.4471 29.8602 38.4471 29.4579C38.4471 29.0556 38.773 28.7303 39.1746 28.7303H52.27C52.6716 28.7303 52.9976 29.0556 52.9976 29.4579C52.9976 29.8602 52.6716 30.1854 52.27 30.1854Z" fill="white"/>
<path d="M52.27 40.3707H39.1746C38.773 40.3707 38.4471 40.0455 38.4471 39.6432C38.4471 39.2409 38.773 38.9156 39.1746 38.9156H52.27C52.6716 38.9156 52.9976 39.2409 52.9976 39.6432C52.9976 40.0455 52.6716 40.3707 52.27 40.3707Z" fill="white"/>
<path d="M52.27 50.556H39.1746C38.773 50.556 38.4471 50.2308 38.4471 49.8285C38.4471 49.4262 38.773 49.101 39.1746 49.101H52.27C52.6716 49.101 52.9976 49.4262 52.9976 49.8285C52.9976 50.2308 52.6716 50.556 52.27 50.556Z" fill="white"/>
<path d="M29.0409 32.368C28.8889 32.368 28.7354 32.3207 28.6044 32.2225L25.2789 29.7278C24.9573 29.487 24.8926 29.0308 25.1334 28.71C25.3742 28.3891 25.8304 28.3237 26.1519 28.5645L28.9325 30.6495L33.4781 25.3474C33.7393 25.0418 34.1991 25.0069 34.5039 25.2688C34.8087 25.53 34.8444 25.989 34.5825 26.2939L29.5938 32.1141C29.4498 32.2814 29.2461 32.368 29.0409 32.368Z" fill="white"/>
<path d="M29.0409 42.5533C28.8889 42.5533 28.7354 42.506 28.6044 42.4078L25.2789 39.9131C24.9573 39.6723 24.8926 39.2161 25.1334 38.8953C25.3742 38.5744 25.8304 38.509 26.1519 38.7498L28.9325 40.8348L33.4781 35.5327C33.7393 35.2271 34.1991 35.1922 34.5039 35.4541C34.8087 35.7153 34.8444 36.1743 34.5825 36.4792L29.5938 42.2994C29.4498 42.4667 29.2461 42.5533 29.0409 42.5533Z" fill="white"/>
<path d="M29.0409 53.4654C28.8889 53.4654 28.7354 53.4181 28.6044 53.3199L25.2789 50.8252C24.9573 50.5844 24.8926 50.1283 25.1334 49.8074C25.3742 49.4866 25.8304 49.4211 26.1519 49.6619L28.9325 51.747L33.4781 46.4455C33.7393 46.1393 34.1991 46.1043 34.5039 46.367C34.8087 46.6282 34.8444 47.0872 34.5825 47.3921L29.5938 53.2115C29.4498 53.3789 29.2461 53.4654 29.0409 53.4654Z" fill="white"/>
<path d="M44.1479 53.0942L44.1421 53.0993L42.6958 58.403L46.0766 55.0222L44.1479 53.0942Z" fill="#EDDCC7"/>
<path d="M58.1528 42.9461L57.2456 42.0388C56.6817 41.475 55.7672 41.475 55.2034 42.0388L52.5974 44.6448L54.5261 46.5735L58.1528 42.9461Z" fill="#D75A4A"/>
<path d="M54.5258 46.5731L52.5972 44.6445L44.1482 53.0936L46.0768 55.0222L54.5258 46.5731Z" fill="#F29C21"/>
<path d="M48.2577 57.215L48.2636 57.2092L46.0766 55.0222L42.6958 58.403L42.5991 58.7581L48.2577 57.215Z" fill="#D6C4B1"/>
<path d="M56.7123 48.7604L59.3183 46.1544C59.8821 45.5906 59.8821 44.6761 59.3183 44.1123L58.1528 42.9468L54.5261 46.5735L56.7123 48.7604Z" fill="#A34740"/>
<path d="M46.076 55.0231L48.2628 57.21L56.7118 48.7609L54.525 46.5741L46.076 55.0231Z" fill="#E18C25"/>
<path d="M42.0847 60C41.8985 60 41.7122 59.9287 41.5703 59.7868C41.2859 59.5023 41.2859 59.0425 41.5703 58.7581L43.176 57.1524C43.4604 56.868 43.9202 56.868 44.2047 57.1524C44.4892 57.4369 44.4892 57.8967 44.2047 58.1812L42.5991 59.7868C42.4572 59.9294 42.2709 60 42.0847 60Z" fill="#5E5E5E"/>
</svg>
